<svg width="66" height="18" viewBox="0 0 66 18" fill="none" xmlns="http://www.w3.org/2000/svg">
<g clip-path="url(#clip0_189_2123)">
<path d="M56.7338 0.932983C58.42 0.932983 59.8936 1.27478 61.1544 1.95839C62.4305 2.6268 63.4103 3.56864 64.0939 4.78393C64.7775 5.99922 65.1193 7.38921 65.1193 8.9539C65.1193 10.5034 64.7699 11.8858 64.0711 13.1011C63.3875 14.3164 62.4077 15.2734 61.1316 15.9722C59.8708 16.6558 58.4048 16.9976 56.7338 16.9976H50.3763V0.932983H56.7338ZM56.392 13.0555C57.6985 13.0555 58.7239 12.6985 59.4682 11.9846C60.2126 11.2706 60.5848 10.2604 60.5848 8.9539C60.5848 7.63227 60.2126 6.61445 59.4682 5.90048C58.7239 5.1713 57.6985 4.80672 56.392 4.80672H54.8425V13.0555H56.392Z" fill="#1E1E1E"/>
<path d="M43.6494 13.5796H48.6397V16.9976H39.1832V0.932983H43.6494V13.5796Z" fill="#1E1E1E"/>
<path d="M36.6398 0.932983V16.9976H32.1736V0.932983H36.6398Z" fill="#1E1E1E"/>
<path d="M20.3265 0.932983V10.2528C20.3265 11.1187 20.5239 11.7871 20.9189 12.258C21.3291 12.7289 21.9443 12.9644 22.7646 12.9644C23.585 12.9644 24.2002 12.7289 24.6104 12.258C25.0357 11.7719 25.2484 11.1035 25.2484 10.2528V0.932983H29.7146V10.2528C29.7146 11.7263 29.4031 12.9872 28.7803 14.0354C28.1575 15.0684 27.3068 15.8507 26.2282 16.3824C25.1648 16.8989 23.9799 17.1571 22.6735 17.1571C21.367 17.1571 20.1973 16.8989 19.1643 16.3824C18.1465 15.8507 17.3414 15.0684 16.749 14.0354C16.1717 13.0024 15.8831 11.7415 15.8831 10.2528V0.932983H20.3265Z" fill="#1E1E1E"/>
<path d="M10.9179 8.74882C11.8598 8.96149 12.6042 9.43241 13.151 10.1616C13.7131 10.8756 13.9941 11.6959 13.9941 12.6226C13.9941 13.9898 13.5232 15.0608 12.5814 15.8355C11.6395 16.6103 10.3179 16.9976 8.61649 16.9976H0.66394V0.932983H8.36583C10.0065 0.932983 11.2901 1.29757 12.2168 2.02675C13.1586 2.75592 13.6296 3.78132 13.6296 5.10295C13.6296 6.0448 13.3789 6.83473 12.8776 7.47276C12.3915 8.0956 11.7383 8.52095 10.9179 8.74882ZM5.13013 7.31325H7.38601C8.51015 7.31325 9.07222 6.84993 9.07222 5.92327C9.07222 4.96623 8.51015 4.48771 7.38601 4.48771H5.13013V7.31325ZM7.72781 13.3973C8.85195 13.3973 9.41402 12.9264 9.41402 11.9846C9.41402 11.4984 9.26211 11.1263 8.95829 10.868C8.66966 10.6098 8.2519 10.4806 7.70502 10.4806H5.13013V13.3973H7.72781Z" fill="#1E1E1E"/>
</g>
<defs>
<clipPath id="clip0_189_2123">
<rect width="64.5622" height="17.09" fill="white" transform="translate(0.66394 0.5)"/>
</clipPath>
</defs>
</svg>
