<svg width="68" height="18" viewBox="0 0 68 18" fill="none" xmlns="http://www.w3.org/2000/svg">
<path d="M59.0554 0.456055C60.8314 0.456055 62.3834 0.816055 63.7114 1.53606C65.0554 2.24006 66.0874 3.23205 66.8074 4.51206C67.5274 5.79206 67.8874 7.25606 67.8874 8.90406C67.8874 10.5361 67.5194 11.9921 66.7834 13.2721C66.0634 14.5521 65.0314 15.5601 63.6874 16.2961C62.3594 17.0161 60.8154 17.3761 59.0554 17.3761H52.3594V0.456055H59.0554ZM58.6954 13.2241C60.0714 13.2241 61.1514 12.8481 61.9354 12.0961C62.7194 11.3441 63.1114 10.2801 63.1114 8.90406C63.1114 7.51206 62.7194 6.44005 61.9354 5.68806C61.1514 4.92005 60.0714 4.53606 58.6954 4.53606H57.0634V13.2241H58.6954Z" fill="#1E1E1E"/>
<path d="M45.2743 13.7761H50.5303V17.3761H40.5703V0.456055H45.2743V13.7761Z" fill="#1E1E1E"/>
<path d="M37.8915 0.456055V17.3761H33.1875V0.456055H37.8915Z" fill="#1E1E1E"/>
<path d="M20.7095 0.456055V10.2721C20.7095 11.1841 20.9175 11.8881 21.3335 12.3841C21.7655 12.8801 22.4135 13.1281 23.2775 13.1281C24.1415 13.1281 24.7895 12.8801 25.2215 12.3841C25.6695 11.8721 25.8935 11.1681 25.8935 10.2721V0.456055H30.5975V10.2721C30.5975 11.8241 30.2695 13.1521 29.6135 14.2561C28.9575 15.3441 28.0615 16.1681 26.9255 16.7281C25.8055 17.2721 24.5575 17.5441 23.1815 17.5441C21.8055 17.5441 20.5735 17.2721 19.4855 16.7281C18.4135 16.1681 17.5655 15.3441 16.9415 14.2561C16.3335 13.1681 16.0295 11.8401 16.0295 10.2721V0.456055H20.7095Z" fill="#1E1E1E"/>
<path d="M10.8 8.68806C11.792 8.91206 12.576 9.40805 13.152 10.1761C13.744 10.9281 14.04 11.7921 14.04 12.7681C14.04 14.2081 13.544 15.3361 12.552 16.1521C11.56 16.9681 10.168 17.3761 8.376 17.3761H0V0.456055H8.112C9.84 0.456055 11.192 0.840055 12.168 1.60806C13.16 2.37606 13.656 3.45606 13.656 4.84806C13.656 5.84006 13.392 6.67206 12.864 7.34406C12.352 8.00006 11.664 8.44806 10.8 8.68806ZM4.704 7.17605H7.08C8.264 7.17605 8.856 6.68806 8.856 5.71206C8.856 4.70406 8.264 4.20006 7.08 4.20006H4.704V7.17605ZM7.44 13.5841C8.624 13.5841 9.216 13.0881 9.216 12.0961C9.216 11.5841 9.056 11.1921 8.736 10.9201C8.432 10.6481 7.992 10.5121 7.416 10.5121H4.704V13.5841H7.44Z" fill="#1E1E1E"/>
</svg>
