<svg width="15" height="15" viewBox="0 0 15 15" fill="none" xmlns="http://www.w3.org/2000/svg">
<path d="M5.88123 2.48315L10.3793 6.96753C10.5078 7.09605 10.5078 7.30386 10.3793 7.43237L5.88123 11.9167C5.75271 12.0453 5.5449 12.0453 5.41638 11.9167L5.22224 11.7226C5.09373 11.5941 5.09373 11.3863 5.22224 11.2578L8.83162 7.66479H1.1781C0.997632 7.66479 0.849976 7.51714 0.849976 7.33667V7.06323C0.849976 6.88276 0.997632 6.73511 1.1781 6.73511H8.83162L5.22498 3.14214C5.09646 3.01362 5.09646 2.80581 5.22498 2.67729L5.41912 2.48315C5.5449 2.35464 5.75271 2.35464 5.88123 2.48315ZM14.85 11.1375V3.26245C14.85 2.53784 14.2621 1.94995 13.5375 1.94995H9.9281C9.74763 1.94995 9.59998 2.09761 9.59998 2.27808V2.49683C9.59998 2.67729 9.74763 2.82495 9.9281 2.82495H13.5375C13.7781 2.82495 13.975 3.02183 13.975 3.26245V11.1375C13.975 11.3781 13.7781 11.575 13.5375 11.575H9.9281C9.74763 11.575 9.59998 11.7226 9.59998 11.9031V12.1218C9.59998 12.3023 9.74763 12.45 9.9281 12.45H13.5375C14.2621 12.45 14.85 11.8621 14.85 11.1375Z" fill="#1F2937"/>
</svg>
