<svg width="15" height="15" viewBox="0 0 15 15" fill="none" xmlns="http://www.w3.org/2000/svg">
<path d="M5.88123 2.48322L10.3793 6.96759C10.5078 7.09611 10.5078 7.30392 10.3793 7.43243L5.88123 11.9168C5.75271 12.0453 5.5449 12.0453 5.41638 11.9168L5.22224 11.7227C5.09373 11.5942 5.09373 11.3863 5.22224 11.2578L8.83162 7.66486H1.1781C0.997632 7.66486 0.849976 7.5172 0.849976 7.33673V7.06329C0.849976 6.88282 0.997632 6.73517 1.1781 6.73517H8.83162L5.22498 3.1422C5.09646 3.01368 5.09646 2.80587 5.22498 2.67736L5.41912 2.48322C5.5449 2.3547 5.75271 2.3547 5.88123 2.48322ZM14.85 11.1375V3.26251C14.85 2.5379 14.2621 1.95001 13.5375 1.95001H9.9281C9.74763 1.95001 9.59998 2.09767 9.59998 2.27814V2.49689C9.59998 2.67736 9.74763 2.82501 9.9281 2.82501H13.5375C13.7781 2.82501 13.975 3.02189 13.975 3.26251V11.1375C13.975 11.3781 13.7781 11.575 13.5375 11.575H9.9281C9.74763 11.575 9.59998 11.7227 9.59998 11.9031V12.1219C9.59998 12.3024 9.74763 12.45 9.9281 12.45H13.5375C14.2621 12.45 14.85 11.8621 14.85 11.1375Z" fill="#333333"/>
</svg>
