<svg width="18" height="15" viewBox="0 0 18 15" fill="none" xmlns="http://www.w3.org/2000/svg">
<path d="M17.7412 6.32501H15.335V3.91876C15.335 3.79845 15.2365 3.70001 15.1162 3.70001H14.6787C14.5584 3.70001 14.46 3.79845 14.46 3.91876V6.32501H12.0537C11.9334 6.32501 11.835 6.42345 11.835 6.54376V6.98126C11.835 7.10157 11.9334 7.20001 12.0537 7.20001H14.46V9.60626C14.46 9.72657 14.5584 9.82501 14.6787 9.82501H15.1162C15.2365 9.82501 15.335 9.72657 15.335 9.60626V7.20001H17.7412C17.8615 7.20001 17.96 7.10157 17.96 6.98126V6.54376C17.96 6.42345 17.8615 6.32501 17.7412 6.32501ZM9.03498 8.07501C8.25021 8.07501 7.87287 8.51251 6.58498 8.51251C5.29709 8.51251 4.92248 8.07501 4.13498 8.07501C2.10607 8.07501 0.459976 9.72111 0.459976 11.75V12.8875C0.459976 13.6121 1.04787 14.2 1.77248 14.2H11.3975C12.1221 14.2 12.71 13.6121 12.71 12.8875V11.75C12.71 9.72111 11.0639 8.07501 9.03498 8.07501ZM11.835 12.8875C11.835 13.1281 11.6381 13.325 11.3975 13.325H1.77248C1.53185 13.325 1.33498 13.1281 1.33498 12.8875V11.75C1.33498 10.2051 2.59005 8.95001 4.13498 8.95001C4.67091 8.95001 5.20412 9.38751 6.58498 9.38751C7.9631 9.38751 8.49904 8.95001 9.03498 8.95001C10.5799 8.95001 11.835 10.2051 11.835 11.75V12.8875ZM6.58498 7.20001C8.51818 7.20001 10.085 5.63322 10.085 3.70001C10.085 1.76681 8.51818 0.200012 6.58498 0.200012C4.65177 0.200012 3.08498 1.76681 3.08498 3.70001C3.08498 5.63322 4.65177 7.20001 6.58498 7.20001ZM6.58498 1.07501C8.03146 1.07501 9.20998 2.25353 9.20998 3.70001C9.20998 5.1465 8.03146 6.32501 6.58498 6.32501C5.13849 6.32501 3.95998 5.1465 3.95998 3.70001C3.95998 2.25353 5.13849 1.07501 6.58498 1.07501Z" fill="#333333"/>
</svg>
