<svg width="18" height="15" viewBox="0 0 18 15" fill="none" xmlns="http://www.w3.org/2000/svg">
<path d="M17.7412 6.32495H15.335V3.9187C15.335 3.79839 15.2365 3.69995 15.1162 3.69995H14.6787C14.5584 3.69995 14.46 3.79839 14.46 3.9187V6.32495H12.0537C11.9334 6.32495 11.835 6.42339 11.835 6.5437V6.9812C11.835 7.10151 11.9334 7.19995 12.0537 7.19995H14.46V9.6062C14.46 9.72651 14.5584 9.82495 14.6787 9.82495H15.1162C15.2365 9.82495 15.335 9.72651 15.335 9.6062V7.19995H17.7412C17.8615 7.19995 17.96 7.10151 17.96 6.9812V6.5437C17.96 6.42339 17.8615 6.32495 17.7412 6.32495ZM9.03496 8.07495C8.2502 8.07495 7.87285 8.51245 6.58496 8.51245C5.29707 8.51245 4.92246 8.07495 4.13496 8.07495C2.10605 8.07495 0.459961 9.72104 0.459961 11.75V12.8875C0.459961 13.6121 1.04785 14.2 1.77246 14.2H11.3975C12.1221 14.2 12.71 13.6121 12.71 12.8875V11.75C12.71 9.72104 11.0639 8.07495 9.03496 8.07495ZM11.835 12.8875C11.835 13.1281 11.6381 13.325 11.3975 13.325H1.77246C1.53184 13.325 1.33496 13.1281 1.33496 12.8875V11.75C1.33496 10.205 2.59004 8.94995 4.13496 8.94995C4.6709 8.94995 5.2041 9.38745 6.58496 9.38745C7.96309 9.38745 8.49902 8.94995 9.03496 8.94995C10.5799 8.94995 11.835 10.205 11.835 11.75V12.8875ZM6.58496 7.19995C8.51816 7.19995 10.085 5.63315 10.085 3.69995C10.085 1.76675 8.51816 0.199951 6.58496 0.199951C4.65176 0.199951 3.08496 1.76675 3.08496 3.69995C3.08496 5.63315 4.65176 7.19995 6.58496 7.19995ZM6.58496 1.07495C8.03145 1.07495 9.20996 2.25347 9.20996 3.69995C9.20996 5.14644 8.03145 6.32495 6.58496 6.32495C5.13848 6.32495 3.95996 5.14644 3.95996 3.69995C3.95996 2.25347 5.13848 1.07495 6.58496 1.07495Z" fill="#1F2937"/>
</svg>
