<svg width="24" height="20" viewBox="0 0 24 20" fill="none" xmlns="http://www.w3.org/2000/svg">
<path d="M11.7019 5.79141L4.49997 11.723V18.125C4.49997 18.2908 4.56582 18.4497 4.68303 18.5669C4.80024 18.6842 4.95921 18.75 5.12497 18.75L9.50232 18.7387C9.66754 18.7378 9.82571 18.6716 9.94224 18.5545C10.0588 18.4374 10.1242 18.2789 10.1242 18.1137V14.375C10.1242 14.2092 10.19 14.0503 10.3073 13.9331C10.4245 13.8158 10.5834 13.75 10.7492 13.75H13.2492C13.415 13.75 13.5739 13.8158 13.6911 13.9331C13.8083 14.0503 13.8742 14.2092 13.8742 14.375V18.1109C13.8739 18.1932 13.8899 18.2747 13.9212 18.3507C13.9525 18.4268 13.9985 18.4959 14.0566 18.5541C14.1146 18.6124 14.1836 18.6586 14.2596 18.6901C14.3355 18.7217 14.417 18.7379 14.4992 18.7379L18.875 18.75C19.0407 18.75 19.1997 18.6842 19.3169 18.5669C19.4341 18.4497 19.5 18.2908 19.5 18.125V11.7188L12.2996 5.79141C12.2149 5.72317 12.1095 5.68597 12.0008 5.68597C11.892 5.68597 11.7866 5.72317 11.7019 5.79141ZM23.0781 9.82305L19.8125 7.13125V1.7207C19.8125 1.59638 19.7631 1.47715 19.6752 1.38925C19.5873 1.30134 19.468 1.25195 19.3437 1.25195H17.1562C17.0319 1.25195 16.9127 1.30134 16.8248 1.38925C16.7369 1.47715 16.6875 1.59638 16.6875 1.7207V4.55703L13.1902 1.67969C12.8546 1.40351 12.4334 1.25251 11.9988 1.25251C11.5642 1.25251 11.143 1.40351 10.8074 1.67969L0.919506 9.82305C0.872041 9.86228 0.83277 9.91048 0.803939 9.96489C0.775108 10.0193 0.757281 10.0789 0.751476 10.1402C0.745672 10.2015 0.752005 10.2633 0.770112 10.3222C0.788219 10.381 0.817746 10.4358 0.857006 10.4832L1.8531 11.6941C1.89225 11.7417 1.94041 11.7812 1.99482 11.8101C2.04922 11.8391 2.10881 11.8571 2.17017 11.863C2.23152 11.8689 2.29344 11.8627 2.35238 11.8446C2.41132 11.8266 2.46612 11.7971 2.51365 11.7578L11.7019 4.18984C11.7866 4.12161 11.892 4.0844 12.0008 4.0844C12.1095 4.0844 12.2149 4.12161 12.2996 4.18984L21.4883 11.7578C21.5357 11.7971 21.5904 11.8266 21.6493 11.8447C21.7081 11.8628 21.77 11.8691 21.8313 11.8633C21.8926 11.8575 21.9522 11.8397 22.0066 11.8109C22.061 11.782 22.1092 11.7428 22.1484 11.6953L23.1445 10.4844C23.1837 10.4367 23.2131 10.3817 23.231 10.3225C23.2489 10.2634 23.255 10.2014 23.2488 10.1399C23.2426 10.0785 23.2244 10.0188 23.1951 9.96444C23.1658 9.91007 23.126 9.86201 23.0781 9.82305Z" fill="#181818"/>
</svg>
