<svg width="160" height="24" viewBox="0 0 160 24" fill="none" xmlns="http://www.w3.org/2000/svg">
<g clip-path="url(#clip0_277_500)">
<g clip-path="url(#clip1_277_500)">
<g clip-path="url(#clip2_277_500)">
<path d="M51.8184 4.54209V2.58539H56.3766V1.94489C56.3766 1.43503 56.0877 1.00185 55.5095 0.646484H59.7118V2.58539H64.2932V4.54209H62.0466C62.2694 4.81472 62.436 5.11121 62.5472 5.43174C62.6585 5.75133 62.714 6.08398 62.714 6.4278C62.714 7.43578 62.2581 8.30441 61.3468 9.03446C60.4347 9.76299 59.3345 10.1278 58.0444 10.1278C56.7547 10.1278 55.654 9.76299 54.7429 9.03446C53.8307 8.3046 53.3746 7.43578 53.3746 6.4278C53.3746 6.08398 53.4301 5.75133 53.5414 5.43174C53.6524 5.11121 53.8114 4.81472 54.0201 4.54209H51.8184ZM59.6236 11.3554V14.6995C59.6236 14.7824 59.6531 14.8483 59.7118 14.8949C59.7713 14.9426 59.8457 14.9659 59.9345 14.9659H69.0512V16.9237H58.1112C57.5326 16.9237 57.1027 16.8081 56.8213 16.5763C56.5398 16.3457 56.3993 15.9809 56.3993 15.4822V12.9746C56.3993 12.3329 55.976 11.7943 55.1316 11.3554H59.6236ZM56.5991 6.4278C56.5991 6.89013 56.7441 7.30514 57.0324 7.67281C57.3219 8.04011 57.6667 8.22433 58.0671 8.22433C58.4676 8.22433 58.8112 8.04333 59.1005 7.68171C59.3898 7.3201 59.5338 6.9138 59.5338 6.46339C59.5338 6.00067 59.393 5.58604 59.1116 5.21742C58.8307 4.85032 58.4889 4.66667 58.0885 4.66667C57.6892 4.66667 57.3399 4.84729 57.0436 5.20871C56.7475 5.57128 56.5991 5.97663 56.5991 6.4278ZM68.852 7.04993V12.4759H65.672V2.5674C65.672 1.84417 65.25 1.23321 64.4047 0.73509H68.852V5.00462H71.6088V7.04993H68.852Z" fill="black"/>
<path d="M88.5754 6.50773H91.0887V8.46463H83.5283V10.7771H88.6644C88.7236 10.7771 88.7723 10.7926 88.8096 10.8219C88.8457 10.8513 88.865 10.896 88.865 10.9547V16.8789H85.5957V12.8767C85.5957 12.8175 85.577 12.7732 85.5406 12.7429C85.5031 12.7131 85.4477 12.6988 85.3738 12.6988H74.7215V10.7771H80.0588V8.46463H72.4761V6.50773H85.3954C85.6181 6.18777 85.7587 5.82597 85.8186 5.42289C85.878 5.01924 85.9075 4.49764 85.9075 3.85752V3.34123C85.9075 3.21059 85.8809 3.12236 85.8295 3.07447C85.7771 3.02694 85.6624 3.00347 85.4853 3.00347H74.4549V1.04639H88.9319C89.0057 1.04639 89.0612 1.06153 89.0983 1.09069C89.1346 1.12079 89.1545 1.17115 89.1545 1.24177V4.05272C89.1545 4.74074 89.1061 5.25666 89.0093 5.60029C88.9129 5.94486 88.7687 6.24684 88.5754 6.50773Z" fill="black"/>
<path d="M121.419 4.38659V2.43008H125.977V1.87876C125.977 1.36833 125.689 0.934958 125.11 0.57959H129.313V2.43008H133.893V4.38659H131.67C131.863 4.64749 132.004 4.92031 132.092 5.20487C132.181 5.48943 132.226 5.78572 132.226 6.09433C132.226 7.09057 131.774 7.94444 130.869 8.65593C129.965 9.3678 128.891 9.72374 127.645 9.72374C126.385 9.72374 125.307 9.3678 124.409 8.65593C123.513 7.94463 123.064 7.09057 123.064 6.09433C123.064 5.78591 123.113 5.48961 123.209 5.20487C123.306 4.92031 123.435 4.64749 123.598 4.38659H121.419ZM138.23 11.0044C138.289 11.0044 138.341 11.0187 138.385 11.0487C138.43 11.0789 138.452 11.1227 138.452 11.1823V17.2122H135.161V13.1031C135.161 13.044 135.142 12.9999 135.106 12.97C135.068 12.9406 135.013 12.9253 134.939 12.9253H124.599V11.0044H138.23ZM126.29 6.09433C126.29 6.53319 126.418 6.92169 126.678 7.25945C126.937 7.59759 127.267 7.76647 127.668 7.76647C128.052 7.76647 128.38 7.60346 128.646 7.27744C128.913 6.95085 129.047 6.56897 129.047 6.12992C129.047 5.67932 128.916 5.2876 128.657 4.95571C128.397 4.62363 128.075 4.45797 127.689 4.45797C127.319 4.45797 126.992 4.62041 126.711 4.94662C126.43 5.27359 126.29 5.65547 126.29 6.09433ZM138.452 4.04826H141.21V6.09433H138.452V10.2923H135.273V2.67904C135.273 1.95525 134.85 1.34485 134.005 0.846542H138.452V4.04826Z" fill="black"/>
<path d="M156.285 2.34544C156.285 1.62164 155.864 1.01106 155.019 0.512939H159.422V16.8788H156.286V13.0002C155.93 13.0958 155.5 13.1579 154.996 13.1873C154.492 13.2178 153.869 13.2327 153.128 13.2327H142.522V11.3287H147.97V9.7279C147.125 9.50279 146.427 9.09895 145.879 8.5181C145.331 7.93705 145.056 7.26683 145.056 6.50762C145.056 6.1994 145.101 5.90897 145.19 5.63634C145.279 5.36371 145.413 5.1083 145.589 4.87107H143.41V3.00374H147.747V2.06069C147.747 1.47927 147.435 0.993075 146.813 0.601545H150.926V3.00374H155.24V4.87126H153.061C153.225 5.1083 153.354 5.36673 153.45 5.64542C153.547 5.92412 153.594 6.21189 153.594 6.50781C153.594 7.20776 153.351 7.8367 152.861 8.39352C152.372 8.9509 151.75 9.35985 150.993 9.62112V11.3287H153.951C154.47 11.3287 154.918 11.3082 155.297 11.2664C155.674 11.2247 156.004 11.163 156.285 11.0795V2.34544ZM149.326 5.08445C148.97 5.08445 148.673 5.22985 148.436 5.52066C148.199 5.81165 148.081 6.14014 148.081 6.50781C148.081 6.87549 148.199 7.20492 148.436 7.49516C148.673 7.78596 148.97 7.93118 149.326 7.93118C149.696 7.93118 149.996 7.78596 150.226 7.49516C150.456 7.20492 150.571 6.87549 150.571 6.50781C150.571 6.14033 150.456 5.81165 150.226 5.52066C149.996 5.22985 149.696 5.08445 149.326 5.08445Z" fill="black"/>
<path d="M37.6052 6.97092L36.9515 7.56693C36.7729 7.48135 36.5768 7.37514 36.3687 7.25586C36.1584 7.13337 35.9442 6.97452 35.7235 6.77819C35.5559 6.62654 35.4136 6.47867 35.2977 6.33762C35.1813 6.19828 35.0766 6.05193 34.9832 5.90501C34.8903 6.08222 34.7748 6.24864 34.6349 6.40275C34.4951 6.55705 34.3249 6.72953 34.1218 6.92075C33.9533 7.07998 33.7787 7.2144 33.6006 7.32989C33.4201 7.44557 33.2228 7.56182 33.0074 7.68147L32.2402 7.14321C32.5842 6.96714 32.8946 6.77459 33.1681 6.5633C33.4444 6.35447 33.6782 6.11725 33.8709 5.85427C34.0888 5.54775 34.2399 5.22911 34.3223 4.89741C34.4033 4.56514 34.4438 4.22037 34.4438 3.86235V2.82389H35.4974V3.86273C35.4974 4.13385 35.5412 4.4735 35.6271 4.87677C35.7142 5.28117 35.8918 5.63048 36.1586 5.92602C36.3969 6.18427 36.6387 6.39537 36.8812 6.5597C37.1243 6.72461 37.3667 6.86149 37.6052 6.97092ZM40.3115 5.70489H39.2065V8.77768H38.1965V2.47363H39.2065V4.93698H40.3115V5.70489Z" fill="black"/>
<path d="M46.0314 5.7473C45.7787 5.77589 45.3885 5.81034 44.854 5.85105C44.3199 5.89138 43.7703 5.91429 43.1997 5.9194L41.3806 5.92602V2.86743H45.3154V3.60449H42.3909V5.18784L43.6444 5.1814C43.9803 5.1761 44.3958 5.15773 44.889 5.12668C45.3836 5.09677 45.7632 5.06061 46.0314 5.02482V5.7473ZM47.8579 8.63379H42.2093V6.49211H43.2345V7.91245H47.8579V8.63379ZM48.6762 5.02899H47.6051V7.03586H46.5956V2.47363H47.6051V4.27016H48.6762V5.02899Z" fill="black"/>
<path d="M36.6687 11.6463H38.3156V10.3958H39.3259V13.8042H38.3156V12.3918H36.6687V13.6342H32.8291V10.625H33.8388V11.4694H35.6601V10.625H36.6687V11.6463ZM39.2982 16.625H33.7538V14.0892H34.7619V14.6855H38.2884V14.0892H39.2982V16.625ZM35.6601 12.9159V12.1849H33.8388V12.9159H35.6601ZM38.2884 15.9307V15.3796H34.7619V15.9307H38.2884Z" fill="black"/>
<path d="M43.1237 10.5882C43.747 10.5882 44.2574 10.7473 44.6614 11.0636C45.0645 11.3829 45.2667 11.7625 45.2667 12.2051C45.2667 12.6512 45.0645 13.0304 44.6614 13.345C44.2576 13.6593 43.747 13.8176 43.1237 13.8176C42.5046 13.8176 41.9917 13.6593 41.5926 13.345C41.193 13.0304 40.9917 12.6512 40.9917 12.2051C40.9917 11.7625 41.193 11.3827 41.5926 11.0636C41.9919 10.7473 42.5046 10.5882 43.1237 10.5882ZM43.1237 11.3105C42.7697 11.3105 42.4995 11.4008 42.31 11.5746C42.1208 11.7543 42.0283 11.9645 42.0283 12.2053C42.0283 12.4455 42.1208 12.6531 42.31 12.8293C42.4995 13.0061 42.7699 13.0938 43.1237 13.0938C43.4844 13.0938 43.758 13.006 43.948 12.8293C44.1359 12.6531 44.2298 12.4454 44.2298 12.2053C44.2298 11.9645 44.1359 11.7543 43.948 11.5746C43.758 11.4006 43.4844 11.3105 43.1237 11.3105ZM47.9048 16.554H42.1146V14.5346H43.1676V15.8292H47.9048V16.554ZM47.7301 14.9507H46.72V10.3955H47.7301V14.9507Z" fill="black"/>
<path d="M97.5612 11.3667V16.8544H93.7273V0.979248H96.1318H97.5612H99.2386C101.265 0.979248 102.8 1.44064 103.842 2.3621C104.885 3.28469 105.407 4.55508 105.407 6.1727C105.407 7.77536 104.885 9.04139 103.842 9.97194C102.8 10.9013 101.265 11.3667 99.2386 11.3667H97.5612ZM97.5612 8.19093H99.2386C100.009 8.19093 100.615 8.01732 101.053 7.66933C101.491 7.32192 101.71 6.82304 101.71 6.1727C101.71 5.5074 101.491 5.00492 101.053 4.66451C100.615 4.32429 100.009 4.15465 99.2386 4.15465H97.5612V8.19093Z" fill="black"/>
<path d="M111.555 11.3667V16.8544H107.722V0.979248H110.126H111.555H113.527C115.554 0.979248 117.088 1.45919 118.132 2.41909C119.174 3.37898 119.697 4.63043 119.697 6.17251C119.697 7.27648 119.428 8.23637 118.891 9.05256C118.354 9.86913 117.565 10.474 116.521 10.8669L120.649 16.854H116.136L112.733 11.3663H111.555V11.3667ZM111.555 8.3725H113.233C114.004 8.3725 114.609 8.19112 115.047 7.82818C115.486 7.46524 115.706 6.95898 115.706 6.30863C115.706 5.64391 115.486 5.13329 115.047 4.77792C114.609 4.42255 114.004 4.24496 113.233 4.24496H111.555V8.3725Z" fill="black"/>
<path d="M54.8532 20.0999H55.4897L54.1722 21.5588L55.552 23.2151H54.907L53.6964 21.7591V23.2151H53.1572V20.0999H53.6964V21.3988L54.8532 20.0999Z" fill="black"/>
<path d="M55.6211 21.6571C55.6211 21.4259 55.6609 21.2114 55.7411 21.0149C55.8208 20.8165 55.9342 20.6464 56.0815 20.502C56.2281 20.3594 56.4002 20.2462 56.5954 20.1663C56.7921 20.0862 57.0055 20.0459 57.2362 20.0459C57.4686 20.0459 57.6821 20.0862 57.8805 20.1663C58.0774 20.2464 58.2492 20.3596 58.3966 20.502C58.5432 20.6464 58.6568 20.8165 58.737 21.0149C58.8171 21.2112 58.8577 21.4259 58.8577 21.6571C58.8577 21.8894 58.8171 22.1041 58.737 22.3015C58.6566 22.4979 58.5437 22.6698 58.3985 22.8169C58.2527 22.964 58.0818 23.0785 57.8847 23.1598C57.6874 23.2425 57.4712 23.2823 57.2362 23.2823C57.0019 23.2823 56.7866 23.2423 56.5912 23.1598C56.3956 23.0785 56.2245 22.9642 56.0795 22.8169C55.9337 22.67 55.8208 22.4979 55.7411 22.3015C55.6609 22.1041 55.6211 21.8892 55.6211 21.6571ZM56.1768 21.6571C56.1768 21.871 56.2218 22.0622 56.3133 22.2298C56.4038 22.3972 56.5287 22.5284 56.6893 22.6234C56.8493 22.7183 57.0318 22.7658 57.2362 22.7658C57.4441 22.7658 57.6276 22.7183 57.7866 22.6234C57.9451 22.5284 58.0695 22.3972 58.1607 22.2298C58.2514 22.062 58.2965 21.8708 58.2965 21.6571C58.2965 21.4435 58.2514 21.2532 58.1607 21.0853C58.0695 20.9179 57.9451 20.786 57.7866 20.6911C57.6276 20.597 57.4441 20.5491 57.2362 20.5491C57.0316 20.5491 56.8493 20.597 56.6893 20.6911C56.5285 20.786 56.4038 20.9179 56.3133 21.0853C56.222 21.2532 56.1768 21.4435 56.1768 21.6571Z" fill="black"/>
<path d="M59.7797 22.0361V23.2152H59.2542V20.0999H59.5663H59.7797H60.2157C60.4409 20.0999 60.6379 20.139 60.8055 20.2199C60.9734 20.2992 61.1039 20.4124 61.1976 20.5575C61.2902 20.7031 61.3373 20.8733 61.3373 21.0703C61.3373 21.2949 61.2756 21.4865 61.1531 21.6436C61.0299 21.8008 60.8596 21.9125 60.6432 21.9774L61.524 23.2151H60.8884L60.0997 22.0359L59.7797 22.0361ZM59.7797 21.6044H60.1934C60.3753 21.6044 60.52 21.5577 60.6294 21.4657C60.74 21.3736 60.7945 21.2445 60.7945 21.0787C60.7945 20.9128 60.74 20.7837 60.6294 20.6909C60.52 20.5993 60.3753 20.5529 60.1934 20.5529H59.7797V21.6044Z" fill="black"/>
<path d="M62.3059 21.7728V22.7525H63.6863V23.2151H62.3059H62.1147H61.7898V20.0999H62.1147H62.3059H63.6863V20.5614H62.3059V21.3197H63.5965V21.7729L62.3059 21.7728Z" fill="black"/>
<path d="M64.8318 22.4136L64.4761 23.2151H63.8792L65.4061 19.9253L66.9334 23.2151H66.3366L65.9803 22.4136H64.8318ZM64.9831 21.9693H65.8294L65.4061 20.98L64.9831 21.9693Z" fill="black"/>
<path d="M69.4504 20.1H69.9661V23.3712L67.6912 21.1549V23.2152H67.175V19.9436L69.4506 22.1654V20.1H69.4504Z" fill="black"/>
<path d="M72.3786 22.4136L72.0233 23.2151H71.4265L72.9534 19.9253L74.4806 23.2151H73.8832L73.5279 22.4136H72.3786ZM72.5305 21.9693H73.3768L72.9536 20.98L72.5305 21.9693Z" fill="black"/>
<path d="M75.0025 21.6569C75.0025 21.8773 75.0514 22.0696 75.1495 22.2362C75.2473 22.4023 75.3763 22.5306 75.5385 22.6209C75.7008 22.7116 75.8767 22.7573 76.0666 22.7573C76.2854 22.7573 76.4759 22.7152 76.638 22.6325C76.7996 22.549 76.9343 22.4441 77.0408 22.3165V22.9396C76.9131 23.0458 76.7733 23.128 76.6205 23.1844C76.4676 23.2402 76.2773 23.2683 76.0484 23.2683C75.8197 23.2683 75.6076 23.2294 75.4117 23.1513C75.2163 23.0727 75.0442 22.9612 74.8971 22.8192C74.7506 22.6764 74.6366 22.5064 74.5552 22.3099C74.4732 22.1118 74.4329 21.8953 74.4329 21.6571C74.4329 21.42 74.4732 21.2034 74.5552 21.0048C74.6366 20.8083 74.7504 20.6389 74.8971 20.4961C75.044 20.3539 75.2163 20.2422 75.4117 20.1644C75.6076 20.0843 75.8197 20.0459 76.0484 20.0459C76.2773 20.0459 76.4678 20.0741 76.6205 20.1305C76.7733 20.1866 76.9131 20.2685 77.0408 20.3746V20.999C76.9343 20.8712 76.7998 20.7663 76.638 20.6828C76.4761 20.5995 76.2856 20.5577 76.0666 20.5577C75.8767 20.5577 75.7008 20.6027 75.5385 20.6945C75.3765 20.7848 75.2473 20.9123 75.1495 21.0766C75.0514 21.2413 75.0025 21.4348 75.0025 21.6569Z" fill="black"/>
<path d="M78.1865 22.4136L77.8308 23.2151H77.2336L78.7611 19.9253L80.2877 23.2151H79.6911L79.335 22.4136H78.1865ZM78.3378 21.9693H79.1843L78.7613 20.98L78.3378 21.9693Z" fill="black"/>
<path d="M80.8553 23.2151H80.53V20.0999H80.8553H81.0643H81.5361C81.8538 20.0999 82.1327 20.1642 82.3729 20.2926C82.6136 20.4219 82.8016 20.6027 82.9368 20.8361C83.0712 21.0692 83.1395 21.343 83.1395 21.6569C83.1395 21.971 83.0712 22.2463 82.9368 22.4789C82.8016 22.7116 82.6136 22.8922 82.3729 23.0217C82.1327 23.1512 81.8538 23.2151 81.5361 23.2151H81.0643H80.8553ZM81.0643 22.7211H81.5234C81.7275 22.7211 81.911 22.6811 82.0727 22.6009C82.2345 22.5217 82.3622 22.4021 82.4555 22.2446C82.549 22.0874 82.5962 21.8917 82.5962 21.6569C82.5962 21.4229 82.549 21.2275 82.4555 21.0703C82.3622 20.9128 82.2345 20.7932 82.0727 20.7138C81.911 20.633 81.7275 20.5929 81.5234 20.5929H81.0643V22.7211Z" fill="black"/>
<path d="M84.0528 21.7728V22.7525H85.4336V23.2151H84.0528H83.8621H83.5369V20.0999H83.8621H84.0528H85.4336V20.5614H84.0528V21.3197H85.3438V21.7729L84.0528 21.7728Z" fill="black"/>
<path d="M86.5445 21.3199L86.3298 23.2154H85.7876L86.2147 19.9438L87.4931 22.0573L88.7746 19.9438L89.2027 23.2154H88.6542L88.4405 21.3239L87.4933 22.9271L86.5445 21.3199Z" fill="black"/>
<path d="M89.5991 20.0999H90.1334V23.2151H89.5991V20.0999Z" fill="black"/>
<path d="M91.1028 21.6569C91.1028 21.8773 91.1513 22.0696 91.2494 22.2362C91.3474 22.4023 91.4768 22.5306 91.6386 22.6209C91.8011 22.7116 91.977 22.7573 92.1667 22.7573C92.3853 22.7573 92.5764 22.7152 92.7386 22.6325C92.9003 22.549 93.0345 22.4441 93.1409 22.3165V22.9396C93.013 23.0458 92.8734 23.128 92.7204 23.1844C92.5682 23.2402 92.3772 23.2683 92.1483 23.2683C91.9196 23.2683 91.7083 23.2294 91.5118 23.1513C91.3164 23.0727 91.1437 22.9612 90.9974 22.8192C90.8508 22.6764 90.7367 22.5064 90.6555 22.3099C90.5733 22.1118 90.533 21.8953 90.533 21.6571C90.533 21.42 90.5735 21.2034 90.6555 21.0048C90.7367 20.8083 90.8507 20.6389 90.9974 20.4961C91.1435 20.3539 91.3164 20.2422 91.5118 20.1644C91.7083 20.0843 91.9196 20.0459 92.1483 20.0459C92.3772 20.0459 92.5684 20.0741 92.7204 20.1305C92.8734 20.1866 93.013 20.2685 93.1409 20.3746V20.999C93.0345 20.8712 92.9003 20.7663 92.7386 20.6828C92.5766 20.5995 92.3855 20.5577 92.1667 20.5577C91.977 20.5577 91.8011 20.6027 91.6386 20.6945C91.4769 20.7848 91.3474 20.9123 91.2494 21.0766C91.1511 21.2413 91.1028 21.4348 91.1028 21.6569Z" fill="black"/>
<path d="M95.1175 22.1654C95.2154 22.3666 95.3271 22.5238 95.4515 22.637C95.5766 22.75 95.729 22.8066 95.9099 22.8066C96.0664 22.8066 96.1853 22.7693 96.2641 22.694C96.3425 22.6203 96.3819 22.5164 96.3819 22.3831C96.3819 22.2668 96.3483 22.172 96.2817 22.0983C96.2147 22.0234 96.1285 21.962 96.0235 21.9136C95.9184 21.8647 95.8063 21.8174 95.6874 21.7727C95.6103 21.7434 95.525 21.7051 95.4318 21.6601C95.3381 21.6133 95.2497 21.5548 95.1666 21.4834C95.0836 21.4117 95.0147 21.3253 94.9617 21.2229C94.9087 21.121 94.8811 20.9991 94.8811 20.86C94.8811 20.6943 94.9246 20.5498 95.0107 20.4289C95.0975 20.3069 95.2131 20.2125 95.3602 20.1452C95.507 20.0782 95.6751 20.0457 95.8618 20.0457C96.0519 20.0457 96.216 20.0803 96.3555 20.1481C96.4941 20.2153 96.6096 20.3018 96.6975 20.4042C96.787 20.5057 96.8525 20.611 96.8944 20.7178L96.4841 20.9718C96.4184 20.8463 96.3396 20.7412 96.2459 20.6511C96.1531 20.5614 96.0303 20.5178 95.8786 20.5178C95.7423 20.5178 95.6336 20.5515 95.5524 20.6184C95.4699 20.6843 95.4295 20.7746 95.4295 20.8878C95.4295 20.9762 95.4629 21.0519 95.5297 21.114C95.5967 21.1765 95.6844 21.231 95.7938 21.2787C95.9044 21.3261 96.0212 21.3736 96.1454 21.4221C96.2703 21.4656 96.393 21.5262 96.5132 21.6015C96.6335 21.6771 96.7332 21.7769 96.8139 21.9005C96.8944 22.0228 96.9337 22.1765 96.9337 22.3606C96.9337 22.6455 96.8431 22.8697 96.6615 23.0346C96.4818 23.2002 96.2241 23.2822 95.8926 23.2822C95.6251 23.2822 95.3864 23.2033 95.1779 23.0457C94.9678 22.8886 94.8154 22.6824 94.7173 22.4272L95.1175 22.1654Z" fill="black"/>
<path d="M97.1814 21.6571C97.1814 21.4259 97.2213 21.2114 97.3014 21.0149C97.3808 20.8165 97.4949 20.6464 97.6418 20.502C97.788 20.3594 97.9603 20.2462 98.1561 20.1663C98.352 20.0862 98.566 20.0459 98.7964 20.0459C99.0283 20.0459 99.2424 20.0862 99.4403 20.1663C99.6379 20.2464 99.8093 20.3596 99.9564 20.502C100.103 20.6464 100.217 20.8165 100.297 21.0149C100.378 21.2112 100.417 21.4259 100.417 21.6571C100.417 21.8894 100.378 22.1041 100.297 22.3015C100.217 22.4979 100.104 22.6698 99.9594 22.8169C99.8134 22.964 99.6417 23.0785 99.445 23.1598C99.2481 23.2425 99.0317 23.2823 98.7964 23.2823C98.5629 23.2823 98.3465 23.2423 98.1515 23.1598C97.9561 23.0785 97.7846 22.9642 97.6403 22.8169C97.4944 22.67 97.3809 22.4979 97.3016 22.3015C97.2213 22.1041 97.1814 21.8892 97.1814 21.6571ZM97.7373 21.6571C97.7373 21.871 97.7821 22.0622 97.8738 22.2298C97.9637 22.3972 98.0894 22.5284 98.2494 22.6234C98.4094 22.7183 98.5917 22.7658 98.7964 22.7658C99.0044 22.7658 99.1881 22.7183 99.3471 22.6234C99.5052 22.5284 99.6294 22.3972 99.7205 22.2298C99.8112 22.062 99.8566 21.8708 99.8566 21.6571C99.8566 21.4435 99.8114 21.2532 99.7205 21.0853C99.6296 20.9179 99.5052 20.786 99.3471 20.6911C99.1881 20.597 99.0042 20.5491 98.7964 20.5491C98.5917 20.5491 98.4094 20.597 98.2494 20.6911C98.0892 20.786 97.9635 20.9179 97.8738 21.0853C97.7821 21.2532 97.7373 21.4435 97.7373 21.6571Z" fill="black"/>
<path d="M101.206 21.6569C101.206 21.8773 101.255 22.0696 101.353 22.2362C101.452 22.4023 101.581 22.5306 101.742 22.6209C101.904 22.7116 102.08 22.7573 102.271 22.7573C102.49 22.7573 102.68 22.7152 102.842 22.6325C103.004 22.549 103.138 22.4441 103.245 22.3165V22.9396C103.117 23.0458 102.977 23.128 102.825 23.1844C102.672 23.2402 102.48 23.2683 102.251 23.2683C102.024 23.2683 101.812 23.2294 101.616 23.1513C101.42 23.0727 101.248 22.9612 101.101 22.8192C100.955 22.6764 100.841 22.5064 100.758 22.3099C100.677 22.1118 100.636 21.8953 100.636 21.6571C100.636 21.42 100.677 21.2034 100.758 21.0048C100.841 20.8083 100.955 20.6389 101.101 20.4961C101.248 20.3539 101.42 20.2422 101.616 20.1644C101.812 20.0843 102.024 20.0459 102.251 20.0459C102.48 20.0459 102.672 20.0741 102.825 20.1305C102.977 20.1866 103.117 20.2685 103.245 20.3746V20.999C103.138 20.8712 103.004 20.7663 102.842 20.6828C102.68 20.5995 102.49 20.5577 102.271 20.5577C102.08 20.5577 101.904 20.6027 101.742 20.6945C101.581 20.7848 101.452 20.9123 101.353 21.0766C101.255 21.2413 101.206 21.4348 101.206 21.6569Z" fill="black"/>
<path d="M103.777 20.0999H104.311V23.2151H103.777V20.0999Z" fill="black"/>
<path d="M105.405 21.7728V22.7525H106.784V23.2151H105.405H105.213H104.888V20.0999H105.213H105.405H106.784V20.5614H105.405V21.3197H106.696V21.7729L105.405 21.7728Z" fill="black"/>
<path d="M107.004 20.5847V20.0999H109.176V20.5847H108.354V23.2152H107.823V20.5847H107.004Z" fill="black"/>
<path d="M111.23 20.0999H111.832L110.771 21.9024V23.2152H110.237V21.9024L109.177 20.0999H109.783L110.504 21.4348L111.23 20.0999Z" fill="black"/>
<path d="M113.739 21.8091V23.2151H113.223V20.0999H113.547H113.739H114.941V20.5715H113.739V21.3504H114.897V21.8091H113.739Z" fill="black"/>
<path d="M115.25 21.6571C115.25 21.4259 115.29 21.2114 115.371 21.0149C115.45 20.8165 115.564 20.6464 115.711 20.502C115.857 20.3594 116.029 20.2462 116.225 20.1663C116.421 20.0862 116.635 20.0459 116.865 20.0459C117.097 20.0459 117.311 20.0862 117.509 20.1663C117.707 20.2464 117.878 20.3596 118.026 20.502C118.172 20.6464 118.286 20.8165 118.366 21.0149C118.447 21.2112 118.486 21.4259 118.486 21.6571C118.486 21.8894 118.447 22.1041 118.366 22.3015C118.286 22.4979 118.173 22.6698 118.029 22.8169C117.882 22.964 117.711 23.0785 117.514 23.1598C117.316 23.2425 117.1 23.2823 116.865 23.2823C116.631 23.2823 116.416 23.2423 116.221 23.1598C116.025 23.0785 115.854 22.9642 115.709 22.8169C115.562 22.67 115.45 22.4979 115.371 22.3015C115.29 22.1041 115.25 21.8892 115.25 21.6571ZM115.806 21.6571C115.806 21.871 115.851 22.0622 115.943 22.2298C116.033 22.3972 116.158 22.5284 116.318 22.6234C116.478 22.7183 116.661 22.7658 116.865 22.7658C117.073 22.7658 117.256 22.7183 117.415 22.6234C117.574 22.5284 117.699 22.3972 117.789 22.2298C117.88 22.062 117.926 21.8708 117.926 21.6571C117.926 21.4435 117.88 21.2532 117.789 21.0853C117.699 20.9179 117.574 20.786 117.415 20.6911C117.256 20.597 117.073 20.5491 116.865 20.5491C116.661 20.5491 116.478 20.597 116.318 20.6911C116.158 20.786 116.033 20.9179 115.943 21.0853C115.851 21.2532 115.806 21.4435 115.806 21.6571Z" fill="black"/>
<path d="M119.409 22.0361V23.2152H118.883V20.0999H119.195H119.409H119.845C120.07 20.0999 120.267 20.139 120.435 20.2199C120.602 20.2992 120.732 20.4124 120.827 20.5575C120.919 20.7031 120.967 20.8733 120.967 21.0703C120.967 21.2949 120.904 21.4865 120.782 21.6436C120.659 21.8008 120.489 21.9125 120.272 21.9774L121.152 23.2151H120.517L119.728 22.0359L119.409 22.0361ZM119.409 21.6044H119.822C120.004 21.6044 120.149 21.5577 120.259 21.4657C120.368 21.3736 120.423 21.2445 120.423 21.0787C120.423 20.9128 120.368 20.7837 120.259 20.6909C120.149 20.5993 120.004 20.5529 119.822 20.5529H119.409V21.6044Z" fill="black"/>
<path d="M123.166 22.0361V23.2152H122.642V20.0999H122.953H123.167H123.581C123.807 20.0999 124.003 20.1387 124.171 20.2169C124.338 20.2954 124.469 20.4079 124.561 20.5529C124.653 20.6991 124.699 20.871 124.699 21.0702C124.699 21.2693 124.653 21.4397 124.561 21.5838C124.469 21.7271 124.338 21.8396 124.171 21.917C124.003 21.996 123.807 22.0359 123.581 22.0359L123.166 22.0361ZM123.166 21.573H123.58C123.762 21.573 123.907 21.53 124.017 21.446C124.127 21.3613 124.182 21.2358 124.182 21.0703C124.182 20.903 124.127 20.7775 124.017 20.6909C123.907 20.6052 123.762 20.5612 123.58 20.5612H123.166V21.573Z" fill="black"/>
<path d="M125.074 20.0999H125.604V22.1694C125.604 22.3589 125.656 22.5138 125.759 22.6323C125.863 22.7508 126.014 22.8108 126.214 22.8108C126.415 22.8108 126.567 22.7508 126.669 22.6323C126.772 22.5138 126.823 22.3589 126.823 22.1694V20.0999H127.353V22.1915C127.353 22.4195 127.305 22.6175 127.208 22.7813C127.111 22.9462 126.978 23.0727 126.806 23.1619C126.633 23.2512 126.436 23.2951 126.213 23.2951C125.991 23.2951 125.794 23.2512 125.623 23.1619C125.453 23.0727 125.319 22.9462 125.221 22.7813C125.122 22.6175 125.073 22.4195 125.073 22.1915V20.0999H125.074Z" fill="black"/>
<path d="M129.358 21.5281C129.552 21.5793 129.71 21.6677 129.835 21.7949C129.959 21.9227 130.021 22.0965 130.021 22.3163C130.021 22.5217 129.974 22.6902 129.879 22.8243C129.784 22.9576 129.653 23.0558 129.483 23.1196C129.314 23.1836 129.119 23.2152 128.9 23.2152H127.907V20.0999H128.847C129.14 20.0999 129.38 20.1642 129.566 20.2926C129.751 20.4219 129.843 20.6184 129.843 20.8835C129.843 21.037 129.8 21.169 129.712 21.2788C129.625 21.3888 129.507 21.4723 129.358 21.5281ZM128.433 21.3506H128.811C128.957 21.3506 129.075 21.3142 129.167 21.2415C129.259 21.1682 129.305 21.0679 129.305 20.9403C129.305 20.81 129.259 20.7091 129.167 20.6398C129.075 20.57 128.957 20.5361 128.811 20.5361H128.433V21.3506ZM128.433 21.7591V22.779H128.869C129.047 22.779 129.193 22.7357 129.31 22.6501C129.425 22.564 129.483 22.4345 129.483 22.2624C129.483 22.0937 129.425 21.9672 129.31 21.8845C129.193 21.801 129.047 21.7591 128.869 21.7591H128.433Z" fill="black"/>
<path d="M130.464 20.0999H130.989V22.744H132.227V23.2151H130.464L130.464 20.0999Z" fill="black"/>
<path d="M132.492 20.0999H133.025V23.2151H132.492V20.0999Z" fill="black"/>
<path d="M133.995 21.6569C133.995 21.8773 134.044 22.0696 134.142 22.2362C134.241 22.4023 134.37 22.5306 134.532 22.6209C134.694 22.7116 134.869 22.7573 135.059 22.7573C135.279 22.7573 135.47 22.7152 135.632 22.6325C135.793 22.549 135.927 22.4441 136.034 22.3165V22.9396C135.906 23.0458 135.767 23.128 135.614 23.1844C135.461 23.2402 135.269 23.2683 135.041 23.2683C134.813 23.2683 134.601 23.2294 134.405 23.1513C134.209 23.0727 134.037 22.9612 133.89 22.8192C133.744 22.6764 133.63 22.5064 133.549 22.3099C133.466 22.1118 133.426 21.8953 133.426 21.6571C133.426 21.42 133.466 21.2034 133.549 21.0048C133.63 20.8083 133.744 20.6389 133.89 20.4961C134.037 20.3539 134.209 20.2422 134.405 20.1644C134.601 20.0843 134.813 20.0459 135.041 20.0459C135.269 20.0459 135.461 20.0741 135.614 20.1305C135.767 20.1866 135.906 20.2685 136.034 20.3746V20.999C135.927 20.8712 135.793 20.7663 135.632 20.6828C135.47 20.5995 135.279 20.5577 135.059 20.5577C134.869 20.5577 134.694 20.6027 134.532 20.6945C134.37 20.7848 134.241 20.9123 134.142 21.0766C134.044 21.2413 133.995 21.4348 133.995 21.6569Z" fill="black"/>
<path d="M138.313 22.0361V23.2152H137.789V20.0999H138.099H138.314H138.751C138.976 20.0999 139.173 20.139 139.34 20.2199C139.507 20.2992 139.638 20.4124 139.732 20.5575C139.825 20.7031 139.871 20.8733 139.871 21.0703C139.871 21.2949 139.81 21.4865 139.687 21.6436C139.564 21.8008 139.394 21.9125 139.178 21.9774L140.059 23.2151H139.422L138.635 22.0359L138.313 22.0361ZM138.313 21.6044H138.728C138.91 21.6044 139.055 21.5577 139.164 21.4657C139.274 21.3736 139.329 21.2445 139.329 21.0787C139.329 20.9128 139.274 20.7837 139.164 20.6909C139.055 20.5993 138.91 20.5529 138.728 20.5529H138.313V21.6044Z" fill="black"/>
<path d="M140.84 21.7728V22.7525H142.22V23.2151H140.84H140.648H140.323V20.0999H140.648H140.84H142.22V20.5614H140.84V21.3197H142.13V21.7729L140.84 21.7728Z" fill="black"/>
<path d="M142.752 20.0999H143.276V22.744H144.515V23.2151H142.752V20.0999Z" fill="black"/>
<path d="M145.616 22.4136L145.26 23.2151H144.663L146.19 19.9253L147.717 23.2151H147.12L146.764 22.4136H145.616ZM145.767 21.9693H146.613L146.19 20.98L145.767 21.9693Z" fill="black"/>
<path d="M147.647 20.5847V20.0999H149.82V20.5847H148.997V23.2152H148.467V20.5847H147.647Z" fill="black"/>
<path d="M150.086 20.0999H150.62V23.2151H150.086V20.0999Z" fill="black"/>
<path d="M151.02 21.6571C151.02 21.4259 151.059 21.2114 151.14 21.0149C151.219 20.8165 151.333 20.6464 151.48 20.502C151.627 20.3594 151.799 20.2462 151.994 20.1663C152.19 20.0862 152.404 20.0459 152.635 20.0459C152.867 20.0459 153.081 20.0862 153.279 20.1663C153.476 20.2464 153.648 20.3596 153.795 20.502C153.941 20.6464 154.055 20.8165 154.135 21.0149C154.216 21.2112 154.256 21.4259 154.256 21.6571C154.256 21.8894 154.216 22.1041 154.135 22.3015C154.055 22.4979 153.942 22.6698 153.798 22.8169C153.651 22.964 153.48 23.0785 153.284 23.1598C153.086 23.2425 152.869 23.2823 152.635 23.2823C152.4 23.2823 152.185 23.2423 151.99 23.1598C151.795 23.0785 151.623 22.9642 151.478 22.8169C151.332 22.67 151.22 22.4979 151.14 22.3015C151.059 22.1041 151.02 21.8892 151.02 21.6571ZM151.575 21.6571C151.575 21.871 151.621 22.0622 151.712 22.2298C151.802 22.3972 151.927 22.5284 152.088 22.6234C152.247 22.7183 152.43 22.7658 152.635 22.7658C152.843 22.7658 153.026 22.7183 153.185 22.6234C153.344 22.5284 153.468 22.3972 153.559 22.2298C153.65 22.062 153.695 21.8708 153.695 21.6571C153.695 21.4435 153.65 21.2532 153.559 21.0853C153.468 20.9179 153.344 20.786 153.185 20.6911C153.026 20.597 152.842 20.5491 152.635 20.5491C152.43 20.5491 152.247 20.597 152.088 20.6911C151.927 20.786 151.802 20.9179 151.712 21.0853C151.621 21.2532 151.575 21.4435 151.575 21.6571Z" fill="black"/>
<path d="M156.927 20.1H157.444V23.3712L155.168 21.1549V23.2152H154.652V19.9436L156.927 22.1654V20.1Z" fill="black"/>
<path d="M158.242 22.1654C158.34 22.3666 158.451 22.5238 158.576 22.637C158.7 22.75 158.853 22.8066 159.034 22.8066C159.191 22.8066 159.31 22.7693 159.389 22.694C159.467 22.6203 159.506 22.5164 159.506 22.3831C159.506 22.2668 159.473 22.172 159.406 22.0983C159.339 22.0234 159.253 21.962 159.148 21.9136C159.043 21.8647 158.931 21.8174 158.812 21.7727C158.735 21.7434 158.65 21.7051 158.555 21.6601C158.463 21.6133 158.375 21.5548 158.291 21.4834C158.208 21.4117 158.14 21.3253 158.087 21.2229C158.033 21.121 158.006 20.9991 158.006 20.86C158.006 20.6943 158.049 20.5498 158.135 20.4289C158.222 20.3069 158.338 20.2125 158.485 20.1452C158.632 20.0782 158.8 20.0457 158.986 20.0457C159.177 20.0457 159.341 20.0803 159.48 20.1481C159.619 20.2153 159.734 20.3018 159.822 20.4042C159.912 20.5057 159.977 20.611 160.019 20.7178L159.609 20.9718C159.543 20.8463 159.464 20.7412 159.371 20.6511C159.277 20.5614 159.155 20.5178 159.003 20.5178C158.867 20.5178 158.759 20.5515 158.677 20.6184C158.595 20.6843 158.554 20.7746 158.554 20.8878C158.554 20.9762 158.588 21.0519 158.655 21.114C158.721 21.1765 158.809 21.231 158.919 21.2787C159.028 21.3261 159.146 21.3736 159.271 21.4221C159.395 21.4656 159.517 21.5262 159.638 21.6015C159.758 21.6771 159.857 21.7769 159.938 21.9005C160.019 22.0228 160.058 22.1765 160.058 22.3606C160.058 22.6455 159.968 22.8697 159.787 23.0346C159.606 23.2002 159.349 23.2822 159.017 23.2822C158.749 23.2822 158.511 23.2033 158.303 23.0457C158.093 22.8886 157.94 22.6824 157.842 22.4272L158.242 22.1654Z" fill="black"/>
<path d="M12.488 0.915771H21.0733C26.1433 0.915771 28.9715 4.2309 28.9715 8.39157C28.9715 11.4462 27.4756 14.0466 24.6478 15.2161L25.3197 16.3808L29.523 23.6675H24.6478H16.977H12.488V0.915771Z" fill="#0369A1"/>
<path d="M24.636 8.37063C24.636 12.5309 21.8082 15.8462 16.7374 15.8462L12.4847 15.8601V23.6598L8.31934 23.6462V9.2137L12.4847 9.21787V11.7193L16.6399 11.7185C18.8174 11.7185 20.1828 10.3209 20.1828 8.37063C20.1828 6.42036 18.8176 5.0555 16.6399 5.0555H8.31934V0.89502H16.7374C21.8082 0.89502 24.636 4.21015 24.636 8.37063Z" fill="#0891B2"/>
<path d="M8.32044 5.05688H4.16016V9.21717H8.32044V5.05688Z" fill="#EF4444"/>
<path d="M4.16913 0.895508H0.0090332V5.0558H4.16913V0.895508Z" fill="#0369A1"/>
<path d="M73.6387 1.24487H78.8533" stroke="black" stroke-width="0.0473319" stroke-miterlimit="10"/>
<path d="M76.3394 -0.803711V3.57317" stroke="black" stroke-width="0.0473319" stroke-miterlimit="10"/>
</g>
</g>
</g>
<defs>
<clipPath id="clip0_277_500">
<rect width="160" height="22.53" fill="white" transform="translate(0 0.735107)"/>
</clipPath>
<clipPath id="clip1_277_500">
<rect width="160" height="22.53" fill="white" transform="translate(0 0.735107)"/>
</clipPath>
<clipPath id="clip2_277_500">
<rect width="159.982" height="22.53" fill="white" transform="translate(0.0090332 0.735107)"/>
</clipPath>
</defs>
</svg>
