<svg width="160" height="24" viewBox="0 0 160 24" fill="none" xmlns="http://www.w3.org/2000/svg">
<g clip-path="url(#clip0_232_1087)">
<g clip-path="url(#clip1_232_1087)">
<g clip-path="url(#clip2_232_1087)">
<path d="M51.8184 4.54197V2.58527H56.3766V1.94477C56.3766 1.43491 56.0877 1.00173 55.5095 0.646362H59.7118V2.58527H64.2932V4.54197H62.0466C62.2694 4.8146 62.436 5.11109 62.5472 5.43162C62.6585 5.75121 62.714 6.08385 62.714 6.42767C62.714 7.43565 62.2581 8.30429 61.3468 9.03434C60.4347 9.76287 59.3345 10.1277 58.0444 10.1277C56.7547 10.1277 55.654 9.76287 54.7429 9.03434C53.8307 8.30448 53.3746 7.43565 53.3746 6.42767C53.3746 6.08385 53.4301 5.75121 53.5414 5.43162C53.6524 5.11109 53.8114 4.8146 54.0201 4.54197H51.8184ZM59.6236 11.3553V14.6994C59.6236 14.7823 59.6531 14.8482 59.7118 14.8948C59.7713 14.9425 59.8457 14.9658 59.9345 14.9658H69.0512V16.9236H58.1112C57.5327 16.9236 57.1027 16.8079 56.8213 16.5762C56.5398 16.3456 56.3993 15.9808 56.3993 15.4821V12.9744C56.3993 12.3328 55.976 11.7942 55.1316 11.3553H59.6236ZM56.5991 6.42767C56.5991 6.89001 56.7441 7.30502 57.0324 7.67269C57.3219 8.03999 57.6667 8.22421 58.0671 8.22421C58.4676 8.22421 58.8112 8.04321 59.1005 7.68159C59.3898 7.31998 59.5338 6.91368 59.5338 6.46327C59.5338 6.00055 59.393 5.58592 59.1116 5.2173C58.8307 4.8502 58.4889 4.66655 58.0885 4.66655C57.6892 4.66655 57.3399 4.84717 57.0436 5.20859C56.7475 5.57116 56.5991 5.97651 56.5991 6.42767ZM68.852 7.0498V12.4757H65.672V2.56728C65.672 1.84405 65.25 1.23309 64.4047 0.734968H68.852V5.0045H71.6088V7.0498H68.852Z" fill="black"/>
<path d="M88.5754 6.50761H91.0887V8.4645H83.5283V10.777H88.6644C88.7236 10.777 88.7723 10.7925 88.8096 10.8218C88.8457 10.8512 88.865 10.8959 88.865 10.9545V16.8788H85.5957V12.8766C85.5957 12.8173 85.577 12.773 85.5406 12.7427C85.5031 12.713 85.4477 12.6986 85.3738 12.6986H74.7215V10.777H80.0588V8.4645H72.4761V6.50761H85.3954C85.6181 6.18765 85.7587 5.82584 85.8186 5.42276C85.878 5.01912 85.9076 4.49752 85.9076 3.8574V3.34111C85.9076 3.21047 85.8809 3.12224 85.8295 3.07434C85.7771 3.02682 85.6624 3.00335 85.4853 3.00335H74.4549V1.04626H88.9319C89.0057 1.04626 89.0612 1.06141 89.0983 1.09057C89.1346 1.12067 89.1545 1.17103 89.1545 1.24165V4.0526C89.1545 4.74062 89.1061 5.25654 89.0093 5.60016C88.9129 5.94474 88.7687 6.24672 88.5754 6.50761Z" fill="black"/>
<path d="M121.419 4.38635V2.42983H125.977V1.87851C125.977 1.36808 125.689 0.934714 125.11 0.579346H129.313V2.42983H133.893V4.38635H131.67C131.863 4.64724 132.004 4.92006 132.092 5.20462C132.182 5.48918 132.226 5.78548 132.226 6.09408C132.226 7.09033 131.774 7.94419 130.869 8.65569C129.965 9.36756 128.891 9.7235 127.645 9.7235C126.385 9.7235 125.307 9.36756 124.41 8.65569C123.513 7.94438 123.064 7.09033 123.064 6.09408C123.064 5.78567 123.113 5.48937 123.209 5.20462C123.306 4.92006 123.435 4.64724 123.598 4.38635H121.419ZM138.23 11.0041C138.289 11.0041 138.341 11.0185 138.385 11.0484C138.43 11.0787 138.452 11.1224 138.452 11.1821V17.212H135.161V13.1028C135.161 13.0437 135.142 12.9996 135.106 12.9697C135.068 12.9404 135.013 12.925 134.94 12.925H124.599V11.0041H138.23ZM126.29 6.09408C126.29 6.53294 126.418 6.92145 126.678 7.25921C126.937 7.59735 127.267 7.76623 127.668 7.76623C128.053 7.76623 128.38 7.60321 128.646 7.27719C128.913 6.9506 129.047 6.56873 129.047 6.12968C129.047 5.67908 128.916 5.28736 128.657 4.95547C128.398 4.62339 128.075 4.45772 127.689 4.45772C127.319 4.45772 126.993 4.62017 126.712 4.94638C126.43 5.27335 126.29 5.65522 126.29 6.09408ZM138.452 4.04802H141.21V6.09408H138.452V10.292H135.273V2.6788C135.273 1.955 134.85 1.34461 134.005 0.846298H138.452V4.04802Z" fill="black"/>
<path d="M156.285 2.3452C156.285 1.6214 155.864 1.01082 155.019 0.512695H159.422V16.8786H156.286V13C155.93 13.0956 155.5 13.1577 154.996 13.1871C154.493 13.2175 153.869 13.2325 153.128 13.2325H142.522V11.3284H147.97V9.72765C147.125 9.50254 146.427 9.09871 145.879 8.51785C145.331 7.9368 145.056 7.26658 145.056 6.50738C145.056 6.19915 145.101 5.90872 145.19 5.63609C145.279 5.36346 145.413 5.10806 145.589 4.87083H143.41V3.00349H147.747V2.06045C147.747 1.47902 147.435 0.99283 146.813 0.601301H150.927V3.00349H155.24V4.87102H153.061C153.225 5.10806 153.354 5.36649 153.45 5.64518C153.547 5.92387 153.594 6.21165 153.594 6.50757C153.594 7.20751 153.351 7.83646 152.861 8.39327C152.372 8.95065 151.75 9.3596 150.994 9.62087V11.3284H153.951C154.47 11.3284 154.918 11.308 155.297 11.2661C155.674 11.2245 156.004 11.1628 156.285 11.0793V2.3452ZM149.326 5.0842C148.97 5.0842 148.673 5.22961 148.436 5.52041C148.199 5.81141 148.082 6.13989 148.082 6.50757C148.082 6.87524 148.199 7.20467 148.436 7.49491C148.673 7.78572 148.97 7.93094 149.326 7.93094C149.696 7.93094 149.996 7.78572 150.226 7.49491C150.456 7.20467 150.571 6.87524 150.571 6.50757C150.571 6.14008 150.456 5.81141 150.226 5.52041C149.996 5.22961 149.696 5.0842 149.326 5.0842Z" fill="black"/>
<path d="M37.6052 6.97068L36.9515 7.56668C36.7729 7.48111 36.5768 7.37489 36.3687 7.25562C36.1584 7.13312 35.9442 6.97428 35.7235 6.77794C35.5559 6.62629 35.4136 6.47843 35.2977 6.33738C35.1813 6.19803 35.0766 6.05168 34.9832 5.90476C34.8903 6.08197 34.7748 6.24839 34.6349 6.40251C34.4951 6.55681 34.3249 6.72929 34.1218 6.92051C33.9533 7.07973 33.7787 7.21415 33.6006 7.32964C33.4201 7.44532 33.2228 7.56157 33.0074 7.68123L32.2402 7.14297C32.5842 6.96689 32.8946 6.77435 33.1681 6.56306C33.4444 6.35423 33.6782 6.117 33.8709 5.85402C34.0888 5.5475 34.2399 5.22886 34.3223 4.89716C34.4033 4.56489 34.4438 4.22013 34.4438 3.86211V2.82365H35.4974V3.86249C35.4974 4.1336 35.5412 4.47326 35.6271 4.87653C35.7142 5.28093 35.8918 5.63024 36.1586 5.92578C36.3969 6.18402 36.6387 6.39512 36.8812 6.55946C37.1243 6.72436 37.3667 6.86125 37.6052 6.97068ZM40.3115 5.70464H39.2065V8.77743H38.1965V2.47339H39.2065V4.93673H40.3115V5.70464Z" fill="black"/>
<path d="M46.0313 5.74705C45.7786 5.77564 45.3884 5.8101 44.8539 5.85081C44.3198 5.89113 43.7702 5.91404 43.1996 5.91915L41.3805 5.92578V2.86719H45.3153V3.60424H42.3907V5.18759L43.6443 5.18115C43.9802 5.17585 44.3957 5.15749 44.8889 5.12644C45.3834 5.09652 45.763 5.06036 46.0313 5.02458V5.74705ZM47.8578 8.63355H42.2092V6.49187H43.2344V7.91221H47.8578V8.63355ZM48.676 5.02875H47.605V7.03562H46.5955V2.47339H47.605V4.26992H48.676V5.02875Z" fill="black"/>
<path d="M36.6685 11.6461H38.3155V10.3956H39.3258V13.8041H38.3155V12.3917H36.6685V13.6341H32.829V10.6249H33.8387V11.4693H35.66V10.6249H36.6685V11.6461ZM39.2981 16.6249H33.7537V14.089H34.7618V14.6854H38.2882V14.089H39.2981V16.6249ZM35.66 12.9158V12.1848H33.8387V12.9158H35.66ZM38.2882 15.9306V15.3795H34.7618V15.9306H38.2882Z" fill="black"/>
<path d="M43.1237 10.5882C43.747 10.5882 44.2574 10.7472 44.6614 11.0636C45.0645 11.3828 45.2667 11.7624 45.2667 12.205C45.2667 12.6511 45.0645 13.0303 44.6614 13.345C44.2576 13.6593 43.747 13.8175 43.1237 13.8175C42.5046 13.8175 41.9917 13.6593 41.5926 13.345C41.193 13.0303 40.9917 12.6511 40.9917 12.205C40.9917 11.7624 41.193 11.3826 41.5926 11.0636C41.9919 10.7472 42.5046 10.5882 43.1237 10.5882ZM43.1237 11.3105C42.7697 11.3105 42.4995 11.4008 42.31 11.5746C42.1208 11.7543 42.0283 11.9644 42.0283 12.2052C42.0283 12.4455 42.1208 12.653 42.31 12.8293C42.4995 13.0061 42.7699 13.0937 43.1237 13.0937C43.4844 13.0937 43.758 13.0059 43.948 12.8293C44.1359 12.653 44.2298 12.4453 44.2298 12.2052C44.2298 11.9644 44.1359 11.7543 43.948 11.5746C43.758 11.4006 43.4844 11.3105 43.1237 11.3105ZM47.9048 16.5539H42.1146V14.5345H43.1676V15.8292H47.9048V16.5539ZM47.7301 14.9507H46.72V10.3954H47.7301V14.9507Z" fill="black"/>
<path d="M97.5613 11.3667V16.8544H93.7274V0.979248H96.1319H97.5613H99.2388C101.265 0.979248 102.8 1.44064 103.842 2.3621C104.885 3.28469 105.407 4.55508 105.407 6.1727C105.407 7.77536 104.885 9.04139 103.842 9.97194C102.8 10.9013 101.265 11.3667 99.2388 11.3667H97.5613ZM97.5613 8.19093H99.2388C100.009 8.19093 100.615 8.01732 101.053 7.66933C101.491 7.32192 101.711 6.82304 101.711 6.1727C101.711 5.5074 101.491 5.00492 101.053 4.66451C100.615 4.32429 100.009 4.15465 99.2388 4.15465H97.5613V8.19093Z" fill="black"/>
<path d="M111.555 11.3667V16.8544H107.722V0.979248H110.126H111.555H113.527C115.554 0.979248 117.088 1.45919 118.132 2.41909C119.174 3.37898 119.697 4.63043 119.697 6.17251C119.697 7.27648 119.428 8.23637 118.891 9.05256C118.354 9.86913 117.565 10.474 116.521 10.8669L120.649 16.854H116.136L112.733 11.3663H111.555V11.3667ZM111.555 8.3725H113.233C114.004 8.3725 114.609 8.19112 115.047 7.82818C115.486 7.46524 115.706 6.95898 115.706 6.30863C115.706 5.64391 115.486 5.13329 115.047 4.77792C114.609 4.42255 114.004 4.24496 113.233 4.24496H111.555V8.3725Z" fill="black"/>
<path d="M54.8533 20.0998H55.4899L54.1723 21.5588L55.5522 23.215H54.9071L53.6966 21.7591V23.215H53.1573V20.0998H53.6966V21.3988L54.8533 20.0998Z" fill="black"/>
<path d="M55.621 21.6568C55.621 21.4257 55.6607 21.2112 55.741 21.0146C55.8207 20.8162 55.9341 20.6462 56.0814 20.5017C56.228 20.3592 56.4001 20.246 56.5953 20.1661C56.792 20.086 57.0053 20.0457 57.2361 20.0457C57.4684 20.0457 57.682 20.086 57.8804 20.1661C58.0773 20.2462 58.249 20.3594 58.3965 20.5017C58.5431 20.6462 58.6566 20.8162 58.7369 21.0146C58.817 21.211 58.8575 21.4257 58.8575 21.6568C58.8575 21.8891 58.817 22.1038 58.7369 22.3013C58.6565 22.4976 58.5436 22.6695 58.3984 22.8167C58.2526 22.9638 58.0817 23.0783 57.8846 23.1595C57.6873 23.2423 57.4711 23.282 57.2361 23.282C57.0017 23.282 56.7865 23.2421 56.5911 23.1595C56.3955 23.0783 56.2244 22.964 56.0793 22.8167C55.9335 22.6697 55.8207 22.4976 55.741 22.3013C55.6607 22.1038 55.621 21.8889 55.621 21.6568ZM56.1766 21.6568C56.1766 21.8708 56.2217 22.062 56.3132 22.2295C56.4037 22.3969 56.5286 22.5281 56.6892 22.6232C56.8491 22.718 57.0317 22.7655 57.2361 22.7655C57.444 22.7655 57.6275 22.718 57.7865 22.6232C57.945 22.5281 58.0694 22.3969 58.1606 22.2295C58.2513 22.0618 58.2964 21.8706 58.2964 21.6568C58.2964 21.4433 58.2513 21.253 58.1606 21.0851C58.0694 20.9177 57.945 20.7857 57.7865 20.6909C57.6275 20.5968 57.444 20.5489 57.2361 20.5489C57.0315 20.5489 56.8491 20.5968 56.6892 20.6909C56.5284 20.7857 56.4037 20.9177 56.3132 21.0851C56.2219 21.253 56.1766 21.4433 56.1766 21.6568Z" fill="black"/>
<path d="M59.7798 22.036V23.2152H59.2543V20.0998H59.5665H59.7798H60.2159C60.441 20.0998 60.6381 20.139 60.8056 20.2198C60.9736 20.2992 61.104 20.4124 61.1977 20.5574C61.2903 20.703 61.3374 20.8732 61.3374 21.0703C61.3374 21.2948 61.2757 21.4864 61.1532 21.6436C61.03 21.8007 60.8598 21.9124 60.6434 21.9774L61.5241 23.215H60.8885L60.0998 22.0359L59.7798 22.036ZM59.7798 21.6044H60.1935C60.3755 21.6044 60.5201 21.5576 60.6295 21.4656C60.7401 21.3736 60.7946 21.2445 60.7946 21.0786C60.7946 20.9128 60.7401 20.7836 60.6295 20.6909C60.5201 20.5992 60.3755 20.5529 60.1935 20.5529H59.7798V21.6044Z" fill="black"/>
<path d="M62.306 21.7727V22.7525H63.6864V23.215H62.306H62.1148H61.7899V20.0998H62.1148H62.306H63.6864V20.5614H62.306V21.3196H63.5967V21.7729L62.306 21.7727Z" fill="black"/>
<path d="M64.8318 22.4136L64.4761 23.215H63.8792L65.4061 19.9252L66.9334 23.215H66.3366L65.9803 22.4136H64.8318ZM64.9831 21.9692H65.8294L65.4061 20.98L64.9831 21.9692Z" fill="black"/>
<path d="M69.4505 20.0998H69.9662V23.371L67.6913 21.1547V23.215H67.1752V19.9434L69.4507 22.1652V20.0998H69.4505Z" fill="black"/>
<path d="M72.3786 22.4136L72.0233 23.215H71.4265L72.9534 19.9252L74.4806 23.215H73.8832L73.5279 22.4136H72.3786ZM72.5305 21.9692H73.3768L72.9536 20.98L72.5305 21.9692Z" fill="black"/>
<path d="M75.0025 21.6568C75.0025 21.8772 75.0514 22.0696 75.1495 22.2362C75.2473 22.4022 75.3763 22.5306 75.5385 22.6209C75.7008 22.7116 75.8767 22.7572 76.0666 22.7572C76.2854 22.7572 76.4759 22.7152 76.638 22.6324C76.7996 22.5489 76.9343 22.4441 77.0408 22.3164V22.9395C76.9131 23.0457 76.7733 23.1279 76.6205 23.1843C76.4676 23.2402 76.2773 23.2682 76.0484 23.2682C75.8197 23.2682 75.6076 23.2294 75.4117 23.1512C75.2163 23.0726 75.0442 22.9611 74.8971 22.8191C74.7506 22.6764 74.6366 22.5063 74.5552 22.3098C74.4732 22.1118 74.4329 21.8952 74.4329 21.657C74.4329 21.42 74.4732 21.2034 74.5552 21.0048C74.6366 20.8083 74.7504 20.6388 74.8971 20.4961C75.044 20.3539 75.2163 20.2422 75.4117 20.1644C75.6076 20.0843 75.8197 20.0458 76.0484 20.0458C76.2773 20.0458 76.4678 20.074 76.6205 20.1305C76.7733 20.1865 76.9131 20.2685 77.0408 20.3745V20.9989C76.9343 20.8711 76.7998 20.7662 76.638 20.6827C76.4761 20.5994 76.2856 20.5576 76.0666 20.5576C75.8767 20.5576 75.7008 20.6027 75.5385 20.6945C75.3765 20.7848 75.2473 20.9122 75.1495 21.0765C75.0514 21.2413 75.0025 21.4347 75.0025 21.6568Z" fill="black"/>
<path d="M78.1866 22.4136L77.8309 23.215H77.2338L78.7613 19.9252L80.2878 23.215H79.6912L79.3351 22.4136H78.1866ZM78.3379 21.9692H79.1844L78.7615 20.98L78.3379 21.9692Z" fill="black"/>
<path d="M80.8552 23.215H80.5299V20.0998H80.8552H81.0642H81.536C81.8537 20.0998 82.1326 20.1642 82.3728 20.2925C82.6135 20.4218 82.8015 20.6026 82.9366 20.8361C83.0711 21.0692 83.1394 21.3429 83.1394 21.6568C83.1394 21.9709 83.0711 22.2462 82.9366 22.4789C82.8015 22.7116 82.6135 22.8922 82.3728 23.0217C82.1326 23.1512 81.8537 23.215 81.536 23.215H81.0642H80.8552ZM81.0642 22.721H81.5233C81.7274 22.721 81.9109 22.6811 82.0725 22.6008C82.2344 22.5217 82.362 22.402 82.4554 22.2445C82.5489 22.0874 82.596 21.8916 82.596 21.6568C82.596 21.4228 82.5489 21.2274 82.4554 21.0703C82.362 20.9128 82.2344 20.7931 82.0725 20.7138C81.9109 20.6329 81.7274 20.5928 81.5233 20.5928H81.0642V22.721Z" fill="black"/>
<path d="M84.0528 21.7727V22.7525H85.4336V23.215H84.0528H83.8621H83.5369V20.0998H83.8621H84.0528H85.4336V20.5614H84.0528V21.3196H85.3438V21.7729L84.0528 21.7727Z" fill="black"/>
<path d="M86.5445 21.3196L86.3298 23.2152H85.7876L86.2147 19.9436L87.4931 22.0571L88.7746 19.9436L89.2027 23.2152H88.6542L88.4405 21.3236L87.4933 22.9268L86.5445 21.3196Z" fill="black"/>
<path d="M89.5991 20.0998H90.1334V23.215H89.5991V20.0998Z" fill="black"/>
<path d="M91.103 21.6568C91.103 21.8772 91.1514 22.0696 91.2495 22.2362C91.3476 22.4022 91.4769 22.5306 91.6388 22.6209C91.8012 22.7116 91.9771 22.7572 92.1668 22.7572C92.3855 22.7572 92.5765 22.7152 92.7387 22.6324C92.9004 22.5489 93.0347 22.4441 93.1411 22.3164V22.9395C93.0131 23.0457 92.8735 23.1279 92.7206 23.1843C92.5684 23.2402 92.3773 23.2682 92.1484 23.2682C91.9197 23.2682 91.7084 23.2294 91.5119 23.1512C91.3165 23.0726 91.1439 22.9611 90.9975 22.8191C90.851 22.6764 90.7368 22.5063 90.6556 22.3098C90.5734 22.1118 90.5331 21.8952 90.5331 21.657C90.5331 21.42 90.5736 21.2034 90.6556 21.0048C90.7368 20.8083 90.8508 20.6388 90.9975 20.4961C91.1437 20.3539 91.3165 20.2422 91.5119 20.1644C91.7084 20.0843 91.9197 20.0458 92.1484 20.0458C92.3773 20.0458 92.5685 20.074 92.7206 20.1305C92.8735 20.1865 93.0131 20.2685 93.1411 20.3745V20.9989C93.0347 20.8711 92.9004 20.7662 92.7387 20.6827C92.5767 20.5994 92.3857 20.5576 92.1668 20.5576C91.9771 20.5576 91.8012 20.6027 91.6388 20.6945C91.4771 20.7848 91.3476 20.9122 91.2495 21.0765C91.1512 21.2413 91.103 21.4347 91.103 21.6568Z" fill="black"/>
<path d="M95.1174 22.1652C95.2153 22.3664 95.327 22.5236 95.4514 22.6368C95.5765 22.7498 95.7289 22.8064 95.9097 22.8064C96.0663 22.8064 96.1852 22.7691 96.264 22.6938C96.3423 22.6201 96.3817 22.5162 96.3817 22.3829C96.3817 22.2667 96.3482 22.1718 96.2816 22.0982C96.2146 22.0232 96.1284 21.9618 96.0233 21.9134C95.9183 21.8645 95.8062 21.8172 95.6873 21.7725C95.6102 21.7432 95.5248 21.7049 95.4317 21.6599C95.338 21.6131 95.2496 21.5546 95.1664 21.4832C95.0835 21.4115 95.0146 21.3251 94.9616 21.2227C94.9086 21.1209 94.8809 20.9989 94.8809 20.8598C94.8809 20.6941 94.9245 20.5497 95.0106 20.4287C95.0973 20.3067 95.213 20.2123 95.3601 20.1451C95.5068 20.078 95.675 20.0455 95.8616 20.0455C96.0517 20.0455 96.2159 20.0801 96.3554 20.1479C96.494 20.2151 96.6095 20.3016 96.6973 20.4041C96.7869 20.5055 96.8524 20.6108 96.8942 20.7176L96.484 20.9717C96.4183 20.8461 96.3395 20.7411 96.2458 20.6509C96.153 20.5612 96.0302 20.5177 95.8785 20.5177C95.7422 20.5177 95.6335 20.5514 95.5523 20.6182C95.4697 20.6841 95.4294 20.7744 95.4294 20.8876C95.4294 20.976 95.4627 21.0517 95.5296 21.1138C95.5966 21.1763 95.6843 21.2309 95.7937 21.2786C95.9042 21.3259 96.0211 21.3734 96.1453 21.4219C96.2702 21.4654 96.3929 21.526 96.5131 21.6014C96.6333 21.6769 96.7331 21.7767 96.8138 21.9003C96.8942 22.0226 96.9336 22.1764 96.9336 22.3604C96.9336 22.6453 96.8429 22.8695 96.6614 23.0344C96.4817 23.2001 96.224 23.282 95.8925 23.282C95.625 23.282 95.3862 23.2031 95.1778 23.0456C94.9676 22.8884 94.8152 22.6822 94.7172 22.427L95.1174 22.1652Z" fill="black"/>
<path d="M97.1815 21.6568C97.1815 21.4257 97.2215 21.2112 97.3015 21.0146C97.3809 20.8162 97.495 20.6462 97.642 20.5017C97.7881 20.3592 97.9604 20.246 98.1562 20.1661C98.3521 20.086 98.5661 20.0457 98.7965 20.0457C99.0284 20.0457 99.2425 20.086 99.4404 20.1661C99.6381 20.2462 99.8094 20.3594 99.9565 20.5017C100.103 20.6462 100.217 20.8162 100.297 21.0146C100.378 21.211 100.418 21.4257 100.418 21.6568C100.418 21.8891 100.378 22.1038 100.297 22.3013C100.217 22.4976 100.105 22.6695 99.9595 22.8167C99.8135 22.9638 99.6418 23.0783 99.4451 23.1595C99.2482 23.2423 99.0318 23.282 98.7965 23.282C98.563 23.282 98.3466 23.2421 98.1516 23.1595C97.9563 23.0783 97.7847 22.964 97.6405 22.8167C97.4945 22.6697 97.3811 22.4976 97.3017 22.3013C97.2215 22.1038 97.1815 21.8889 97.1815 21.6568ZM97.7374 21.6568C97.7374 21.8708 97.7823 22.062 97.8739 22.2295C97.9638 22.3969 98.0895 22.5281 98.2495 22.6232C98.4095 22.718 98.5918 22.7655 98.7965 22.7655C99.0046 22.7655 99.1882 22.718 99.3472 22.6232C99.5053 22.5281 99.6295 22.3969 99.7206 22.2295C99.8113 22.0618 99.8567 21.8706 99.8567 21.6568C99.8567 21.4433 99.8115 21.253 99.7206 21.0851C99.6297 20.9177 99.5053 20.7857 99.3472 20.6909C99.1882 20.5968 99.0044 20.5489 98.7965 20.5489C98.5918 20.5489 98.4095 20.5968 98.2495 20.6909C98.0893 20.7857 97.9636 20.9177 97.8739 21.0851C97.7823 21.253 97.7374 21.4433 97.7374 21.6568Z" fill="black"/>
<path d="M101.206 21.6568C101.206 21.8772 101.255 22.0696 101.353 22.2362C101.452 22.4022 101.581 22.5306 101.742 22.6209C101.904 22.7116 102.08 22.7572 102.271 22.7572C102.49 22.7572 102.68 22.7152 102.843 22.6324C103.004 22.5489 103.138 22.4441 103.245 22.3164V22.9395C103.117 23.0457 102.977 23.1279 102.825 23.1843C102.672 23.2402 102.48 23.2682 102.252 23.2682C102.024 23.2682 101.812 23.2294 101.616 23.1512C101.42 23.0726 101.248 22.9611 101.101 22.8191C100.955 22.6764 100.841 22.5063 100.758 22.3098C100.677 22.1118 100.636 21.8952 100.636 21.657C100.636 21.42 100.677 21.2034 100.758 21.0048C100.841 20.8083 100.955 20.6388 101.101 20.4961C101.248 20.3539 101.42 20.2422 101.616 20.1644C101.812 20.0843 102.024 20.0458 102.252 20.0458C102.48 20.0458 102.672 20.074 102.825 20.1305C102.977 20.1865 103.117 20.2685 103.245 20.3745V20.9989C103.138 20.8711 103.004 20.7662 102.843 20.6827C102.681 20.5994 102.49 20.5576 102.271 20.5576C102.08 20.5576 101.904 20.6027 101.742 20.6945C101.581 20.7848 101.452 20.9122 101.353 21.0765C101.255 21.2413 101.206 21.4347 101.206 21.6568Z" fill="black"/>
<path d="M103.777 20.0998H104.311V23.215H103.777V20.0998Z" fill="black"/>
<path d="M105.405 21.7727V22.7525H106.784V23.215H105.405H105.213H104.888V20.0998H105.213H105.405H106.784V20.5614H105.405V21.3196H106.696V21.7729L105.405 21.7727Z" fill="black"/>
<path d="M107.004 20.5847V20.0998H109.176V20.5847H108.354V23.2152H107.823V20.5847H107.004Z" fill="black"/>
<path d="M111.23 20.0998H111.832L110.771 21.9024V23.2152H110.237V21.9024L109.177 20.0998H109.783L110.504 21.4347L111.23 20.0998Z" fill="black"/>
<path d="M113.739 21.809V23.215H113.223V20.0998H113.547H113.739H114.941V20.5714H113.739V21.3503H114.897V21.809H113.739Z" fill="black"/>
<path d="M115.25 21.6568C115.25 21.4257 115.29 21.2112 115.371 21.0146C115.45 20.8162 115.564 20.6462 115.711 20.5017C115.857 20.3592 116.029 20.246 116.225 20.1661C116.421 20.086 116.635 20.0457 116.865 20.0457C117.097 20.0457 117.311 20.086 117.509 20.1661C117.707 20.2462 117.878 20.3594 118.026 20.5017C118.172 20.6462 118.286 20.8162 118.366 21.0146C118.447 21.211 118.486 21.4257 118.486 21.6568C118.486 21.8891 118.447 22.1038 118.366 22.3013C118.286 22.4976 118.173 22.6695 118.029 22.8167C117.882 22.9638 117.711 23.0783 117.514 23.1595C117.316 23.2423 117.1 23.282 116.865 23.282C116.631 23.282 116.416 23.2421 116.221 23.1595C116.025 23.0783 115.854 22.964 115.709 22.8167C115.562 22.6697 115.45 22.4976 115.371 22.3013C115.29 22.1038 115.25 21.8889 115.25 21.6568ZM115.806 21.6568C115.806 21.8708 115.851 22.062 115.943 22.2295C116.033 22.3969 116.158 22.5281 116.318 22.6232C116.478 22.718 116.661 22.7655 116.865 22.7655C117.073 22.7655 117.256 22.718 117.415 22.6232C117.574 22.5281 117.699 22.3969 117.789 22.2295C117.88 22.0618 117.926 21.8706 117.926 21.6568C117.926 21.4433 117.88 21.253 117.789 21.0851C117.699 20.9177 117.574 20.7857 117.415 20.6909C117.256 20.5968 117.073 20.5489 116.865 20.5489C116.661 20.5489 116.478 20.5968 116.318 20.6909C116.158 20.7857 116.033 20.9177 115.943 21.0851C115.851 21.253 115.806 21.4433 115.806 21.6568Z" fill="black"/>
<path d="M119.409 22.036V23.2152H118.883V20.0998H119.195H119.409H119.845C120.07 20.0998 120.267 20.139 120.435 20.2198C120.602 20.2992 120.732 20.4124 120.827 20.5574C120.919 20.703 120.967 20.8732 120.967 21.0703C120.967 21.2948 120.904 21.4864 120.782 21.6436C120.659 21.8007 120.489 21.9124 120.272 21.9774L121.152 23.215H120.517L119.728 22.0359L119.409 22.036ZM119.409 21.6044H119.822C120.004 21.6044 120.149 21.5576 120.259 21.4656C120.368 21.3736 120.423 21.2445 120.423 21.0786C120.423 20.9128 120.368 20.7836 120.259 20.6909C120.149 20.5992 120.004 20.5529 119.822 20.5529H119.409V21.6044Z" fill="black"/>
<path d="M123.167 22.036V23.2152H122.642V20.0998H122.953H123.167H123.581C123.807 20.0998 124.003 20.1386 124.172 20.2168C124.339 20.2954 124.469 20.4078 124.562 20.5529C124.653 20.699 124.699 20.8709 124.699 21.0701C124.699 21.2693 124.653 21.4397 124.562 21.5837C124.47 21.7271 124.339 21.8395 124.172 21.917C124.003 21.9959 123.807 22.0359 123.581 22.0359L123.167 22.036ZM123.167 21.573H123.58C123.762 21.573 123.907 21.53 124.017 21.4459C124.127 21.3613 124.182 21.2358 124.182 21.0703C124.182 20.9029 124.127 20.7774 124.017 20.6909C123.907 20.6051 123.762 20.5612 123.58 20.5612H123.167V21.573Z" fill="black"/>
<path d="M125.074 20.0998H125.604V22.1693C125.604 22.3589 125.656 22.5137 125.759 22.6322C125.863 22.7508 126.014 22.8108 126.214 22.8108C126.415 22.8108 126.567 22.7508 126.669 22.6322C126.772 22.5137 126.823 22.3589 126.823 22.1693V20.0998H127.353V22.1915C127.353 22.4194 127.305 22.6175 127.208 22.7812C127.111 22.9461 126.978 23.0726 126.806 23.1618C126.633 23.2512 126.436 23.2951 126.213 23.2951C125.991 23.2951 125.794 23.2512 125.623 23.1618C125.453 23.0726 125.319 22.9461 125.221 22.7812C125.122 22.6175 125.073 22.4194 125.073 22.1915V20.0998H125.074Z" fill="black"/>
<path d="M129.358 21.5281C129.552 21.5792 129.709 21.6676 129.835 21.7948C129.959 21.9226 130.021 22.0964 130.021 22.3163C130.021 22.5217 129.974 22.6902 129.879 22.8242C129.784 22.9575 129.653 23.0558 129.483 23.1196C129.314 23.1836 129.119 23.2152 128.9 23.2152H127.907V20.0998H128.847C129.14 20.0998 129.38 20.1642 129.565 20.2925C129.751 20.4218 129.843 20.6184 129.843 20.8834C129.843 21.037 129.8 21.1689 129.712 21.2787C129.625 21.3887 129.507 21.4722 129.358 21.5281ZM128.432 21.3505H128.81C128.957 21.3505 129.075 21.3141 129.167 21.2414C129.259 21.1682 129.305 21.0678 129.305 20.9402C129.305 20.81 129.259 20.709 129.167 20.6398C129.075 20.5699 128.957 20.536 128.81 20.536H128.432V21.3505ZM128.432 21.7591V22.779H128.869C129.047 22.779 129.193 22.7356 129.309 22.65C129.425 22.5639 129.483 22.4344 129.483 22.2623C129.483 22.0936 129.425 21.9671 129.309 21.8844C129.193 21.8009 129.047 21.7591 128.869 21.7591H128.432Z" fill="black"/>
<path d="M130.464 20.0998H130.989V22.7439H132.227V23.215H130.464L130.464 20.0998Z" fill="black"/>
<path d="M132.492 20.0998H133.025V23.215H132.492V20.0998Z" fill="black"/>
<path d="M133.995 21.6568C133.995 21.8772 134.044 22.0696 134.142 22.2362C134.241 22.4022 134.37 22.5306 134.532 22.6209C134.694 22.7116 134.869 22.7572 135.059 22.7572C135.279 22.7572 135.469 22.7152 135.631 22.6324C135.793 22.5489 135.927 22.4441 136.034 22.3164V22.9395C135.906 23.0457 135.767 23.1279 135.614 23.1843C135.461 23.2402 135.269 23.2682 135.041 23.2682C134.813 23.2682 134.601 23.2294 134.405 23.1512C134.209 23.0726 134.037 22.9611 133.89 22.8191C133.744 22.6764 133.63 22.5063 133.548 22.3098C133.466 22.1118 133.425 21.8952 133.425 21.657C133.425 21.42 133.466 21.2034 133.548 21.0048C133.63 20.8083 133.744 20.6388 133.89 20.4961C134.037 20.3539 134.209 20.2422 134.405 20.1644C134.601 20.0843 134.813 20.0458 135.041 20.0458C135.269 20.0458 135.461 20.074 135.614 20.1305C135.767 20.1865 135.906 20.2685 136.034 20.3745V20.9989C135.927 20.8711 135.793 20.7662 135.631 20.6827C135.469 20.5994 135.279 20.5576 135.059 20.5576C134.869 20.5576 134.694 20.6027 134.532 20.6945C134.37 20.7848 134.241 20.9122 134.142 21.0765C134.044 21.2413 133.995 21.4347 133.995 21.6568Z" fill="black"/>
<path d="M138.314 22.036V23.2152H137.789V20.0998H138.1H138.314H138.751C138.976 20.0998 139.173 20.139 139.341 20.2198C139.508 20.2992 139.639 20.4124 139.732 20.5574C139.825 20.703 139.871 20.8732 139.871 21.0703C139.871 21.2948 139.81 21.4864 139.687 21.6436C139.564 21.8007 139.394 21.9124 139.178 21.9774L140.059 23.215H139.422L138.635 22.0359L138.314 22.036ZM138.314 21.6044H138.728C138.91 21.6044 139.055 21.5576 139.164 21.4656C139.274 21.3736 139.329 21.2445 139.329 21.0786C139.329 20.9128 139.274 20.7836 139.164 20.6909C139.055 20.5992 138.91 20.5529 138.728 20.5529H138.314V21.6044Z" fill="black"/>
<path d="M140.839 21.7727V22.7525H142.22V23.215H140.839H140.648H140.323V20.0998H140.648H140.839H142.22V20.5614H140.839V21.3196H142.13V21.7729L140.839 21.7727Z" fill="black"/>
<path d="M142.752 20.0998H143.276V22.7439H144.515V23.215H142.752V20.0998Z" fill="black"/>
<path d="M145.616 22.4136L145.26 23.215H144.663L146.19 19.9252L147.717 23.215H147.12L146.764 22.4136H145.616ZM145.768 21.9692H146.613L146.19 20.98L145.768 21.9692Z" fill="black"/>
<path d="M147.647 20.5847V20.0998H149.82V20.5847H148.997V23.2152H148.467V20.5847H147.647Z" fill="black"/>
<path d="M150.086 20.0998H150.62V23.215H150.086V20.0998Z" fill="black"/>
<path d="M151.02 21.6568C151.02 21.4257 151.059 21.2112 151.14 21.0146C151.219 20.8162 151.333 20.6462 151.48 20.5017C151.627 20.3592 151.799 20.246 151.994 20.1661C152.191 20.086 152.404 20.0457 152.635 20.0457C152.867 20.0457 153.081 20.086 153.279 20.1661C153.476 20.2462 153.648 20.3594 153.795 20.5017C153.941 20.6462 154.055 20.8162 154.135 21.0146C154.216 21.211 154.256 21.4257 154.256 21.6568C154.256 21.8891 154.216 22.1038 154.135 22.3013C154.055 22.4976 153.942 22.6695 153.798 22.8167C153.651 22.9638 153.48 23.0783 153.284 23.1595C153.086 23.2423 152.87 23.282 152.635 23.282C152.4 23.282 152.186 23.2421 151.99 23.1595C151.795 23.0783 151.623 22.964 151.478 22.8167C151.332 22.6697 151.22 22.4976 151.14 22.3013C151.059 22.1038 151.02 21.8889 151.02 21.6568ZM151.575 21.6568C151.575 21.8708 151.621 22.062 151.712 22.2295C151.803 22.3969 151.927 22.5281 152.088 22.6232C152.247 22.718 152.43 22.7655 152.635 22.7655C152.843 22.7655 153.026 22.718 153.185 22.6232C153.344 22.5281 153.468 22.3969 153.559 22.2295C153.65 22.0618 153.695 21.8706 153.695 21.6568C153.695 21.4433 153.65 21.253 153.559 21.0851C153.468 20.9177 153.344 20.7857 153.185 20.6909C153.026 20.5968 152.843 20.5489 152.635 20.5489C152.43 20.5489 152.247 20.5968 152.088 20.6909C151.927 20.7857 151.802 20.9177 151.712 21.0851C151.621 21.253 151.575 21.4433 151.575 21.6568Z" fill="black"/>
<path d="M156.927 20.0998H157.444V23.371L155.168 21.1547V23.215H154.652V19.9434L156.927 22.1652V20.0998Z" fill="black"/>
<path d="M158.242 22.1652C158.34 22.3664 158.451 22.5236 158.576 22.6368C158.7 22.7498 158.853 22.8064 159.034 22.8064C159.191 22.8064 159.31 22.7691 159.389 22.6938C159.467 22.6201 159.506 22.5162 159.506 22.3829C159.506 22.2667 159.473 22.1718 159.406 22.0982C159.339 22.0232 159.253 21.9618 159.148 21.9134C159.043 21.8645 158.931 21.8172 158.812 21.7725C158.735 21.7432 158.65 21.7049 158.555 21.6599C158.463 21.6131 158.375 21.5546 158.291 21.4832C158.208 21.4115 158.14 21.3251 158.087 21.2227C158.033 21.1209 158.006 20.9989 158.006 20.8598C158.006 20.6941 158.049 20.5497 158.135 20.4287C158.222 20.3067 158.338 20.2123 158.485 20.1451C158.632 20.078 158.8 20.0455 158.986 20.0455C159.177 20.0455 159.341 20.0801 159.48 20.1479C159.619 20.2151 159.734 20.3016 159.822 20.4041C159.912 20.5055 159.977 20.6108 160.019 20.7176L159.609 20.9717C159.543 20.8461 159.464 20.7411 159.371 20.6509C159.277 20.5612 159.155 20.5177 159.003 20.5177C158.867 20.5177 158.759 20.5514 158.677 20.6182C158.595 20.6841 158.554 20.7744 158.554 20.8876C158.554 20.976 158.588 21.0517 158.655 21.1138C158.721 21.1763 158.809 21.2309 158.919 21.2786C159.028 21.3259 159.146 21.3734 159.271 21.4219C159.395 21.4654 159.517 21.526 159.638 21.6014C159.758 21.6769 159.857 21.7767 159.938 21.9003C160.019 22.0226 160.058 22.1764 160.058 22.3604C160.058 22.6453 159.968 22.8695 159.787 23.0344C159.606 23.2001 159.349 23.282 159.017 23.282C158.749 23.282 158.511 23.2031 158.303 23.0456C158.093 22.8884 157.94 22.6822 157.842 22.427L158.242 22.1652Z" fill="black"/>
<path d="M12.488 0.915588H21.0733C26.1433 0.915588 28.9715 4.23072 28.9715 8.39138C28.9715 11.446 27.4756 14.0464 24.6478 15.2159L25.3197 16.3806L29.523 23.6673H24.6478H16.977H12.488V0.915588Z" fill="#003686"/>
<path d="M24.636 8.37038C24.636 12.5307 21.8082 15.846 16.7374 15.846L12.4847 15.8598V23.6595L8.31934 23.6459V9.21346L12.4847 9.21762V11.719L16.6399 11.7183C18.8174 11.7183 20.1828 10.3206 20.1828 8.37038C20.1828 6.42012 18.8176 5.05525 16.6399 5.05525H8.31934V0.894775H16.7374C21.8082 0.894775 24.636 4.2099 24.636 8.37038Z" fill="#58ACDA"/>
<path d="M8.32057 5.05676H4.16028V9.21705H8.32057V5.05676Z" fill="#E9546B"/>
<path d="M4.16913 0.895325H0.0090332V5.05561H4.16913V0.895325Z" fill="#003686"/>
<path d="M73.6388 1.24487H78.8534" stroke="black" stroke-width="0.0473319" stroke-miterlimit="10"/>
<path d="M76.3394 -0.803894V3.57298" stroke="black" stroke-width="0.0473319" stroke-miterlimit="10"/>
</g>
</g>
</g>
<defs>
<clipPath id="clip0_232_1087">
<rect width="160" height="22.53" fill="white" transform="translate(0 0.734985)"/>
</clipPath>
<clipPath id="clip1_232_1087">
<rect width="160" height="22.53" fill="white" transform="translate(0 0.734985)"/>
</clipPath>
<clipPath id="clip2_232_1087">
<rect width="159.982" height="22.53" fill="white" transform="translate(0.0090332 0.734985)"/>
</clipPath>
</defs>
</svg>
