<svg width="245" height="35" viewBox="0 0 245 35" fill="none" xmlns="http://www.w3.org/2000/svg">
<g clip-path="url(#clip0_277_579)">
<g clip-path="url(#clip1_277_579)">
<g clip-path="url(#clip2_277_579)">
<path d="M79.3457 5.97947V2.98319H86.3257V2.0024C86.3257 1.22166 85.8833 0.558332 84.9979 0.0141602H91.4329V2.98319H98.4483V5.97947H95.0081C95.3494 6.39695 95.6045 6.85096 95.7747 7.34179C95.9451 7.83117 96.0301 8.34055 96.0301 8.86703C96.0301 10.4105 95.332 11.7407 93.9366 12.8586C92.5398 13.9742 90.8551 14.5329 88.8796 14.5329C86.9047 14.5329 85.2191 13.9742 83.824 12.8586C82.4272 11.741 81.7288 10.4105 81.7288 8.86703C81.7288 8.34055 81.8138 7.83117 81.9842 7.34179C82.1541 6.85096 82.3977 6.39695 82.7171 5.97947H79.3457ZM91.2978 16.4127V21.5335C91.2978 21.6604 91.343 21.7613 91.4329 21.8327C91.5239 21.9057 91.6379 21.9414 91.7738 21.9414H105.734V24.9394H88.9819C88.0959 24.9394 87.4376 24.7623 87.0067 24.4074C86.5756 24.0543 86.3605 23.4956 86.3605 22.732V18.892C86.3605 17.9095 85.7123 17.0847 84.4192 16.4127H91.2978ZM86.6664 8.86703C86.6664 9.57501 86.8884 10.2105 87.33 10.7735C87.7733 11.336 88.3012 11.618 88.9144 11.618C89.5276 11.618 90.0538 11.3409 90.4967 10.7871C90.9397 10.2334 91.1604 9.61125 91.1604 8.92154C91.1604 8.21298 90.9447 7.57807 90.5138 7.0136C90.0836 6.45145 89.5603 6.17024 88.9471 6.17024C88.3357 6.17024 87.8008 6.44682 87.3471 7.00027C86.8937 7.55545 86.6664 8.17616 86.6664 8.86703ZM105.429 9.8197V18.1284H100.56V2.95565C100.56 1.84817 99.9135 0.91261 98.619 0.149841H105.429V6.68774H109.651V9.8197H105.429Z" fill="black"/>
<path d="M135.631 8.98938H139.48V11.986H127.903V15.527H135.768C135.858 15.527 135.933 15.5508 135.99 15.5957C136.045 15.6406 136.075 15.7091 136.075 15.7989V24.8707H131.069V18.7422C131.069 18.6514 131.04 18.5836 130.984 18.5372C130.927 18.4917 130.842 18.4696 130.729 18.4696H114.417V15.527H122.59V11.986H110.979V8.98938H130.762C131.103 8.49942 131.318 7.94539 131.41 7.32816C131.501 6.71006 131.546 5.91134 131.546 4.93114V4.14054C131.546 3.94049 131.505 3.80539 131.427 3.73204C131.347 3.65928 131.171 3.62333 130.9 3.62333H114.009V0.626465H136.177C136.29 0.626465 136.375 0.649658 136.432 0.694305C136.488 0.740402 136.518 0.817519 136.518 0.925658V5.23004C136.518 6.2836 136.444 7.07362 136.296 7.59981C136.148 8.12746 135.927 8.58988 135.631 8.98938Z" fill="black"/>
<path d="M185.925 5.74125V2.74526H192.905V1.90102C192.905 1.11941 192.463 0.455793 191.577 -0.0883789H198.013V2.74526H205.027V5.74125H201.622C201.917 6.14076 202.133 6.55852 202.269 6.99427C202.405 7.43001 202.474 7.88373 202.474 8.35629C202.474 9.88183 201.781 11.1894 200.396 12.2789C199.011 13.3689 197.366 13.914 195.459 13.914C193.528 13.914 191.879 13.3689 190.504 12.2789C189.131 11.1896 188.444 9.88183 188.444 8.35629C188.444 7.88402 188.518 7.4303 188.666 6.99427C188.814 6.55852 189.011 6.14076 189.262 5.74125H185.925ZM211.667 15.875C211.758 15.875 211.838 15.897 211.905 15.9428C211.973 15.9892 212.007 16.0562 212.007 16.1475V25.381H206.968V19.0887C206.968 18.9982 206.939 18.9307 206.883 18.8849C206.825 18.8399 206.741 18.8165 206.628 18.8165H190.794V15.875H211.667ZM193.383 8.35629C193.383 9.02832 193.58 9.62323 193.978 10.1404C194.374 10.6582 194.88 10.9168 195.494 10.9168C196.082 10.9168 196.583 10.6672 196.991 10.168C197.4 9.66787 197.605 9.08311 197.605 8.4108C197.605 7.7208 197.405 7.12096 197.008 6.61274C196.611 6.10423 196.117 5.85055 195.526 5.85055C194.96 5.85055 194.459 6.0993 194.029 6.59882C193.597 7.09951 193.383 7.68427 193.383 8.35629ZM212.007 5.22317H216.23V8.35629H212.007V14.7846H207.139V3.1265C207.139 2.01815 206.492 1.08346 205.198 0.320402H212.007V5.22317Z" fill="black"/>
<path d="M239.315 2.61567C239.315 1.50732 238.669 0.572339 237.376 -0.19043H244.118V24.8705H239.316V18.9313C238.771 19.0777 238.113 19.1728 237.341 19.2177C236.57 19.2644 235.615 19.2873 234.481 19.2873H218.24V16.3716H226.582V13.9204C225.287 13.5757 224.219 12.9573 223.38 12.0678C222.541 11.178 222.12 10.1517 222.12 8.98918C222.12 8.5172 222.188 8.07246 222.325 7.65499C222.461 7.23751 222.666 6.84641 222.936 6.48315H219.6V3.6237H226.241V2.17963C226.241 1.2893 225.763 0.544797 224.81 -0.054749H231.109V3.6237H237.715V6.48344H234.378C234.628 6.84641 234.826 7.24215 234.973 7.6689C235.122 8.09566 235.194 8.53633 235.194 8.98947C235.194 10.0613 234.821 11.0244 234.072 11.877C233.322 12.7305 232.37 13.3568 231.212 13.7568V16.3716H235.741C236.535 16.3716 237.222 16.3403 237.802 16.2762C238.379 16.2124 238.885 16.1179 239.315 15.9901V2.61567ZM228.658 6.80988C228.113 6.80988 227.659 7.03254 227.296 7.47785C226.932 7.92345 226.753 8.42645 226.753 8.98947C226.753 9.55249 226.932 10.0569 227.296 10.5014C227.659 10.9467 228.113 11.1691 228.658 11.1691C229.226 11.1691 229.685 10.9467 230.037 10.5014C230.389 10.0569 230.565 9.55249 230.565 8.98947C230.565 8.42674 230.389 7.92345 230.037 7.47785C229.685 7.03254 229.226 6.80988 228.658 6.80988Z" fill="black"/>
<path d="M57.5811 9.69868L56.58 10.6113C56.3066 10.4803 56.0062 10.3176 55.6876 10.135C55.3655 9.94742 55.0376 9.70418 54.6996 9.40354C54.443 9.17132 54.225 8.94489 54.0476 8.72891C53.8693 8.51553 53.709 8.29142 53.566 8.06645C53.4237 8.33781 53.2468 8.59265 53.0326 8.82864C52.8186 9.06492 52.558 9.32903 52.2469 9.62185C51.9889 9.86567 51.7216 10.0715 51.4488 10.2484C51.1725 10.4255 50.8704 10.6035 50.5405 10.7867L49.3657 9.9625C49.8925 9.69288 50.3677 9.39803 50.7866 9.07449C51.2096 8.75471 51.5676 8.39144 51.8628 7.98875C52.1965 7.51938 52.4278 7.03145 52.5539 6.52352C52.678 6.01471 52.7401 5.48678 52.7401 4.93855V3.34836H54.3534V4.93913C54.3534 5.35428 54.4204 5.87439 54.552 6.49191C54.6854 7.11118 54.9573 7.64607 55.3658 8.09863C55.7308 8.49407 56.101 8.81733 56.4724 9.06898C56.8447 9.32149 57.2158 9.5311 57.5811 9.69868ZM61.7251 7.76001H60.0332V12.4653H58.4865V2.81201H60.0332V6.58411H61.7251V7.76001Z" fill="black"/>
<path d="M70.4841 7.82495C70.097 7.86873 69.4995 7.92149 68.6811 7.98382C67.8632 8.04557 67.0216 8.08065 66.1478 8.08848L63.3623 8.09863V3.41504H69.3876V4.54368H64.9093V6.96825L66.8288 6.95839C67.3431 6.95027 67.9795 6.92215 68.7347 6.8746C69.492 6.8288 70.0733 6.77342 70.4841 6.71863V7.82495ZM73.2809 12.245H64.6313V8.96548H66.2012V11.1404H73.2809V12.245ZM74.5339 6.72501H72.8939V9.79812H71.348V2.81201H72.8939V5.56302H74.5339V6.72501Z" fill="black"/>
<path d="M56.1468 16.858H58.6688V14.9431H60.2158V20.1625H58.6688V17.9997H56.1468V19.9021H50.2673V15.2942H51.8135V16.5872H54.6024V15.2942H56.1468V16.858ZM60.1735 24.4819H51.6833V20.5988H53.2271V21.512H58.6271V20.5988H60.1735V24.4819ZM54.6024 18.8022V17.6828H51.8135V18.8022H54.6024ZM58.6271 23.4188V22.5749H53.2271V23.4188H58.6271Z" fill="black"/>
<path d="M66.0316 15.238C66.986 15.238 67.7676 15.4815 68.3863 15.966C69.0035 16.4548 69.3131 17.0361 69.3131 17.7139C69.3131 18.3969 69.0035 18.9776 68.3863 19.4595C67.7679 19.9407 66.986 20.1831 66.0316 20.1831C65.0836 20.1831 64.2982 19.9407 63.687 19.4595C63.075 18.9776 62.7668 18.3969 62.7668 17.7139C62.7668 17.0361 63.075 16.4545 63.687 15.966C64.2985 15.4815 65.0836 15.238 66.0316 15.238ZM66.0316 16.344C65.4894 16.344 65.0757 16.4823 64.7855 16.7485C64.4959 17.0236 64.3541 17.3454 64.3541 17.7142C64.3541 18.0821 64.4959 18.3998 64.7855 18.6697C65.0757 18.9405 65.4897 19.0748 66.0316 19.0748C66.5839 19.0748 67.0028 18.9402 67.2939 18.6697C67.5815 18.3998 67.7253 18.0818 67.7253 17.7142C67.7253 17.3454 67.5815 17.0236 67.2939 16.7485C67.0028 16.482 66.5839 16.344 66.0316 16.344ZM73.3528 24.3733H64.4863V21.281H66.0988V23.2635H73.3528V24.3733ZM73.0852 21.9182H71.5385V14.9429H73.0852V21.9182Z" fill="black"/>
<path d="M149.392 16.4302V24.8334H143.521V0.523926H147.203H149.392H151.96C155.063 0.523926 157.413 1.23045 159.009 2.64147C160.607 4.05423 161.405 5.99957 161.405 8.47661C161.405 10.9307 160.607 12.8694 159.009 14.2944C157.413 15.7176 155.063 16.4302 151.96 16.4302H149.392ZM149.392 11.5671H151.96C153.14 11.5671 154.068 11.3013 154.738 10.7684C155.409 10.2364 155.745 9.47247 155.745 8.47661C155.745 7.45785 155.41 6.68841 154.738 6.16714C154.068 5.64616 153.14 5.3864 151.96 5.3864H149.392V11.5671Z" fill="black"/>
<path d="M170.82 16.4302V24.8334H164.95V0.523926H168.632H170.82H173.84C176.943 0.523926 179.293 1.25886 180.891 2.72874C182.487 4.19861 183.287 6.11496 183.287 8.47632C183.287 10.1668 182.875 11.6367 182.054 12.8865C181.232 14.1369 180.023 15.0632 178.425 15.6648L184.745 24.8328H177.835L172.625 16.4296H170.82V16.4302ZM170.82 11.8451H173.39C174.57 11.8451 175.496 11.5674 176.167 11.0116C176.839 10.4559 177.176 9.68063 177.176 8.68477C177.176 7.66688 176.839 6.88497 176.167 6.3408C175.496 5.79663 174.57 5.52469 173.39 5.52469H170.82V11.8451Z" fill="black"/>
<path d="M83.9931 29.803H84.9678L82.9502 32.0371L85.0631 34.5733H84.0754L82.2217 32.3438V34.5733H81.396V29.803H82.2217V31.7921L83.9931 29.803Z" fill="black"/>
<path d="M85.1687 32.1874C85.1687 31.8334 85.2296 31.5049 85.3525 31.204C85.4746 30.9002 85.6482 30.6398 85.8738 30.4186C86.0982 30.2003 86.3617 30.0269 86.6606 29.9046C86.9618 29.782 87.2886 29.7202 87.642 29.7202C87.9977 29.7202 88.3247 29.782 88.6286 29.9046C88.9301 30.0272 89.193 30.2006 89.4189 30.4186C89.6433 30.6398 89.8172 30.9002 89.9401 31.204C90.0628 31.5046 90.1248 31.8334 90.1248 32.1874C90.1248 32.5431 90.0628 32.8719 89.9401 33.1743C89.8169 33.4749 89.6441 33.7382 89.4218 33.9634C89.1985 34.1887 88.9367 34.3641 88.6349 34.4885C88.3328 34.6152 88.0018 34.676 87.642 34.676C87.2831 34.676 86.9534 34.6149 86.6542 34.4885C86.3547 34.3641 86.0927 34.189 85.8706 33.9634C85.6473 33.7385 85.4746 33.4749 85.3525 33.1743C85.2296 32.8719 85.1687 32.5428 85.1687 32.1874ZM86.0196 32.1874C86.0196 32.515 86.0886 32.8078 86.2286 33.0644C86.3672 33.3207 86.5586 33.5216 86.8044 33.6671C87.0494 33.8124 87.3289 33.8851 87.642 33.8851C87.9603 33.8851 88.2412 33.8124 88.4848 33.6671C88.7274 33.5216 88.9179 33.3207 89.0576 33.0644C89.1965 32.8075 89.2655 32.5147 89.2655 32.1874C89.2655 31.8604 89.1965 31.569 89.0576 31.3119C88.9179 31.0556 88.7274 30.8535 88.4848 30.7082C88.2412 30.5642 87.9603 30.4908 87.642 30.4908C87.3286 30.4908 87.0494 30.5642 86.8044 30.7082C86.5583 30.8535 86.3672 31.0556 86.2286 31.3119C86.0889 31.569 86.0196 31.8604 86.0196 32.1874Z" fill="black"/>
<path d="M91.537 32.7679V34.5735H90.7322V29.803H91.2102H91.537H92.2047C92.5494 29.803 92.8512 29.863 93.1077 29.9868C93.3649 30.1083 93.5647 30.2816 93.7082 30.5037C93.8499 30.7267 93.9221 30.9873 93.9221 31.2891C93.9221 31.6329 93.8276 31.9263 93.64 32.167C93.4513 32.4076 93.1907 32.5786 92.8593 32.6781L94.208 34.5733H93.2347L92.0269 32.7677L91.537 32.7679ZM91.537 32.1069H92.1705C92.4491 32.1069 92.6705 32.0353 92.8381 31.8944C93.0074 31.7535 93.0909 31.5558 93.0909 31.3018C93.0909 31.0479 93.0074 30.8502 92.8381 30.7081C92.6705 30.5678 92.4491 30.4967 92.1705 30.4967H91.537V32.1069Z" fill="black"/>
<path d="M95.4053 32.3647V33.865H97.5191V34.5733H95.4053H95.1125H94.615V29.803H95.1125H95.4053H97.5191V30.5098H95.4053V31.6709H97.3817V32.365L95.4053 32.3647Z" fill="black"/>
<path d="M99.2731 33.3463L98.7283 34.5735H97.8142L100.152 29.5359L102.491 34.5735H101.577L101.032 33.3463H99.2731ZM99.5047 32.6658H100.801L100.152 31.151L99.5047 32.6658Z" fill="black"/>
<path d="M106.346 29.8032H107.135V34.8124L103.652 31.4186V34.5735H102.861V29.5637L106.346 32.9659V29.8032H106.346Z" fill="black"/>
<path d="M110.829 33.3463L110.285 34.5735H109.371L111.71 29.5359L114.048 34.5735H113.133L112.589 33.3463H110.829ZM111.062 32.6658H112.358L111.71 31.151L111.062 32.6658Z" fill="black"/>
<path d="M114.847 32.1874C114.847 32.5248 114.922 32.8194 115.072 33.0745C115.222 33.3288 115.42 33.5253 115.668 33.6636C115.917 33.8025 116.186 33.8723 116.477 33.8723C116.812 33.8723 117.104 33.808 117.352 33.6813C117.599 33.5534 117.805 33.3928 117.969 33.1974V34.1515C117.773 34.3142 117.559 34.44 117.325 34.5264C117.091 34.6119 116.799 34.6548 116.449 34.6548C116.099 34.6548 115.774 34.5954 115.474 34.4757C115.175 34.3553 114.911 34.1846 114.686 33.9671C114.462 33.7486 114.287 33.4882 114.162 33.1873C114.037 32.884 113.975 32.5524 113.975 32.1876C113.975 31.8247 114.037 31.493 114.162 31.1889C114.287 30.888 114.461 30.6285 114.686 30.4099C114.911 30.1922 115.175 30.0211 115.474 29.9019C115.774 29.7793 116.099 29.7205 116.449 29.7205C116.799 29.7205 117.091 29.7637 117.325 29.8501C117.559 29.9359 117.773 30.0614 117.969 30.2238V31.1799C117.805 30.9842 117.6 30.8236 117.352 30.6957C117.104 30.5682 116.812 30.5041 116.477 30.5041C116.186 30.5041 115.917 30.5731 115.668 30.7137C115.42 30.852 115.222 31.0471 115.072 31.2988C114.922 31.551 114.847 31.8473 114.847 32.1874Z" fill="black"/>
<path d="M119.723 33.3463L119.178 34.5735H118.264L120.603 29.5359L122.941 34.5735H122.027L121.482 33.3463H119.723ZM119.955 32.6658H121.251L120.603 31.151L119.955 32.6658Z" fill="black"/>
<path d="M123.81 34.5733H123.312V29.803H123.81H124.13H124.852C125.339 29.803 125.766 29.9015 126.134 30.0981C126.502 30.2961 126.79 30.573 126.997 30.9305C127.203 31.2873 127.307 31.7066 127.307 32.1872C127.307 32.6682 127.203 33.0898 126.997 33.4461C126.79 33.8024 126.502 34.0789 126.134 34.2773C125.766 34.4756 125.339 34.5733 124.852 34.5733H124.13H123.81ZM124.13 33.8169H124.833C125.145 33.8169 125.426 33.7557 125.674 33.6328C125.922 33.5116 126.117 33.3284 126.26 33.0871C126.403 32.8465 126.475 32.5467 126.475 32.1872C126.475 31.8289 126.403 31.5297 126.26 31.2891C126.117 31.0479 125.922 30.8646 125.674 30.7432C125.426 30.6194 125.145 30.5579 124.833 30.5579H124.13V33.8169Z" fill="black"/>
<path d="M128.706 32.3647V33.865H130.82V34.5733H128.706H128.414H127.916V29.803H128.414H128.706H130.82V30.5098H128.706V31.6709H130.683V32.365L128.706 32.3647Z" fill="black"/>
<path d="M132.521 31.6711L132.193 34.5737H131.362L132.016 29.564L133.974 32.8003L135.936 29.564L136.592 34.5737H135.752L135.425 31.6772L133.974 34.1322L132.521 31.6711Z" fill="black"/>
<path d="M137.199 29.803H138.017V34.5733H137.199V29.803Z" fill="black"/>
<path d="M139.502 32.1874C139.502 32.5248 139.576 32.8194 139.726 33.0745C139.876 33.3288 140.074 33.5253 140.322 33.6636C140.571 33.8025 140.84 33.8723 141.131 33.8723C141.466 33.8723 141.758 33.808 142.007 33.6813C142.254 33.5534 142.46 33.3928 142.623 33.1974V34.1515C142.427 34.3142 142.213 34.44 141.979 34.5264C141.746 34.6119 141.453 34.6548 141.103 34.6548C140.752 34.6548 140.429 34.5954 140.128 34.4757C139.829 34.3553 139.564 34.1846 139.34 33.9671C139.116 33.7486 138.941 33.4882 138.817 33.1873C138.691 32.884 138.629 32.5524 138.629 32.1876C138.629 31.8247 138.691 31.493 138.817 31.1889C138.941 30.888 139.116 30.6285 139.34 30.4099C139.564 30.1922 139.829 30.0211 140.128 29.9019C140.429 29.7793 140.752 29.7205 141.103 29.7205C141.453 29.7205 141.746 29.7637 141.979 29.8501C142.213 29.9359 142.427 30.0614 142.623 30.2238V31.1799C142.46 30.9842 142.254 30.8236 142.007 30.6957C141.759 30.5682 141.466 30.5041 141.131 30.5041C140.84 30.5041 140.571 30.5731 140.322 30.7137C140.075 30.852 139.876 31.0471 139.726 31.2988C139.576 31.551 139.502 31.8473 139.502 32.1874Z" fill="black"/>
<path d="M145.649 32.9659C145.799 33.2741 145.97 33.5147 146.161 33.688C146.352 33.8611 146.586 33.9478 146.863 33.9478C147.102 33.9478 147.284 33.8907 147.405 33.7753C147.525 33.6625 147.585 33.5034 147.585 33.2993C147.585 33.1213 147.534 32.976 147.432 32.8632C147.329 32.7484 147.197 32.6545 147.037 32.5803C146.876 32.5055 146.704 32.433 146.522 32.3646C146.404 32.3196 146.273 32.2611 146.131 32.1921C145.987 32.1205 145.852 32.0309 145.724 31.9216C145.597 31.8117 145.492 31.6795 145.411 31.5227C145.329 31.3667 145.287 31.18 145.287 30.9669C145.287 30.7132 145.354 30.492 145.486 30.3068C145.619 30.1201 145.796 29.9754 146.021 29.8725C146.246 29.7698 146.503 29.72 146.789 29.72C147.08 29.72 147.331 29.773 147.545 29.8768C147.757 29.9797 147.934 30.1122 148.069 30.2691C148.206 30.4245 148.306 30.5857 148.37 30.7492L147.742 31.1382C147.641 30.946 147.521 30.7851 147.377 30.6471C147.235 30.5097 147.047 30.443 146.815 30.443C146.606 30.443 146.44 30.4946 146.315 30.597C146.189 30.6979 146.127 30.8361 146.127 31.0095C146.127 31.1449 146.178 31.2609 146.28 31.356C146.383 31.4516 146.517 31.5351 146.685 31.6082C146.854 31.6807 147.033 31.7534 147.223 31.8277C147.415 31.8943 147.602 31.9871 147.787 32.1025C147.971 32.2182 148.123 32.371 148.247 32.5603C148.37 32.7476 148.43 32.983 148.43 33.2648C148.43 33.7011 148.292 34.0444 148.014 34.2969C147.738 34.5506 147.344 34.6761 146.836 34.6761C146.427 34.6761 146.061 34.5552 145.742 34.314C145.42 34.0733 145.187 33.7576 145.036 33.3668L145.649 32.9659Z" fill="black"/>
<path d="M148.81 32.1874C148.81 31.8334 148.871 31.5049 148.994 31.204C149.115 30.9002 149.29 30.6398 149.515 30.4186C149.739 30.2003 150.003 30.0269 150.302 29.9046C150.602 29.782 150.93 29.7202 151.283 29.7202C151.638 29.7202 151.966 29.782 152.269 29.9046C152.571 30.0272 152.834 30.2006 153.059 30.4186C153.283 30.6398 153.458 30.9002 153.58 31.204C153.705 31.5046 153.765 31.8334 153.765 32.1874C153.765 32.5431 153.705 32.8719 153.58 33.1743C153.458 33.4749 153.286 33.7382 153.064 33.9634C152.84 34.1887 152.577 34.3641 152.276 34.4885C151.975 34.6152 151.643 34.676 151.283 34.676C150.925 34.676 150.594 34.6149 150.295 34.4885C149.996 34.3641 149.733 34.189 149.513 33.9634C149.289 33.7385 149.115 33.4749 148.994 33.1743C148.871 32.8719 148.81 32.5428 148.81 32.1874ZM149.661 32.1874C149.661 32.515 149.73 32.8078 149.87 33.0644C150.008 33.3207 150.2 33.5216 150.445 33.6671C150.69 33.8124 150.969 33.8851 151.283 33.8851C151.601 33.8851 151.883 33.8124 152.126 33.6671C152.368 33.5216 152.558 33.3207 152.698 33.0644C152.837 32.8075 152.906 32.5147 152.906 32.1874C152.906 31.8604 152.837 31.569 152.698 31.3119C152.559 31.0556 152.368 30.8535 152.126 30.7082C151.883 30.5642 151.601 30.4908 151.283 30.4908C150.969 30.4908 150.69 30.5642 150.445 30.7082C150.2 30.8535 150.007 31.0556 149.87 31.3119C149.73 31.569 149.661 31.8604 149.661 32.1874Z" fill="black"/>
<path d="M154.973 32.1874C154.973 32.5248 155.047 32.8194 155.197 33.0745C155.349 33.3288 155.546 33.5253 155.793 33.6636C156.042 33.8025 156.311 33.8723 156.603 33.8723C156.939 33.8723 157.23 33.808 157.479 33.6813C157.725 33.5534 157.931 33.3928 158.095 33.1974V34.1515C157.899 34.3142 157.685 34.44 157.451 34.5264C157.218 34.6119 156.924 34.6548 156.574 34.6548C156.225 34.6548 155.901 34.5954 155.6 34.4757C155.3 34.3553 155.038 34.1846 154.812 33.9671C154.589 33.7486 154.414 33.4882 154.287 33.1873C154.163 32.884 154.1 32.5524 154.1 32.1876C154.1 31.8247 154.163 31.493 154.287 31.1889C154.414 30.888 154.588 30.6285 154.812 30.4099C155.037 30.1922 155.3 30.0211 155.6 29.9019C155.901 29.7793 156.225 29.7205 156.574 29.7205C156.924 29.7205 157.218 29.7637 157.451 29.8501C157.685 29.9359 157.899 30.0614 158.095 30.2238V31.1799C157.931 30.9842 157.725 30.8236 157.479 30.6957C157.231 30.5682 156.939 30.5041 156.603 30.5041C156.311 30.5041 156.042 30.5731 155.793 30.7137C155.546 30.852 155.349 31.0471 155.197 31.2988C155.047 31.551 154.973 31.8473 154.973 32.1874Z" fill="black"/>
<path d="M158.91 29.803H159.727V34.5733H158.91V29.803Z" fill="black"/>
<path d="M161.402 32.3647V33.865H163.515V34.5733H161.402H161.108H160.612V29.803H161.108H161.402H163.515V30.5098H161.402V31.6709H163.38V32.365L161.402 32.3647Z" fill="black"/>
<path d="M163.851 30.5455V29.803H167.177V30.5455H165.918V34.5735H165.106V30.5455H163.851Z" fill="black"/>
<path d="M170.322 29.803H171.244L169.62 32.5633V34.5735H168.802V32.5633L167.179 29.803H168.106L169.211 31.8472L170.322 29.803Z" fill="black"/>
<path d="M174.164 32.4203V34.5733H173.374V29.803H173.87H174.164H176.005V30.5252H174.164V31.7179H175.937V32.4203H174.164Z" fill="black"/>
<path d="M176.479 32.1874C176.479 31.8334 176.539 31.5049 176.663 31.204C176.784 30.9002 176.959 30.6398 177.184 30.4186C177.408 30.2003 177.671 30.0269 177.97 29.9046C178.271 29.782 178.599 29.7202 178.952 29.7202C179.307 29.7202 179.634 29.782 179.938 29.9046C180.24 30.0272 180.503 30.2006 180.728 30.4186C180.952 30.6398 181.126 30.9002 181.249 31.204C181.374 31.5046 181.434 31.8334 181.434 32.1874C181.434 32.5431 181.374 32.8719 181.249 33.1743C181.126 33.4749 180.954 33.7382 180.733 33.9634C180.508 34.1887 180.246 34.3641 179.945 34.4885C179.642 34.6152 179.312 34.676 178.952 34.676C178.593 34.676 178.263 34.6149 177.965 34.4885C177.665 34.3641 177.403 34.189 177.18 33.9634C176.957 33.7385 176.784 33.4749 176.663 33.1743C176.539 32.8719 176.479 32.5428 176.479 32.1874ZM177.329 32.1874C177.329 32.515 177.398 32.8078 177.539 33.0644C177.677 33.3207 177.868 33.5216 178.114 33.6671C178.359 33.8124 178.638 33.8851 178.951 33.8851C179.27 33.8851 179.55 33.8124 179.794 33.6671C180.037 33.5216 180.227 33.3207 180.367 33.0644C180.505 32.8075 180.575 32.5147 180.575 32.1874C180.575 31.8604 180.506 31.569 180.367 31.3119C180.228 31.0556 180.037 30.8535 179.794 30.7082C179.55 30.5642 179.27 30.4908 178.951 30.4908C178.638 30.4908 178.359 30.5642 178.114 30.7082C177.868 30.8535 177.676 31.0556 177.539 31.3119C177.398 31.569 177.329 31.8604 177.329 32.1874Z" fill="black"/>
<path d="M182.847 32.7679V34.5735H182.041V29.803H182.52H182.847H183.514C183.858 29.803 184.16 29.863 184.417 29.9868C184.674 30.1083 184.873 30.2816 185.018 30.5037C185.16 30.7267 185.232 30.9873 185.232 31.2891C185.232 31.6329 185.136 31.9263 184.949 32.167C184.76 32.4076 184.5 32.5786 184.168 32.6781L185.517 34.5733H184.544L183.336 32.7677L182.847 32.7679ZM182.847 32.1069H183.48C183.758 32.1069 183.98 32.0353 184.148 31.8944C184.316 31.7535 184.4 31.5558 184.4 31.3018C184.4 31.0479 184.316 30.8502 184.148 30.7081C183.98 30.5678 183.758 30.4967 183.48 30.4967H182.847V32.1069Z" fill="black"/>
<path d="M188.6 32.7679V34.5735H187.797V29.803H188.273H188.601H189.235C189.581 29.803 189.882 29.8624 190.139 29.9821C190.395 30.1025 190.595 30.2747 190.737 30.4967C190.876 30.7206 190.948 30.9838 190.948 31.2888C190.948 31.5938 190.877 31.8547 190.737 32.0753C190.596 32.2948 190.395 32.467 190.139 32.5856C189.882 32.7065 189.581 32.7677 189.235 32.7677L188.6 32.7679ZM188.6 32.0588H189.234C189.513 32.0588 189.735 31.993 189.903 31.8643C190.071 31.7347 190.155 31.5425 190.155 31.2891C190.155 31.0328 190.071 30.8406 189.903 30.7081C189.735 30.5768 189.513 30.5095 189.234 30.5095H188.6V32.0588Z" fill="black"/>
<path d="M191.521 29.803H192.333V32.972C192.333 33.2623 192.413 33.4994 192.571 33.6809C192.729 33.8624 192.961 33.9543 193.266 33.9543C193.575 33.9543 193.807 33.8624 193.964 33.6809C194.121 33.4994 194.2 33.2623 194.2 32.972V29.803H195.011V33.006C195.011 33.355 194.937 33.6583 194.789 33.9091C194.641 34.1616 194.437 34.3552 194.174 34.4918C193.909 34.6286 193.606 34.6959 193.266 34.6959C192.925 34.6959 192.623 34.6286 192.363 34.4918C192.101 34.3552 191.896 34.1616 191.746 33.9091C191.595 33.6583 191.521 33.355 191.521 33.006V29.803H191.521Z" fill="black"/>
<path d="M198.081 31.9901C198.378 32.0684 198.62 32.2038 198.812 32.3986C199.002 32.5943 199.097 32.8604 199.097 33.197C199.097 33.5116 199.025 33.7696 198.879 33.9749C198.734 34.179 198.533 34.3294 198.273 34.4271C198.014 34.5251 197.716 34.5735 197.38 34.5735H195.86V29.803H197.298C197.747 29.803 198.115 29.9015 198.399 30.0981C198.683 30.2961 198.825 30.5971 198.825 31.0029C198.825 31.2381 198.759 31.4401 198.624 31.6083C198.49 31.7767 198.31 31.9046 198.081 31.9901ZM196.664 31.7182H197.243C197.467 31.7182 197.648 31.6625 197.789 31.5512C197.93 31.439 198 31.2853 198 31.0899C198 30.8905 197.93 30.7359 197.789 30.6298C197.648 30.5228 197.467 30.4709 197.243 30.4709H196.664V31.7182ZM196.664 32.3438V33.9056H197.333C197.605 33.9056 197.829 33.8392 198.007 33.7081C198.184 33.5762 198.273 33.3779 198.273 33.1144C198.273 32.8561 198.184 32.6624 198.007 32.5357C197.829 32.4079 197.605 32.3438 197.333 32.3438H196.664Z" fill="black"/>
<path d="M199.776 29.803H200.58V33.8519H202.475V34.5733H199.775L199.776 29.803Z" fill="black"/>
<path d="M202.88 29.803H203.697V34.5733H202.88V29.803Z" fill="black"/>
<path d="M205.182 32.1874C205.182 32.5248 205.257 32.8194 205.407 33.0745C205.558 33.3288 205.756 33.5253 206.004 33.6636C206.252 33.8025 206.52 33.8723 206.812 33.8723C207.148 33.8723 207.44 33.808 207.688 33.6813C207.935 33.5534 208.14 33.3928 208.304 33.1974V34.1515C208.109 34.3142 207.895 34.44 207.661 34.5264C207.427 34.6119 207.133 34.6548 206.783 34.6548C206.434 34.6548 206.11 34.5954 205.81 34.4757C205.509 34.3553 205.247 34.1846 205.021 33.9671C204.797 33.7486 204.623 33.4882 204.498 33.1873C204.372 32.884 204.31 32.5524 204.31 32.1876C204.31 31.8247 204.372 31.493 204.498 31.1889C204.623 30.888 204.797 30.6285 205.021 30.4099C205.246 30.1922 205.509 30.0211 205.81 29.9019C206.11 29.7793 206.434 29.7205 206.783 29.7205C207.133 29.7205 207.427 29.7637 207.661 29.8501C207.895 29.9359 208.109 30.0614 208.304 30.2238V31.1799C208.14 30.9842 207.935 30.8236 207.688 30.6957C207.44 30.5682 207.148 30.5041 206.812 30.5041C206.52 30.5041 206.252 30.5731 206.004 30.7137C205.756 30.852 205.558 31.0471 205.407 31.2988C205.257 31.551 205.182 31.8473 205.182 32.1874Z" fill="black"/>
<path d="M211.795 32.7679V34.5735H210.991V29.803H211.467H211.795H212.465C212.809 29.803 213.11 29.863 213.368 29.9868C213.623 30.1083 213.824 30.2816 213.967 30.5037C214.11 30.7267 214.18 30.9873 214.18 31.2891C214.18 31.6329 214.086 31.9263 213.899 32.167C213.71 32.4076 213.45 32.5786 213.119 32.6781L214.468 34.5733H213.493L212.287 32.7677L211.795 32.7679ZM211.795 32.1069H212.429C212.708 32.1069 212.93 32.0353 213.098 31.8944C213.266 31.7535 213.351 31.5558 213.351 31.3018C213.351 31.0479 213.266 30.8502 213.098 30.7081C212.93 30.5678 212.708 30.4967 212.429 30.4967H211.795V32.1069Z" fill="black"/>
<path d="M215.663 32.3647V33.865H217.777V34.5733H215.663H215.37H214.873V29.803H215.37H215.663H217.777V30.5098H215.663V31.6709H217.639V32.365L215.663 32.3647Z" fill="black"/>
<path d="M218.591 29.803H219.395V33.8519H221.291V34.5733H218.591V29.803Z" fill="black"/>
<path d="M222.977 33.3463L222.432 34.5735H221.518L223.856 29.5359L226.194 34.5735H225.28L224.736 33.3463H222.977ZM223.209 32.6658H224.504L223.856 31.151L223.209 32.6658Z" fill="black"/>
<path d="M226.087 30.5455V29.803H229.415V30.5455H228.155V34.5735H227.342V30.5455H226.087Z" fill="black"/>
<path d="M229.822 29.803H230.64V34.5733H229.822V29.803Z" fill="black"/>
<path d="M231.252 32.1874C231.252 31.8334 231.312 31.5049 231.436 31.204C231.558 30.9002 231.732 30.6398 231.956 30.4186C232.181 30.2003 232.445 30.0269 232.744 29.9046C233.045 29.782 233.372 29.7202 233.725 29.7202C234.08 29.7202 234.408 29.782 234.711 29.9046C235.014 30.0272 235.276 30.2006 235.501 30.4186C235.726 30.6398 235.9 30.9002 236.023 31.204C236.147 31.5046 236.208 31.8334 236.208 32.1874C236.208 32.5431 236.147 32.8719 236.023 33.1743C235.9 33.4749 235.727 33.7382 235.506 33.9634C235.282 34.1887 235.02 34.3641 234.719 34.4885C234.415 34.6152 234.085 34.676 233.725 34.676C233.366 34.676 233.037 34.6149 232.738 34.4885C232.439 34.3641 232.176 34.189 231.953 33.9634C231.73 33.7385 231.558 33.4749 231.436 33.1743C231.312 32.8719 231.252 32.5428 231.252 32.1874ZM232.103 32.1874C232.103 32.515 232.172 32.8078 232.312 33.0644C232.451 33.3207 232.641 33.5216 232.888 33.6671C233.132 33.8124 233.412 33.8851 233.725 33.8851C234.043 33.8851 234.324 33.8124 234.568 33.6671C234.811 33.5216 235.001 33.3207 235.141 33.0644C235.279 32.8075 235.349 32.5147 235.349 32.1874C235.349 31.8604 235.279 31.569 235.141 31.3119C235.001 31.0556 234.811 30.8535 234.568 30.7082C234.324 30.5642 234.043 30.4908 233.725 30.4908C233.412 30.4908 233.132 30.5642 232.888 30.7082C232.641 30.8535 232.45 31.0556 232.312 31.3119C232.172 31.569 232.103 31.8604 232.103 32.1874Z" fill="black"/>
<path d="M240.298 29.8032H241.089V34.8124L237.605 31.4186V34.5735H236.814V29.5637L240.298 32.9659V29.8032Z" fill="black"/>
<path d="M242.311 32.9659C242.461 33.2741 242.632 33.5147 242.823 33.688C243.013 33.8611 243.248 33.9478 243.524 33.9478C243.765 33.9478 243.947 33.8907 244.067 33.7753C244.188 33.6625 244.246 33.5034 244.246 33.2993C244.246 33.1213 244.196 32.976 244.094 32.8632C243.992 32.7484 243.859 32.6545 243.699 32.5803C243.538 32.5055 243.366 32.433 243.184 32.3646C243.067 32.3196 242.936 32.2611 242.791 32.1921C242.649 32.1205 242.515 32.0309 242.387 31.9216C242.26 31.8117 242.155 31.6795 242.074 31.5227C241.991 31.3667 241.95 31.18 241.95 30.9669C241.95 30.7132 242.016 30.492 242.148 30.3068C242.28 30.1201 242.459 29.9754 242.684 29.8725C242.909 29.7698 243.165 29.72 243.451 29.72C243.743 29.72 243.994 29.773 244.208 29.8768C244.421 29.9797 244.596 30.1122 244.731 30.2691C244.868 30.4245 244.969 30.5857 245.032 30.7492L244.405 31.1382C244.304 30.946 244.183 30.7851 244.04 30.6471C243.897 30.5097 243.71 30.443 243.477 30.443C243.268 30.443 243.102 30.4946 242.977 30.597C242.852 30.6979 242.789 30.8361 242.789 31.0095C242.789 31.1449 242.841 31.2609 242.943 31.356C243.046 31.4516 243.18 31.5351 243.348 31.6082C243.516 31.6807 243.695 31.7534 243.887 31.8277C244.077 31.8943 244.264 31.9871 244.449 32.1025C244.633 32.2182 244.785 32.371 244.909 32.5603C245.032 32.7476 245.093 32.983 245.093 33.2648C245.093 33.7011 244.955 34.0444 244.677 34.2969C244.4 34.5506 244.006 34.6761 243.498 34.6761C243.088 34.6761 242.724 34.5552 242.404 34.314C242.084 34.0733 241.849 33.7576 241.699 33.3668L242.311 32.9659Z" fill="black"/>
<path d="M19.1194 0.426514H32.2659C40.0296 0.426514 44.3603 5.50294 44.3603 11.8741C44.3603 16.5516 42.0697 20.5336 37.7395 22.3244L38.7684 24.108L45.2049 35.266H37.7395H25.9933H19.1194V0.426514Z" fill="#0369A1"/>
<path d="M37.7216 11.8419C37.7216 18.2125 33.3914 23.2892 25.6266 23.2892L19.1145 23.3104V35.254L12.7361 35.2332V13.1329L19.1145 13.1392V16.9696L25.4773 16.9684C28.8116 16.9684 30.9025 14.8283 30.9025 11.8419C30.9025 8.85544 28.8119 6.76543 25.4773 6.76543H12.7361V0.394531H25.6266C33.3914 0.394531 37.7216 5.47096 37.7216 11.8419Z" fill="#0891B2"/>
<path d="M12.7378 6.76782H6.36719V13.1384H12.7378V6.76782Z" fill="#EF4444"/>
<path d="M6.38082 0.395508H0.010498V6.76612H6.38082V0.395508Z" fill="#0369A1"/>
<path d="M112.759 0.930664H120.744" stroke="black" stroke-width="0.072479" stroke-miterlimit="10"/>
<path d="M116.895 -2.20654V4.49573" stroke="black" stroke-width="0.072479" stroke-miterlimit="10"/>
</g>
</g>
</g>
<defs>
<clipPath id="clip0_277_579">
<rect width="245" height="34.5" fill="white" transform="translate(0 0.149902)"/>
</clipPath>
<clipPath id="clip1_277_579">
<rect width="245" height="34.5" fill="white" transform="translate(0 0.149902)"/>
</clipPath>
<clipPath id="clip2_277_579">
<rect width="244.979" height="34.5" fill="white" transform="translate(0.010498 0.149902)"/>
</clipPath>
</defs>
</svg>
