<svg width="245" height="36" viewBox="0 0 245 36" fill="none" xmlns="http://www.w3.org/2000/svg">
<g clip-path="url(#clip0_232_466)">
<g clip-path="url(#clip1_232_466)">
<g clip-path="url(#clip2_232_466)">
<path d="M79.3457 6.57963V3.58335H86.3257V2.60256C86.3257 1.82182 85.8833 1.15849 84.9979 0.614319H91.4329V3.58335H98.4483V6.57963H95.0081C95.3494 6.99711 95.6045 7.45112 95.7747 7.94195C95.9451 8.43132 96.0301 8.94071 96.0301 9.46719C96.0301 11.0107 95.332 12.3408 93.9366 13.4588C92.5398 14.5744 90.8551 15.133 88.8796 15.133C86.9047 15.133 85.2191 14.5744 83.824 13.4588C82.4272 12.3411 81.7288 11.0107 81.7288 9.46719C81.7288 8.94071 81.8138 8.43132 81.9842 7.94195C82.1541 7.45112 82.3977 6.99711 82.7171 6.57963H79.3457ZM91.2978 17.0128V22.1336C91.2978 22.2606 91.343 22.3615 91.4329 22.4328C91.5239 22.5059 91.6379 22.5415 91.7738 22.5415H105.734V25.5396H88.9819C88.0959 25.5396 87.4376 25.3624 87.0067 25.0076C86.5756 24.6544 86.3605 24.0958 86.3605 23.3321V19.4922C86.3605 18.5097 85.7123 17.6849 84.4192 17.0128H91.2978ZM86.6664 9.46719C86.6664 10.1752 86.8884 10.8107 87.33 11.3737C87.7733 11.9361 88.3012 12.2182 88.9144 12.2182C89.5276 12.2182 90.0538 11.941 90.4967 11.3873C90.9397 10.8336 91.1604 10.2114 91.1604 9.5217C91.1604 8.81314 90.9447 8.17823 90.5138 7.61376C90.0836 7.05161 89.5603 6.77039 88.9471 6.77039C88.3357 6.77039 87.8008 7.04697 87.3471 7.60042C86.8937 8.15561 86.6664 8.77632 86.6664 9.46719ZM105.429 10.4199V18.7286H100.56V3.55581C100.56 2.44833 99.9135 1.51277 98.619 0.75H105.429V7.2879H109.651V10.4199H105.429Z" fill="black"/>
<path d="M135.631 9.58954H139.48V12.5861H127.903V16.1271H135.768C135.858 16.1271 135.933 16.1509 135.99 16.1959C136.045 16.2408 136.075 16.3092 136.075 16.3991V25.4708H131.069V19.3423C131.069 19.2516 131.04 19.1837 130.984 19.1373C130.927 19.0918 130.842 19.0698 130.729 19.0698H114.417V16.1271H122.59V12.5861H110.979V9.58954H130.762C131.103 9.09958 131.318 8.54555 131.41 7.92832C131.501 7.31022 131.546 6.5115 131.546 5.5313V4.74069C131.546 4.54065 131.505 4.40555 131.427 4.3322C131.347 4.25943 131.171 4.22348 130.9 4.22348H114.009V1.22662H136.177C136.29 1.22662 136.375 1.24982 136.432 1.29446C136.488 1.34056 136.518 1.41768 136.518 1.52582V5.8302C136.518 6.88375 136.444 7.67378 136.296 8.19997C136.148 8.72762 135.927 9.19004 135.631 9.58954Z" fill="black"/>
<path d="M185.925 6.34135V3.34536H192.905V2.50112C192.905 1.71951 192.463 1.05589 191.577 0.511719H198.013V3.34536H205.027V6.34135H201.622C201.917 6.74085 202.133 7.15862 202.269 7.59437C202.405 8.03011 202.474 8.48383 202.474 8.95639C202.474 10.4819 201.781 11.7894 200.396 12.879C199.011 13.969 197.366 14.5141 195.459 14.5141C193.529 14.5141 191.879 13.969 190.504 12.879C189.131 11.7897 188.444 10.4819 188.444 8.95639C188.444 8.48412 188.518 8.0304 188.666 7.59437C188.814 7.15862 189.011 6.74085 189.262 6.34135H185.925ZM211.667 16.4751C211.758 16.4751 211.838 16.4971 211.905 16.5429C211.973 16.5893 212.008 16.6563 212.008 16.7476V25.9811H206.968V19.6888C206.968 19.5983 206.939 19.5308 206.884 19.485C206.826 19.44 206.741 19.4166 206.628 19.4166H190.794V16.4751H211.667ZM193.383 8.95639C193.383 9.62842 193.58 10.2233 193.978 10.7405C194.374 11.2583 194.88 11.5169 195.494 11.5169C196.082 11.5169 196.583 11.2673 196.991 10.7681C197.4 10.268 197.605 9.68321 197.605 9.0109C197.605 8.3209 197.405 7.72106 197.008 7.21284C196.611 6.70432 196.117 6.45065 195.526 6.45065C194.96 6.45065 194.459 6.69939 194.029 7.19892C193.598 7.6996 193.383 8.28436 193.383 8.95639ZM212.007 5.82327H216.23V8.95639H212.007V15.3847H207.139V3.7266C207.139 2.61825 206.492 1.68356 205.198 0.9205H212.007V5.82327Z" fill="black"/>
<path d="M239.315 3.21576C239.315 2.10742 238.669 1.17244 237.376 0.409668H244.118V25.4706H239.316V19.5314C238.771 19.6778 238.113 19.7729 237.341 19.8178C236.57 19.8645 235.615 19.8874 234.481 19.8874H218.24V16.9717H226.582V14.5205C225.287 14.1757 224.219 13.5574 223.38 12.6679C222.541 11.7781 222.12 10.7518 222.12 9.58928C222.12 9.11729 222.188 8.67256 222.325 8.25508C222.461 7.8376 222.666 7.44651 222.936 7.08324H219.6V4.2238H226.241V2.77973C226.241 1.8894 225.763 1.14489 224.81 0.545349H231.109V4.2238H237.715V7.08353H234.378C234.628 7.44651 234.826 7.84224 234.973 8.269C235.122 8.69576 235.194 9.13643 235.194 9.58957C235.194 10.6614 234.821 11.6245 234.072 12.4771C233.322 13.3306 232.37 13.9569 231.212 14.3569V16.9717H235.741C236.535 16.9717 237.222 16.9404 237.802 16.8763C238.379 16.8125 238.885 16.718 239.315 16.5902V3.21576ZM228.658 7.40998C228.113 7.40998 227.659 7.63263 227.296 8.07795C226.932 8.52355 226.753 9.02655 226.753 9.58957C226.753 10.1526 226.932 10.657 227.296 11.1015C227.659 11.5468 228.113 11.7692 228.658 11.7692C229.226 11.7692 229.685 11.5468 230.037 11.1015C230.389 10.657 230.565 10.1526 230.565 9.58957C230.565 9.02684 230.389 8.52355 230.037 8.07795C229.685 7.63263 229.226 7.40998 228.658 7.40998Z" fill="black"/>
<path d="M57.5812 10.2987L56.5801 11.2113C56.3067 11.0803 56.0064 10.9176 55.6878 10.735C55.3657 10.5474 55.0378 10.3042 54.6997 10.0035C54.4431 9.77129 54.2251 9.54487 54.0477 9.32888C53.8694 9.1155 53.7091 8.8914 53.5661 8.66642C53.4238 8.93778 53.2469 9.19262 53.0327 9.42861C52.8187 9.66489 52.5581 9.92901 52.247 10.2218C51.989 10.4656 51.7217 10.6715 51.4489 10.8483C51.1726 11.0255 50.8705 11.2035 50.5406 11.3867L49.3658 10.5625C49.8926 10.2929 50.3678 9.99801 50.7867 9.67446C51.2097 9.35468 51.5678 8.99142 51.8629 8.58873C52.1966 8.11935 52.4279 7.63142 52.554 7.12349C52.6781 6.61469 52.7402 6.08675 52.7402 5.53852V3.94833H54.3536V5.5391C54.3536 5.95426 54.4205 6.47437 54.5521 7.09189C54.6855 7.71115 54.9575 8.24605 55.3659 8.6986C55.7309 9.09405 56.1012 9.41731 56.4726 9.66895C56.8448 9.92147 57.2159 10.1311 57.5812 10.2987ZM61.7253 8.35998H60.0333V13.0653H58.4866V3.41199H60.0333V7.18408H61.7253V8.35998Z" fill="black"/>
<path d="M70.4841 8.42493C70.097 8.4687 69.4995 8.52147 68.6811 8.5838C67.8632 8.64555 67.0216 8.68063 66.1478 8.68846L63.3623 8.6986V4.01501H69.3876V5.14366H64.9093V7.56822L66.8288 7.55837C67.3431 7.55025 67.9795 7.52213 68.7347 7.47458C69.492 7.42877 70.0733 7.3734 70.4841 7.31861V8.42493ZM73.2809 12.845H64.6313V9.56545H66.2012V11.7404H73.2809V12.845ZM74.5339 7.32498H72.8939V10.3981H71.348V3.41199H72.8939V6.163H74.5339V7.32498Z" fill="black"/>
<path d="M56.147 17.4582H58.6689V15.5433H60.2159V20.7626H58.6689V18.5999H56.147V20.5023H50.2675V15.8944H51.8136V17.1874H54.6026V15.8944H56.147V17.4582ZM60.1736 25.0821H51.6834V21.199H53.2272V22.1122H58.6272V21.199H60.1736V25.0821ZM54.6026 19.4023V18.283H51.8136V19.4023H54.6026ZM58.6272 24.019V23.175H53.2272V24.019H58.6272Z" fill="black"/>
<path d="M66.0316 15.8381C66.986 15.8381 67.7676 16.0816 68.3863 16.5661C69.0035 17.0549 69.3131 17.6362 69.3131 18.314C69.3131 18.997 69.0035 19.5777 68.3863 20.0596C67.7679 20.5408 66.986 20.7832 66.0316 20.7832C65.0836 20.7832 64.2982 20.5408 63.687 20.0596C63.075 19.5777 62.7668 18.997 62.7668 18.314C62.7668 17.6362 63.075 17.0546 63.687 16.5661C64.2985 16.0816 65.0836 15.8381 66.0316 15.8381ZM66.0316 16.9441C65.4894 16.9441 65.0757 17.0824 64.7855 17.3486C64.4959 17.6237 64.3541 17.9455 64.3541 18.3143C64.3541 18.6822 64.4959 18.9999 64.7855 19.2698C65.0757 19.5406 65.4897 19.6749 66.0316 19.6749C66.5839 19.6749 67.0028 19.5403 67.2939 19.2698C67.5815 18.9999 67.7253 18.6819 67.7253 18.3143C67.7253 17.9455 67.5815 17.6237 67.2939 17.3486C67.0028 17.0821 66.5839 16.9441 66.0316 16.9441ZM73.3528 24.9734H64.4863V21.8811H66.0988V23.8636H73.3528V24.9734ZM73.0852 22.5183H71.5385V15.543H73.0852V22.5183Z" fill="black"/>
<path d="M149.391 17.0302V25.4334H143.521V1.12396H147.203H149.391H151.96C155.063 1.12396 157.413 1.83049 159.009 3.24151C160.607 4.65427 161.405 6.59961 161.405 9.07665C161.405 11.5308 160.607 13.4695 159.009 14.8944C157.413 16.3176 155.063 17.0302 151.96 17.0302H149.391ZM149.391 12.1672H151.96C153.14 12.1672 154.068 11.9013 154.738 11.3684C155.409 10.8364 155.745 10.0725 155.745 9.07665C155.745 8.05788 155.41 7.28845 154.738 6.76718C154.067 6.2462 153.14 5.98643 151.96 5.98643H149.391V12.1672Z" fill="black"/>
<path d="M170.82 17.0302V25.4334H164.95V1.12396H168.632H170.82H173.84C176.943 1.12396 179.293 1.8589 180.89 3.32877C182.486 4.79865 183.287 6.71499 183.287 9.07636C183.287 10.7669 182.875 12.2367 182.054 13.4866C181.231 14.737 180.022 15.6632 178.425 16.2648L184.745 25.4328H177.835L172.624 17.0296H170.82V17.0302ZM170.82 12.4452H173.39C174.57 12.4452 175.496 12.1674 176.167 11.6117C176.839 11.0559 177.176 10.2807 177.176 9.28481C177.176 8.26691 176.839 7.48501 176.167 6.94084C175.496 6.39666 174.57 6.12472 173.39 6.12472H170.82V12.4452Z" fill="black"/>
<path d="M83.9931 30.4032H84.9678L82.9502 32.6373L85.0631 35.1735H84.0754L82.2217 32.944V35.1735H81.396V30.4032H82.2217V32.3923L83.9931 30.4032Z" fill="black"/>
<path d="M85.1687 32.7874C85.1687 32.4334 85.2296 32.105 85.3525 31.804C85.4746 31.5002 85.6482 31.2399 85.8738 31.0187C86.0982 30.8004 86.3617 30.627 86.6606 30.5046C86.9618 30.382 87.2886 30.3203 87.642 30.3203C87.9977 30.3203 88.3247 30.382 88.6286 30.5046C88.9301 30.6273 89.193 30.8006 89.4189 31.0187C89.6433 31.2399 89.8172 31.5002 89.9401 31.804C90.0628 32.1047 90.1248 32.4334 90.1248 32.7874C90.1248 33.1432 90.0628 33.4719 89.9401 33.7743C89.8169 34.075 89.6441 34.3382 89.4218 34.5635C89.1985 34.7887 88.9367 34.9641 88.6349 35.0885C88.3328 35.2152 88.0018 35.2761 87.642 35.2761C87.2831 35.2761 86.9534 35.2149 86.6542 35.0885C86.3547 34.9641 86.0927 34.789 85.8706 34.5635C85.6473 34.3385 85.4746 34.075 85.3525 33.7743C85.2296 33.4719 85.1687 33.1429 85.1687 32.7874ZM86.0196 32.7874C86.0196 33.115 86.0886 33.4079 86.2286 33.6644C86.3672 33.9207 86.5586 34.1216 86.8044 34.2672C87.0494 34.4124 87.3289 34.4852 87.642 34.4852C87.9603 34.4852 88.2412 34.4124 88.4848 34.2672C88.7274 34.1216 88.9179 33.9207 89.0576 33.6644C89.1965 33.4076 89.2655 33.1148 89.2655 32.7874C89.2655 32.4604 89.1965 32.169 89.0576 31.9119C88.9179 31.6556 88.7274 31.4535 88.4848 31.3083C88.2412 31.1642 87.9603 31.0908 87.642 31.0908C87.3286 31.0908 87.0494 31.1642 86.8044 31.3083C86.5583 31.4535 86.3672 31.6556 86.2286 31.9119C86.0889 32.169 86.0196 32.4604 86.0196 32.7874Z" fill="black"/>
<path d="M91.537 33.3682V35.1738H90.7322V30.4032H91.2102H91.537H92.2047C92.5494 30.4032 92.8512 30.4632 93.1077 30.587C93.3649 30.7085 93.5647 30.8818 93.7082 31.1039C93.8499 31.3269 93.9221 31.5875 93.9221 31.8893C93.9221 32.2331 93.8276 32.5265 93.64 32.7672C93.4513 33.0078 93.1907 33.1789 92.8593 33.2783L94.208 35.1735H93.2347L92.0269 33.3679L91.537 33.3682ZM91.537 32.7072H92.1705C92.4491 32.7072 92.6705 32.6356 92.8381 32.4947C93.0074 32.3538 93.0909 32.156 93.0909 31.9021C93.0909 31.6481 93.0074 31.4504 92.8381 31.3083C92.6705 31.168 92.4491 31.097 92.1705 31.097H91.537V32.7072Z" fill="black"/>
<path d="M95.4053 32.9649V34.4652H97.5191V35.1735H95.4053H95.1125H94.615V30.4032H95.1125H95.4053H97.5191V31.11H95.4053V32.2711H97.3817V32.9652L95.4053 32.9649Z" fill="black"/>
<path d="M99.2731 33.9462L98.7283 35.1734H97.8142L100.152 30.1359L102.491 35.1734H101.577L101.032 33.9462H99.2731ZM99.5047 33.2658H100.801L100.152 31.751L99.5047 33.2658Z" fill="black"/>
<path d="M106.346 30.4032H107.135V35.4123L103.652 32.0186V35.1734H102.861V30.1637L106.346 33.5659V30.4032H106.346Z" fill="black"/>
<path d="M110.829 33.9462L110.285 35.1734H109.371L111.71 30.1359L114.048 35.1734H113.133L112.589 33.9462H110.829ZM111.062 33.2658H112.358L111.71 31.751L111.062 33.2658Z" fill="black"/>
<path d="M114.847 32.7875C114.847 33.1249 114.922 33.4195 115.072 33.6746C115.222 33.9289 115.42 34.1254 115.668 34.2637C115.917 34.4026 116.186 34.4724 116.477 34.4724C116.812 34.4724 117.103 34.4081 117.352 34.2814C117.599 34.1535 117.805 33.9929 117.969 33.7975V34.7516C117.773 34.9143 117.559 35.0401 117.325 35.1265C117.091 35.212 116.799 35.2549 116.449 35.2549C116.099 35.2549 115.774 35.1955 115.474 35.0758C115.175 34.9554 114.911 34.7847 114.686 34.5672C114.461 34.3486 114.287 34.0883 114.162 33.7874C114.037 33.4841 113.975 33.1525 113.975 32.7877C113.975 32.4248 114.037 32.0931 114.162 31.789C114.287 31.488 114.461 31.2286 114.686 31.01C114.911 30.7922 115.175 30.6212 115.474 30.502C115.774 30.3794 116.099 30.3206 116.449 30.3206C116.799 30.3206 117.091 30.3638 117.325 30.4501C117.559 30.536 117.773 30.6615 117.969 30.8239V31.78C117.805 31.5843 117.6 31.4237 117.352 31.2958C117.104 31.1683 116.812 31.1042 116.477 31.1042C116.186 31.1042 115.917 31.1732 115.668 31.3138C115.42 31.4521 115.222 31.6472 115.072 31.8989C114.922 32.1511 114.847 32.4474 114.847 32.7875Z" fill="black"/>
<path d="M119.723 33.9462L119.178 35.1734H118.264L120.603 30.1359L122.941 35.1734H122.027L121.482 33.9462H119.723ZM119.955 33.2658H121.251L120.603 31.751L119.955 33.2658Z" fill="black"/>
<path d="M123.81 35.1735H123.312V30.4032H123.81H124.13H124.852C125.339 30.4032 125.766 30.5018 126.134 30.6983C126.502 30.8963 126.79 31.1732 126.997 31.5307C127.203 31.8876 127.307 32.3068 127.307 32.7875C127.307 33.2684 127.203 33.69 126.997 34.0463C126.79 34.4026 126.502 34.6792 126.134 34.8775C125.766 35.0758 125.339 35.1735 124.852 35.1735H124.13H123.81ZM124.13 34.4171H124.833C125.145 34.4171 125.426 34.3559 125.674 34.233C125.922 34.1118 126.117 33.9286 126.26 33.6874C126.403 33.4467 126.475 33.147 126.475 32.7875C126.475 32.4291 126.403 32.1299 126.26 31.8893C126.117 31.6481 125.922 31.4649 125.674 31.3434C125.426 31.2196 125.145 31.1581 124.833 31.1581H124.13V34.4171Z" fill="black"/>
<path d="M128.706 32.9649V34.4652H130.82V35.1735H128.706H128.414H127.916V30.4032H128.414H128.706H130.82V31.11H128.706V32.2711H130.683V32.9652L128.706 32.9649Z" fill="black"/>
<path d="M132.522 32.2711L132.193 35.1737H131.362L132.016 30.164L133.974 33.4003L135.936 30.164L136.592 35.1737H135.752L135.425 32.2772L133.974 34.7322L132.522 32.2711Z" fill="black"/>
<path d="M137.199 30.4032H138.017V35.1735H137.199V30.4032Z" fill="black"/>
<path d="M139.502 32.7875C139.502 33.1249 139.576 33.4195 139.726 33.6746C139.876 33.9289 140.074 34.1254 140.322 34.2637C140.571 34.4026 140.84 34.4724 141.131 34.4724C141.466 34.4724 141.758 34.4081 142.007 34.2814C142.254 34.1535 142.46 33.9929 142.623 33.7975V34.7516C142.427 34.9143 142.213 35.0401 141.979 35.1265C141.746 35.212 141.453 35.2549 141.103 35.2549C140.752 35.2549 140.429 35.1955 140.128 35.0758C139.829 34.9554 139.564 34.7847 139.34 34.5672C139.116 34.3486 138.941 34.0883 138.817 33.7874C138.691 33.4841 138.629 33.1525 138.629 32.7877C138.629 32.4248 138.691 32.0931 138.817 31.789C138.941 31.488 139.116 31.2286 139.34 31.01C139.564 30.7922 139.829 30.6212 140.128 30.502C140.429 30.3794 140.752 30.3206 141.103 30.3206C141.453 30.3206 141.746 30.3638 141.979 30.4501C142.213 30.536 142.427 30.6615 142.623 30.8239V31.78C142.46 31.5843 142.254 31.4237 142.007 31.2958C141.759 31.1683 141.466 31.1042 141.131 31.1042C140.84 31.1042 140.571 31.1732 140.322 31.3138C140.075 31.4521 139.876 31.6472 139.726 31.8989C139.576 32.1511 139.502 32.4474 139.502 32.7875Z" fill="black"/>
<path d="M145.649 33.5659C145.799 33.8741 145.97 34.1147 146.161 34.2881C146.352 34.4612 146.586 34.5479 146.863 34.5479C147.102 34.5479 147.284 34.4907 147.405 34.3754C147.525 34.2626 147.585 34.1034 147.585 33.8993C147.585 33.7213 147.534 33.5761 147.432 33.4633C147.329 33.3485 147.197 33.2545 147.037 33.1803C146.876 33.1055 146.704 33.033 146.522 32.9646C146.404 32.9197 146.273 32.8611 146.131 32.7921C145.987 32.7205 145.852 32.6309 145.724 32.5216C145.597 32.4118 145.492 32.2796 145.411 32.1227C145.329 31.9667 145.287 31.78 145.287 31.5669C145.287 31.3133 145.354 31.0921 145.486 30.9068C145.619 30.7201 145.796 30.5754 146.021 30.4725C146.246 30.3699 146.503 30.32 146.789 30.32C147.08 30.32 147.331 30.3731 147.545 30.4769C147.757 30.5798 147.934 30.7123 148.069 30.8691C148.206 31.0245 148.306 31.1857 148.37 31.3492L147.742 31.7383C147.641 31.5461 147.521 31.3852 147.377 31.2472C147.235 31.1097 147.047 31.0431 146.815 31.0431C146.606 31.0431 146.44 31.0947 146.315 31.197C146.189 31.2979 146.127 31.4362 146.127 31.6096C146.127 31.7449 146.178 31.8609 146.28 31.956C146.383 32.0517 146.517 32.1352 146.685 32.2082C146.854 32.2807 147.033 32.3535 147.223 32.4277C147.415 32.4944 147.602 32.5872 147.787 32.7025C147.971 32.8182 148.123 32.971 148.247 33.1603C148.37 33.3476 148.43 33.583 148.43 33.8648C148.43 34.3011 148.292 34.6444 148.014 34.8969C147.738 35.1506 147.344 35.2761 146.836 35.2761C146.427 35.2761 146.061 35.1552 145.742 34.914C145.42 34.6734 145.187 34.3577 145.036 33.9669L145.649 33.5659Z" fill="black"/>
<path d="M148.81 32.7874C148.81 32.4334 148.871 32.105 148.994 31.804C149.115 31.5002 149.29 31.2399 149.515 31.0187C149.739 30.8004 150.003 30.627 150.302 30.5046C150.602 30.382 150.93 30.3203 151.283 30.3203C151.638 30.3203 151.966 30.382 152.269 30.5046C152.571 30.6273 152.834 30.8006 153.059 31.0187C153.283 31.2399 153.458 31.5002 153.58 31.804C153.705 32.1047 153.765 32.4334 153.765 32.7874C153.765 33.1432 153.705 33.4719 153.58 33.7743C153.458 34.075 153.286 34.3382 153.064 34.5635C152.84 34.7887 152.577 34.9641 152.276 35.0885C151.975 35.2152 151.643 35.2761 151.283 35.2761C150.925 35.2761 150.594 35.2149 150.295 35.0885C149.996 34.9641 149.733 34.789 149.513 34.5635C149.289 34.3385 149.115 34.075 148.994 33.7743C148.871 33.4719 148.81 33.1429 148.81 32.7874ZM149.661 32.7874C149.661 33.115 149.73 33.4079 149.87 33.6644C150.008 33.9207 150.2 34.1216 150.445 34.2672C150.69 34.4124 150.969 34.4852 151.283 34.4852C151.601 34.4852 151.883 34.4124 152.126 34.2672C152.368 34.1216 152.558 33.9207 152.698 33.6644C152.837 33.4076 152.906 33.1148 152.906 32.7874C152.906 32.4604 152.837 32.169 152.698 31.9119C152.559 31.6556 152.368 31.4535 152.126 31.3083C151.883 31.1642 151.601 31.0908 151.283 31.0908C150.969 31.0908 150.69 31.1642 150.445 31.3083C150.2 31.4535 150.007 31.6556 149.87 31.9119C149.73 32.169 149.661 32.4604 149.661 32.7874Z" fill="black"/>
<path d="M154.973 32.7875C154.973 33.1249 155.047 33.4195 155.197 33.6746C155.349 33.9289 155.546 34.1254 155.793 34.2637C156.042 34.4026 156.311 34.4724 156.603 34.4724C156.939 34.4724 157.23 34.4081 157.479 34.2814C157.725 34.1535 157.931 33.9929 158.095 33.7975V34.7516C157.899 34.9143 157.685 35.0401 157.451 35.1265C157.218 35.212 156.924 35.2549 156.573 35.2549C156.225 35.2549 155.901 35.1955 155.6 35.0758C155.3 34.9554 155.038 34.7847 154.812 34.5672C154.588 34.3486 154.414 34.0883 154.287 33.7874C154.163 33.4841 154.1 33.1525 154.1 32.7877C154.1 32.4248 154.163 32.0931 154.287 31.789C154.414 31.488 154.588 31.2286 154.812 31.01C155.037 30.7922 155.3 30.6212 155.6 30.502C155.901 30.3794 156.225 30.3206 156.573 30.3206C156.924 30.3206 157.218 30.3638 157.451 30.4501C157.685 30.536 157.899 30.6615 158.095 30.8239V31.78C157.931 31.5843 157.725 31.4237 157.479 31.2958C157.23 31.1683 156.939 31.1042 156.603 31.1042C156.311 31.1042 156.042 31.1732 155.793 31.3138C155.546 31.4521 155.349 31.6472 155.197 31.8989C155.047 32.1511 154.973 32.4474 154.973 32.7875Z" fill="black"/>
<path d="M158.91 30.4032H159.727V35.1735H158.91V30.4032Z" fill="black"/>
<path d="M161.402 32.9649V34.4652H163.514V35.1735H161.402H161.108H160.611V30.4032H161.108H161.402H163.514V31.11H161.402V32.2711H163.38V32.9652L161.402 32.9649Z" fill="black"/>
<path d="M163.851 31.1457V30.4032H167.177V31.1457H165.918V35.1738H165.106V31.1457H163.851Z" fill="black"/>
<path d="M170.322 30.4032H171.244L169.62 33.1635V35.1738H168.802V33.1635L167.179 30.4032H168.106L169.211 32.4474L170.322 30.4032Z" fill="black"/>
<path d="M174.164 33.0206V35.1735H173.374V30.4032H173.87H174.164H176.005V31.1254H174.164V32.3181H175.937V33.0206H174.164Z" fill="black"/>
<path d="M176.479 32.7874C176.479 32.4334 176.539 32.105 176.663 31.804C176.784 31.5002 176.959 31.2399 177.184 31.0187C177.408 30.8004 177.672 30.627 177.971 30.5046C178.271 30.382 178.599 30.3203 178.952 30.3203C179.307 30.3203 179.634 30.382 179.938 30.5046C180.241 30.6273 180.503 30.8006 180.728 31.0187C180.952 31.2399 181.127 31.5002 181.249 31.804C181.374 32.1047 181.434 32.4334 181.434 32.7874C181.434 33.1432 181.374 33.4719 181.249 33.7743C181.127 34.075 180.954 34.3382 180.733 34.5635C180.508 34.7887 180.246 34.9641 179.945 35.0885C179.642 35.2152 179.312 35.2761 178.952 35.2761C178.593 35.2761 178.263 35.2149 177.965 35.0885C177.666 34.9641 177.403 34.789 177.18 34.5635C176.957 34.3385 176.784 34.075 176.663 33.7743C176.539 33.4719 176.479 33.1429 176.479 32.7874ZM177.329 32.7874C177.329 33.115 177.398 33.4079 177.539 33.6644C177.677 33.9207 177.868 34.1216 178.114 34.2672C178.359 34.4124 178.638 34.4852 178.952 34.4852C179.27 34.4852 179.55 34.4124 179.794 34.2672C180.037 34.1216 180.228 33.9207 180.367 33.6644C180.506 33.4076 180.575 33.1148 180.575 32.7874C180.575 32.4604 180.506 32.169 180.367 31.9119C180.228 31.6556 180.037 31.4535 179.794 31.3083C179.55 31.1642 179.27 31.0908 178.952 31.0908C178.638 31.0908 178.359 31.1642 178.114 31.3083C177.868 31.4535 177.677 31.6556 177.539 31.9119C177.398 32.169 177.329 32.4604 177.329 32.7874Z" fill="black"/>
<path d="M182.847 33.3682V35.1738H182.041V30.4032H182.52H182.847H183.514C183.858 30.4032 184.16 30.4632 184.417 30.587C184.674 30.7085 184.873 30.8818 185.018 31.1039C185.16 31.3269 185.232 31.5875 185.232 31.8893C185.232 32.2331 185.136 32.5265 184.949 32.7672C184.76 33.0078 184.5 33.1789 184.168 33.2783L185.516 35.1735H184.544L183.336 33.3679L182.847 33.3682ZM182.847 32.7072H183.48C183.758 32.7072 183.98 32.6356 184.148 32.4947C184.316 32.3538 184.4 32.156 184.4 31.9021C184.4 31.6481 184.316 31.4504 184.148 31.3083C183.98 31.168 183.758 31.097 183.48 31.097H182.847V32.7072Z" fill="black"/>
<path d="M188.601 33.3682V35.1738H187.797V30.4032H188.273H188.601H189.235C189.581 30.4032 189.882 30.4626 190.139 30.5824C190.395 30.7027 190.595 30.8749 190.737 31.097C190.876 31.3208 190.948 31.584 190.948 31.889C190.948 32.194 190.877 32.4549 190.737 32.6756C190.596 32.895 190.395 33.0672 190.139 33.1858C189.882 33.3067 189.581 33.3679 189.235 33.3679L188.601 33.3682ZM188.601 32.659H189.234C189.513 32.659 189.735 32.5932 189.903 32.4645C190.071 32.3349 190.155 32.1427 190.155 31.8893C190.155 31.633 190.071 31.4408 189.903 31.3083C189.735 31.177 189.513 31.1097 189.234 31.1097H188.601V32.659Z" fill="black"/>
<path d="M191.521 30.4032H192.333V33.5723C192.333 33.8625 192.413 34.0996 192.571 34.2811C192.73 34.4626 192.961 34.5545 193.266 34.5545C193.575 34.5545 193.807 34.4626 193.964 34.2811C194.121 34.0996 194.2 33.8625 194.2 33.5723V30.4032H195.011V33.6062C195.011 33.9552 194.938 34.2585 194.789 34.5093C194.641 34.7618 194.437 34.9555 194.174 35.092C193.909 35.2288 193.607 35.2961 193.266 35.2961C192.925 35.2961 192.623 35.2288 192.363 35.092C192.101 34.9555 191.896 34.7618 191.746 34.5093C191.595 34.2585 191.521 33.9552 191.521 33.6062V30.4032H191.521Z" fill="black"/>
<path d="M198.081 32.5903C198.378 32.6686 198.62 32.804 198.812 32.9988C199.002 33.1945 199.097 33.4607 199.097 33.7972C199.097 34.1118 199.024 34.3698 198.879 34.5751C198.733 34.7792 198.532 34.9297 198.273 35.0274C198.014 35.1253 197.716 35.1738 197.38 35.1738H195.86V30.4032H197.298C197.747 30.4032 198.115 30.5018 198.399 30.6983C198.683 30.8963 198.824 31.1973 198.824 31.6032C198.824 31.8383 198.759 32.0404 198.624 32.2085C198.49 32.3769 198.31 32.5048 198.081 32.5903ZM196.664 32.3184H197.243C197.467 32.3184 197.648 32.2627 197.789 32.1514C197.93 32.0392 198 31.8855 198 31.6901C198 31.4907 197.93 31.3361 197.789 31.23C197.648 31.1231 197.467 31.0712 197.243 31.0712H196.664V32.3184ZM196.664 32.944V34.5058H197.333C197.605 34.5058 197.829 34.4394 198.007 34.3084C198.183 34.1765 198.273 33.9782 198.273 33.7146C198.273 33.4563 198.183 33.2626 198.007 33.1359C197.829 33.0081 197.605 32.944 197.333 32.944H196.664Z" fill="black"/>
<path d="M199.776 30.4032H200.58V34.4522H202.475V35.1735H199.775L199.776 30.4032Z" fill="black"/>
<path d="M202.88 30.4032H203.697V35.1735H202.88V30.4032Z" fill="black"/>
<path d="M205.183 32.7875C205.183 33.1249 205.257 33.4195 205.407 33.6746C205.558 33.9289 205.756 34.1254 206.004 34.2637C206.252 34.4026 206.52 34.4724 206.812 34.4724C207.148 34.4724 207.44 34.4081 207.688 34.2814C207.935 34.1535 208.14 33.9929 208.304 33.7975V34.7516C208.109 34.9143 207.895 35.0401 207.661 35.1265C207.427 35.212 207.133 35.2549 206.783 35.2549C206.434 35.2549 206.11 35.1955 205.81 35.0758C205.51 34.9554 205.247 34.7847 205.021 34.5672C204.798 34.3486 204.623 34.0883 204.498 33.7874C204.372 33.4841 204.31 33.1525 204.31 32.7877C204.31 32.4248 204.373 32.0931 204.498 31.789C204.623 31.488 204.797 31.2286 205.021 31.01C205.246 30.7922 205.51 30.6212 205.81 30.502C206.11 30.3794 206.434 30.3206 206.783 30.3206C207.133 30.3206 207.427 30.3638 207.661 30.4501C207.895 30.536 208.109 30.6615 208.304 30.8239V31.78C208.14 31.5843 207.935 31.4237 207.688 31.2958C207.44 31.1683 207.148 31.1042 206.812 31.1042C206.52 31.1042 206.252 31.1732 206.004 31.3138C205.756 31.4521 205.559 31.6472 205.407 31.8989C205.257 32.1511 205.183 32.4474 205.183 32.7875Z" fill="black"/>
<path d="M211.795 33.3682V35.1738H210.991V30.4032H211.467H211.795H212.465C212.809 30.4032 213.111 30.4632 213.368 30.587C213.623 30.7085 213.824 30.8818 213.967 31.1039C214.11 31.3269 214.18 31.5875 214.18 31.8893C214.18 32.2331 214.086 32.5265 213.899 32.7672C213.71 33.0078 213.45 33.1789 213.119 33.2783L214.468 35.1735H213.493L212.288 33.3679L211.795 33.3682ZM211.795 32.7072H212.429C212.708 32.7072 212.931 32.6356 213.098 32.4947C213.266 32.3538 213.351 32.156 213.351 31.9021C213.351 31.6481 213.266 31.4504 213.098 31.3083C212.931 31.168 212.708 31.097 212.429 31.097H211.795V32.7072Z" fill="black"/>
<path d="M215.663 32.9649V34.4652H217.777V35.1735H215.663H215.37H214.873V30.4032H215.37H215.663H217.777V31.11H215.663V32.2711H217.639V32.9652L215.663 32.9649Z" fill="black"/>
<path d="M218.591 30.4032H219.395V34.4522H221.291V35.1735H218.591V30.4032Z" fill="black"/>
<path d="M222.977 33.9462L222.432 35.1734H221.518L223.856 30.1359L226.194 35.1734H225.28L224.736 33.9462H222.977ZM223.209 33.2658H224.504L223.856 31.751L223.209 33.2658Z" fill="black"/>
<path d="M226.087 31.1457V30.4032H229.415V31.1457H228.155V35.1738H227.342V31.1457H226.087Z" fill="black"/>
<path d="M229.822 30.4032H230.64V35.1735H229.822V30.4032Z" fill="black"/>
<path d="M231.252 32.7874C231.252 32.4334 231.312 32.105 231.436 31.804C231.558 31.5002 231.732 31.2399 231.956 31.0187C232.181 30.8004 232.445 30.627 232.744 30.5046C233.045 30.382 233.372 30.3203 233.725 30.3203C234.08 30.3203 234.408 30.382 234.711 30.5046C235.013 30.6273 235.276 30.8006 235.501 31.0187C235.726 31.2399 235.9 31.5002 236.023 31.804C236.146 32.1047 236.208 32.4334 236.208 32.7874C236.208 33.1432 236.146 33.4719 236.023 33.7743C235.9 34.075 235.727 34.3382 235.506 34.5635C235.282 34.7887 235.02 34.9641 234.719 35.0885C234.415 35.2152 234.085 35.2761 233.725 35.2761C233.366 35.2761 233.037 35.2149 232.738 35.0885C232.439 34.9641 232.176 34.789 231.953 34.5635C231.73 34.3385 231.558 34.075 231.436 33.7743C231.312 33.4719 231.252 33.1429 231.252 32.7874ZM232.103 32.7874C232.103 33.115 232.172 33.4079 232.312 33.6644C232.451 33.9207 232.641 34.1216 232.888 34.2672C233.132 34.4124 233.412 34.4852 233.725 34.4852C234.043 34.4852 234.323 34.4124 234.568 34.2672C234.811 34.1216 235.001 33.9207 235.14 33.6644C235.279 33.4076 235.349 33.1148 235.349 32.7874C235.349 32.4604 235.279 32.169 235.14 31.9119C235.001 31.6556 234.811 31.4535 234.568 31.3083C234.323 31.1642 234.043 31.0908 233.725 31.0908C233.412 31.0908 233.132 31.1642 232.888 31.3083C232.641 31.4535 232.45 31.6556 232.312 31.9119C232.172 32.169 232.103 32.4604 232.103 32.7874Z" fill="black"/>
<path d="M240.298 30.4032H241.089V35.4123L237.605 32.0186V35.1734H236.814V30.1637L240.298 33.5659V30.4032Z" fill="black"/>
<path d="M242.311 33.5659C242.461 33.8741 242.632 34.1147 242.823 34.2881C243.013 34.4612 243.248 34.5479 243.524 34.5479C243.765 34.5479 243.947 34.4907 244.067 34.3754C244.188 34.2626 244.246 34.1034 244.246 33.8993C244.246 33.7213 244.196 33.5761 244.094 33.4633C243.992 33.3485 243.859 33.2545 243.699 33.1803C243.538 33.1055 243.366 33.033 243.184 32.9646C243.067 32.9197 242.936 32.8611 242.791 32.7921C242.649 32.7205 242.515 32.6309 242.387 32.5216C242.26 32.4118 242.155 32.2796 242.074 32.1227C241.991 31.9667 241.95 31.78 241.95 31.5669C241.95 31.3133 242.016 31.0921 242.148 30.9068C242.28 30.7201 242.459 30.5754 242.684 30.4725C242.909 30.3699 243.165 30.32 243.451 30.32C243.743 30.32 243.994 30.3731 244.208 30.4769C244.421 30.5798 244.596 30.7123 244.731 30.8691C244.868 31.0245 244.969 31.1857 245.032 31.3492L244.405 31.7383C244.304 31.5461 244.183 31.3852 244.04 31.2472C243.897 31.1097 243.71 31.0431 243.477 31.0431C243.268 31.0431 243.102 31.0947 242.977 31.197C242.852 31.2979 242.789 31.4362 242.789 31.6096C242.789 31.7449 242.841 31.8609 242.943 31.956C243.046 32.0517 243.18 32.1352 243.348 32.2082C243.516 32.2807 243.695 32.3535 243.887 32.4277C244.077 32.4944 244.264 32.5872 244.449 32.7025C244.633 32.8182 244.785 32.971 244.909 33.1603C245.032 33.3476 245.093 33.583 245.093 33.8648C245.093 34.3011 244.955 34.6444 244.677 34.8969C244.4 35.1506 244.006 35.2761 243.498 35.2761C243.088 35.2761 242.724 35.1552 242.404 34.914C242.084 34.6734 241.849 34.3577 241.699 33.9669L242.311 33.5659Z" fill="black"/>
<path d="M19.1194 1.02655H32.2659C40.0296 1.02655 44.3603 6.10298 44.3603 12.4742C44.3603 17.1517 42.0697 21.1337 37.7395 22.9245L38.7684 24.708L45.2049 35.866H37.7395H25.9933H19.1194V1.02655Z" fill="#003686"/>
<path d="M37.7216 12.442C37.7216 18.8126 33.3914 23.8894 25.6266 23.8894L19.1145 23.9105V35.8542L12.7361 35.8333V13.733L19.1145 13.7394V17.5698L25.4773 17.5686C28.8116 17.5686 30.9025 15.4284 30.9025 12.442C30.9025 9.4556 28.8119 7.36559 25.4773 7.36559H12.7361V0.99469H25.6266C33.3914 0.99469 37.7216 6.07112 37.7216 12.442Z" fill="#58ACDA"/>
<path d="M12.7378 7.36792H6.36719V13.7385H12.7378V7.36792Z" fill="#E9546B"/>
<path d="M6.38082 0.995544H0.010498V7.36616H6.38082V0.995544Z" fill="#003686"/>
<path d="M112.759 1.53076H120.744" stroke="black" stroke-width="0.072479" stroke-miterlimit="10"/>
<path d="M116.895 -1.60645V5.09583" stroke="black" stroke-width="0.072479" stroke-miterlimit="10"/>
</g>
</g>
</g>
<defs>
<clipPath id="clip0_232_466">
<rect width="245" height="34.5" fill="white" transform="translate(0 0.75)"/>
</clipPath>
<clipPath id="clip1_232_466">
<rect width="245" height="34.5" fill="white" transform="translate(0 0.75)"/>
</clipPath>
<clipPath id="clip2_232_466">
<rect width="244.979" height="34.5" fill="white" transform="translate(0.010498 0.75)"/>
</clipPath>
</defs>
</svg>
