<svg width="180" height="26" viewBox="0 0 180 26" fill="none" xmlns="http://www.w3.org/2000/svg">
<g clip-path="url(#clip0_229_96843)">
<path d="M58.3035 4.61182V2.41108H63.4303V1.6907C63.4303 1.11725 63.1053 0.630037 62.455 0.230347H67.1814V2.41108H72.3342V4.61182H69.8074C70.0581 4.91846 70.2455 5.25193 70.3704 5.61243C70.4957 5.97188 70.5581 6.34602 70.5581 6.73272C70.5581 7.86642 70.0453 8.84339 69.0204 9.66449C67.9945 10.4839 66.7571 10.8942 65.3061 10.8942C63.8555 10.8942 62.6175 10.4839 61.5928 9.66449C60.5669 8.8436 60.0539 7.86642 60.0539 6.73272C60.0539 6.34602 60.1163 5.97188 60.2415 5.61243C60.3663 5.25193 60.5451 4.91846 60.7798 4.61182H58.3035ZM67.0822 12.2749V16.0361C67.0822 16.1294 67.1154 16.2035 67.1814 16.2559C67.2483 16.3095 67.332 16.3357 67.4319 16.3357H77.6856V18.5378H65.3812C64.7305 18.5378 64.2469 18.4076 63.9305 18.147C63.6138 17.8876 63.4558 17.4773 63.4558 16.9164V14.096C63.4558 13.3744 62.9797 12.7685 62.03 12.2749H67.0822ZM63.6805 6.73272C63.6805 7.25272 63.8436 7.71949 64.1679 8.13302C64.4935 8.54613 64.8813 8.75332 65.3316 8.75332C65.782 8.75332 66.1685 8.54975 66.4939 8.14303C66.8192 7.73631 66.9813 7.27934 66.9813 6.77275C66.9813 6.25232 66.8228 5.78598 66.5064 5.37139C66.1904 4.95849 65.8061 4.75194 65.3557 4.75194C64.9066 4.75194 64.5137 4.95509 64.1805 5.36159C63.8474 5.76937 63.6805 6.22528 63.6805 6.73272ZM77.4616 7.43244V13.5351H73.885V2.39085C73.885 1.57741 73.4104 0.890251 72.4596 0.330003H77.4616V5.13204H80.5622V7.43244H77.4616Z" fill="white"/>
<path d="M99.645 6.82256H102.472V9.02351H93.9684V11.6244H99.745C99.8117 11.6244 99.8664 11.6418 99.9084 11.6748C99.949 11.7079 99.9708 11.7581 99.9708 11.8241V18.4873H96.2937V13.9859C96.2937 13.9192 96.2726 13.8694 96.2317 13.8353C96.1896 13.8019 96.1272 13.7857 96.0441 13.7857H84.0632V11.6244H90.0662V9.02351H81.5377V6.82256H96.0684C96.3188 6.46268 96.477 6.05575 96.5443 5.6024C96.6112 5.14841 96.6444 4.56176 96.6444 3.8418V3.26111C96.6444 3.11418 96.6144 3.01495 96.5567 2.96108C96.4977 2.90763 96.3686 2.88123 96.1695 2.88123H83.7634V0.680054H100.046C100.129 0.680054 100.191 0.697089 100.233 0.729882C100.274 0.763739 100.296 0.820382 100.296 0.899809V4.06135C100.296 4.83517 100.242 5.41544 100.133 5.80193C100.025 6.18948 99.8624 6.52912 99.645 6.82256Z" fill="white"/>
<path d="M136.585 4.43673V2.23619H141.712V1.61611C141.712 1.04202 141.387 0.554598 140.736 0.154907H145.463V2.23619H150.615V4.43673H148.115C148.331 4.73016 148.49 5.03701 148.589 5.35706C148.69 5.67711 148.74 6.01036 148.74 6.35746C148.74 7.47795 148.231 8.43832 147.214 9.23855C146.197 10.0392 144.988 10.4395 143.588 10.4395C142.17 10.4395 140.958 10.0392 139.948 9.23855C138.94 8.43853 138.435 7.47795 138.435 6.35746C138.435 6.01058 138.49 5.67732 138.598 5.35706C138.707 5.03701 138.852 4.73016 139.036 4.43673H136.585ZM155.493 11.8799C155.559 11.8799 155.618 11.8961 155.667 11.9297C155.717 11.9638 155.743 12.013 155.743 12.08V18.862H152.041V14.2403C152.041 14.1739 152.02 14.1243 151.979 14.0906C151.936 14.0576 151.874 14.0404 151.792 14.0404H140.161V11.8799H155.493ZM142.063 6.35746C142.063 6.85106 142.208 7.28801 142.5 7.6679C142.791 8.04821 143.162 8.23815 143.613 8.23815C144.046 8.23815 144.414 8.05481 144.713 7.68813C145.014 7.3208 145.164 6.8913 145.164 6.39749C145.164 5.89069 145.017 5.45012 144.726 5.07683C144.434 4.70333 144.071 4.51701 143.637 4.51701C143.221 4.51701 142.853 4.69971 142.537 5.06661C142.221 5.43436 142.063 5.86386 142.063 6.35746ZM155.742 4.0562H158.844V6.35746H155.742V11.079H152.166V2.51621C152.166 1.70214 151.691 1.01562 150.741 0.455154H155.742V4.0562Z" fill="white"/>
<path d="M175.8 2.14101C175.8 1.32694 175.325 0.640204 174.375 0.0799561H179.328V18.487H175.8V14.1247C175.4 14.2322 174.917 14.3021 174.35 14.3351C173.783 14.3694 173.082 14.3862 172.249 14.3862H160.32V12.2446H166.447V10.4442C165.497 10.191 164.712 9.73684 164.096 9.08354C163.479 8.43002 163.17 7.67621 163.17 6.82231C163.17 6.47564 163.22 6.14899 163.321 5.84236C163.421 5.53572 163.571 5.24846 163.77 4.98165H161.319V2.88141H166.197V1.82075C166.197 1.16681 165.846 0.619975 165.146 0.179613H169.773V2.88141H174.624V4.98186H172.173C172.358 5.24846 172.503 5.53913 172.611 5.85258C172.72 6.16603 172.773 6.4897 172.773 6.82253C172.773 7.60977 172.499 8.31716 171.948 8.94342C171.398 9.57032 170.698 10.0303 169.848 10.3241V12.2446H173.175C173.758 12.2446 174.262 12.2216 174.688 12.1746C175.112 12.1277 175.484 12.0583 175.8 11.9644V2.14101ZM167.973 5.22163C167.572 5.22163 167.238 5.38517 166.972 5.71225C166.705 6.03954 166.573 6.40899 166.573 6.82253C166.573 7.23606 166.705 7.60658 166.972 7.93301C167.238 8.26009 167.572 8.42342 167.973 8.42342C168.389 8.42342 168.726 8.26009 168.985 7.93301C169.243 7.60658 169.373 7.23606 169.373 6.82253C169.373 6.40921 169.243 6.03954 168.985 5.71225C168.726 5.38517 168.389 5.22163 167.973 5.22163Z" fill="white"/>
<path d="M42.3176 7.34336L41.5823 8.0137C41.3815 7.91745 41.1609 7.79799 40.9268 7.66384C40.6903 7.52606 40.4494 7.34741 40.2011 7.12659C40.0127 6.95602 39.8526 6.78971 39.7222 6.63107C39.5913 6.47435 39.4735 6.30974 39.3685 6.1445C39.264 6.34381 39.1341 6.53099 38.9767 6.70432C38.8196 6.87787 38.6281 7.07186 38.3997 7.28693C38.2101 7.46601 38.0138 7.6172 37.8134 7.7471C37.6105 7.8772 37.3886 8.00795 37.1463 8.14253L36.2834 7.53714C36.6704 7.3391 37.0194 7.12254 37.3271 6.8849C37.6378 6.65002 37.9007 6.38321 38.1175 6.08743C38.3626 5.74268 38.5325 5.3843 38.6252 5.01123C38.7163 4.63752 38.7619 4.24975 38.7619 3.84708V2.6791H39.9469V3.84751C39.9469 4.15244 39.9961 4.53445 40.0928 4.98802C40.1907 5.44286 40.3904 5.83574 40.6905 6.16814C40.9586 6.45859 41.2305 6.69602 41.5033 6.88085C41.7767 7.06632 42.0493 7.22028 42.3176 7.34336ZM45.3613 5.91942H44.1186V9.37546H42.9826V2.28516H44.1186V5.05573H45.3613V5.91942Z" fill="white"/>
<path d="M51.7947 5.96712C51.5105 5.99928 51.0716 6.03803 50.4705 6.08381C49.8698 6.12917 49.2516 6.15494 48.6098 6.16069L46.5638 6.16814V2.72807H50.9894V3.55705H47.7001V5.33788L49.11 5.33064C49.4877 5.32468 49.9551 5.30402 50.5099 5.2691C51.0661 5.23546 51.493 5.19478 51.7947 5.15454V5.96712ZM53.849 9.21362H47.4959V6.80483H48.649V8.40232H53.849V9.21362ZM54.7693 5.15922H53.5647V7.4164H52.4293V2.28516H53.5647V4.30576H54.7693V5.15922Z" fill="white"/>
<path d="M41.2642 12.6019H43.1165V11.1954H44.2528V15.029H43.1165V13.4405H41.2642V14.8378H36.9457V11.4533H38.0813V12.403H40.1298V11.4533H41.2642V12.6019ZM44.2217 18.2016H37.9857V15.3495H39.1196V16.0203H43.0859V15.3495H44.2217V18.2016ZM40.1298 14.0299V13.2077H38.0813V14.0299H40.1298ZM43.0859 17.4208V16.8009H39.1196V17.4208H43.0859Z" fill="white"/>
<path d="M48.5244 11.4121C49.2254 11.4121 49.7995 11.591 50.2539 11.9468C50.7072 12.3058 50.9346 12.7327 50.9346 13.2306C50.9346 13.7323 50.7072 14.1588 50.2539 14.5127C49.7997 14.8662 49.2254 15.0442 48.5244 15.0442C47.828 15.0442 47.2512 14.8662 46.8023 14.5127C46.3528 14.1588 46.1264 13.7323 46.1264 13.2306C46.1264 12.7327 46.3528 12.3056 46.8023 11.9468C47.2514 11.591 47.828 11.4121 48.5244 11.4121ZM48.5244 12.2245C48.1262 12.2245 47.8223 12.326 47.6091 12.5215C47.3964 12.7236 47.2923 12.96 47.2923 13.2308C47.2923 13.501 47.3964 13.7344 47.6091 13.9327C47.8223 14.1316 48.1264 14.2301 48.5244 14.2301C48.93 14.2301 49.2377 14.1313 49.4515 13.9327C49.6627 13.7344 49.7684 13.5008 49.7684 13.2308C49.7684 12.96 49.6627 12.7236 49.4515 12.5215C49.2377 12.3258 48.93 12.2245 48.5244 12.2245ZM53.9018 18.1219H47.3894V15.8506H48.5738V17.3067H53.9018V18.1219ZM53.7052 16.3187H52.5692V11.1953H53.7052V16.3187Z" fill="white"/>
<path d="M109.752 12.2876V18.4597H105.44V0.604614H108.144H109.752H111.638C113.917 0.604614 115.643 1.12355 116.815 2.15994C117.989 3.1976 118.575 4.62643 118.575 6.4458C118.575 8.24835 117.989 9.67229 116.815 10.7189C115.643 11.7642 113.917 12.2876 111.638 12.2876H109.752ZM109.752 8.71576H111.638C112.505 8.71576 113.186 8.52049 113.678 8.1291C114.172 7.73836 114.418 7.17726 114.418 6.4458C114.418 5.69753 114.172 5.13238 113.678 4.74951C113.186 4.36686 112.505 4.17606 111.638 4.17606H109.752V8.71576Z" fill="white"/>
<path d="M125.491 12.2876V18.4597H121.179V0.604614H123.884H125.491H127.709C129.988 0.604614 131.714 1.14442 132.887 2.22403C134.06 3.30364 134.648 4.71118 134.648 6.44559C134.648 7.68725 134.345 8.76686 133.742 9.68485C133.138 10.6033 132.25 11.2836 131.076 11.7255L135.718 18.4593H130.643L126.816 12.2872H125.491V12.2876ZM125.491 8.91997H127.378C128.245 8.91997 128.925 8.71597 129.418 8.30776C129.911 7.89955 130.159 7.33015 130.159 6.5987C130.159 5.85106 129.911 5.27676 129.418 4.87707C128.925 4.47738 128.245 4.27764 127.378 4.27764H125.491V8.91997Z" fill="white"/>
<path d="M61.7169 22.11H62.4328L60.951 23.7509L62.5029 25.6137H61.7774L60.4159 23.9762V25.6137H59.8094V22.11H60.4159V23.571L61.7169 22.11Z" fill="white"/>
<path d="M62.5804 23.8612C62.5804 23.6012 62.6251 23.3599 62.7154 23.1389C62.8051 22.9157 62.9326 22.7245 63.0983 22.562C63.2631 22.4017 63.4567 22.2744 63.6762 22.1845C63.8975 22.0944 64.1374 22.0491 64.397 22.0491C64.6583 22.0491 64.8985 22.0944 65.1217 22.1845C65.3431 22.2746 65.5363 22.4019 65.7021 22.562C65.8669 22.7245 65.9947 22.9157 66.085 23.1389C66.1751 23.3597 66.2206 23.6012 66.2206 23.8612C66.2206 24.1225 66.1751 24.364 66.085 24.5861C65.9945 24.8069 65.8676 25.0002 65.7043 25.1657C65.5403 25.3311 65.348 25.46 65.1263 25.5513C64.9045 25.6444 64.6613 25.6891 64.397 25.6891C64.1334 25.6891 63.8913 25.6442 63.6715 25.5513C63.4516 25.46 63.2591 25.3313 63.0959 25.1657C62.932 25.0004 62.8051 24.8069 62.7154 24.5861C62.6251 24.364 62.5804 24.1223 62.5804 23.8612ZM63.2054 23.8612C63.2054 24.1018 63.2561 24.3169 63.3589 24.5053C63.4607 24.6936 63.6013 24.8412 63.7818 24.9481C63.9618 25.0547 64.167 25.1082 64.397 25.1082C64.6308 25.1082 64.8372 25.0547 65.016 24.9481C65.1943 24.8412 65.3342 24.6936 65.4368 24.5053C65.5388 24.3167 65.5895 24.1016 65.5895 23.8612C65.5895 23.621 65.5388 23.407 65.4368 23.2181C65.3342 23.0299 65.1943 22.8815 65.016 22.7748C64.8372 22.6689 64.6308 22.6151 64.397 22.6151C64.1668 22.6151 63.9618 22.6689 63.7818 22.7748C63.601 22.8815 63.4607 23.0299 63.3589 23.2181C63.2563 23.407 63.2054 23.621 63.2054 23.8612Z" fill="white"/>
<path d="M67.2579 24.2877V25.6139H66.6667V22.11H67.0179H67.2579H67.7483C68.0015 22.11 68.2231 22.1541 68.4116 22.245C68.6005 22.3342 68.7472 22.4616 68.8526 22.6247C68.9567 22.7884 69.0097 22.9798 69.0097 23.2015C69.0097 23.4541 68.9403 23.6696 68.8025 23.8463C68.6639 24.023 68.4725 24.1487 68.2291 24.2217L69.2197 25.6137H68.5049L67.6177 24.2875L67.2579 24.2877ZM67.2579 23.8022H67.7231C67.9278 23.8022 68.0905 23.7496 68.2135 23.6461C68.3379 23.5427 68.3992 23.3974 68.3992 23.2109C68.3992 23.0244 68.3379 22.8791 68.2135 22.7748C68.0905 22.6717 67.9278 22.6196 67.7231 22.6196H67.2579V23.8022Z" fill="white"/>
<path d="M70.0992 23.9915V25.0935H71.6517V25.6137H70.0992H69.8841H69.5187V22.11H69.8841H70.0992H71.6517V22.6291H70.0992V23.482H71.5508V23.9917L70.0992 23.9915Z" fill="white"/>
<path d="M72.94 24.7124L72.5399 25.6138H71.8685L73.5858 21.9137L75.3036 25.6138H74.6324L74.2317 24.7124H72.94ZM73.1101 24.2126H74.062L73.5858 23.1L73.1101 24.2126Z" fill="white"/>
<path d="M78.1347 22.11H78.7147V25.7892L76.156 23.2965V25.6137H75.5756V21.9341L78.1349 24.4329V22.11H78.1347Z" fill="white"/>
<path d="M81.4281 24.7124L81.0284 25.6138H80.3572L82.0745 21.9137L83.7921 25.6138H83.1203L82.7206 24.7124H81.4281ZM81.5988 24.2126H82.5507L82.0748 23.1L81.5988 24.2126Z" fill="white"/>
<path d="M84.3792 23.8612C84.3792 24.1091 84.4341 24.3254 84.5444 24.5128C84.6545 24.6996 84.7995 24.844 84.982 24.9455C85.1645 25.0475 85.3624 25.0988 85.5759 25.0988C85.8221 25.0988 86.0363 25.0516 86.2186 24.9585C86.4004 24.8646 86.5518 24.7466 86.6717 24.6031V25.3039C86.528 25.4234 86.3708 25.5158 86.199 25.5792C86.0269 25.6421 85.8129 25.6736 85.5555 25.6736C85.2983 25.6736 85.0598 25.6299 84.8394 25.542C84.6196 25.4536 84.4261 25.3282 84.2606 25.1685C84.0958 25.0079 83.9676 24.8167 83.876 24.5957C83.7838 24.3729 83.7385 24.1293 83.7385 23.8614C83.7385 23.5948 83.7838 23.3512 83.876 23.1279C83.9676 22.9068 84.0956 22.7162 84.2606 22.5557C84.4258 22.3958 84.6196 22.2701 84.8394 22.1826C85.0598 22.0925 85.2983 22.0493 85.5555 22.0493C85.8129 22.0493 86.0272 22.081 86.199 22.1445C86.3708 22.2075 86.528 22.2997 86.6717 22.419V23.1213C86.5518 22.9775 86.4007 22.8596 86.2186 22.7657C86.0365 22.672 85.8223 22.6249 85.5759 22.6249C85.3624 22.6249 85.1645 22.6756 84.982 22.7789C84.7998 22.8804 84.6545 23.0237 84.5444 23.2086C84.4341 23.3938 84.3792 23.6115 84.3792 23.8612Z" fill="white"/>
<path d="M87.9604 24.7124L87.5603 25.6138H86.8887L88.6067 21.9137L90.3237 25.6138H89.6527L89.2521 24.7124H87.9604ZM88.1306 24.2126H89.0826L88.6069 23.1L88.1306 24.2126Z" fill="white"/>
<path d="M90.9618 25.6137H90.596V22.11H90.9618H91.1969H91.7276C92.0849 22.11 92.3986 22.1824 92.6688 22.3268C92.9394 22.4722 93.1509 22.6756 93.3029 22.9381C93.4541 23.2002 93.531 23.5082 93.531 23.8612C93.531 24.2145 93.4541 24.5241 93.3029 24.7858C93.1509 25.0475 92.9394 25.2507 92.6688 25.3963C92.3986 25.542 92.0849 25.6137 91.7276 25.6137H91.1969H90.9618ZM91.1969 25.0582H91.7133C91.9429 25.0582 92.1492 25.0132 92.331 24.9229C92.5131 24.8339 92.6566 24.6993 92.7616 24.5222C92.8668 24.3454 92.9198 24.1253 92.9198 23.8612C92.9198 23.598 92.8668 23.3783 92.7616 23.2015C92.6566 23.0244 92.5131 22.8898 92.331 22.8006C92.1492 22.7096 91.9429 22.6645 91.7133 22.6645H91.1969V25.0582Z" fill="white"/>
<path d="M94.5582 23.9915V25.0935H96.1112V25.6137H94.5582H94.3438H93.978V22.11H94.3438H94.5582H96.1112V22.6291H94.5582V23.482H96.0103V23.9917L94.5582 23.9915Z" fill="white"/>
<path d="M97.3607 23.482L97.1193 25.6139H96.5094L96.9898 21.9343L98.4276 24.3114L99.869 21.9343L100.35 25.6139H99.7335L99.4931 23.4865L98.4278 25.2896L97.3607 23.482Z" fill="white"/>
<path d="M100.796 22.11H101.397V25.6137H100.796V22.11Z" fill="white"/>
<path d="M102.488 23.8612C102.488 24.1091 102.542 24.3254 102.653 24.5128C102.763 24.6996 102.908 24.844 103.09 24.9455C103.273 25.0475 103.471 25.0988 103.684 25.0988C103.93 25.0988 104.145 25.0516 104.328 24.9585C104.509 24.8646 104.66 24.7466 104.78 24.6031V25.3039C104.636 25.4234 104.479 25.5158 104.307 25.5792C104.136 25.6421 103.921 25.6736 103.664 25.6736C103.406 25.6736 103.169 25.6299 102.948 25.542C102.728 25.4536 102.534 25.3282 102.369 25.1685C102.204 25.0079 102.076 24.8167 101.985 24.5957C101.892 24.3729 101.847 24.1293 101.847 23.8614C101.847 23.5948 101.892 23.3512 101.985 23.1279C102.076 22.9068 102.204 22.7162 102.369 22.5557C102.534 22.3958 102.728 22.2701 102.948 22.1826C103.169 22.0925 103.406 22.0493 103.664 22.0493C103.921 22.0493 104.136 22.081 104.307 22.1445C104.479 22.2075 104.636 22.2997 104.78 22.419V23.1213C104.66 22.9775 104.509 22.8596 104.328 22.7657C104.145 22.672 103.93 22.6249 103.684 22.6249C103.471 22.6249 103.273 22.6756 103.09 22.7789C102.908 22.8804 102.763 23.0237 102.653 23.2086C102.542 23.3938 102.488 23.6115 102.488 23.8612Z" fill="white"/>
<path d="M107.003 24.433C107.113 24.6594 107.239 24.8361 107.379 24.9635C107.519 25.0906 107.691 25.1543 107.894 25.1543C108.07 25.1543 108.204 25.1123 108.292 25.0276C108.381 24.9447 108.425 24.8278 108.425 24.6779C108.425 24.5472 108.387 24.4405 108.312 24.3577C108.237 24.2733 108.14 24.2043 108.022 24.1498C107.904 24.0949 107.778 24.0417 107.644 23.9914C107.557 23.9584 107.461 23.9154 107.356 23.8647C107.251 23.8121 107.152 23.7463 107.058 23.666C106.965 23.5853 106.887 23.4882 106.828 23.373C106.768 23.2585 106.737 23.1213 106.737 22.9648C106.737 22.7785 106.786 22.616 106.883 22.4799C106.98 22.3428 107.11 22.2366 107.276 22.161C107.441 22.0856 107.63 22.049 107.84 22.049C108.054 22.049 108.238 22.0879 108.395 22.1642C108.551 22.2397 108.681 22.3371 108.78 22.4523C108.881 22.5664 108.954 22.6848 109.001 22.8049L108.54 23.0907C108.466 22.9495 108.377 22.8313 108.272 22.7299C108.168 22.629 108.03 22.58 107.859 22.58C107.706 22.58 107.583 22.6179 107.492 22.6931C107.399 22.7672 107.354 22.8688 107.354 22.9961C107.354 23.0956 107.391 23.1807 107.466 23.2506C107.542 23.3208 107.64 23.3822 107.764 23.4358C107.888 23.4891 108.019 23.5425 108.159 23.597C108.3 23.646 108.438 23.7142 108.573 23.7989C108.708 23.8839 108.82 23.9961 108.911 24.1351C109.001 24.2727 109.046 24.4456 109.046 24.6526C109.046 24.9731 108.944 25.2252 108.739 25.4107C108.537 25.597 108.248 25.6892 107.875 25.6892C107.574 25.6892 107.305 25.6004 107.071 25.4232C106.834 25.2465 106.663 25.0146 106.553 24.7275L107.003 24.433Z" fill="white"/>
<path d="M109.324 23.8612C109.324 23.6012 109.369 23.3599 109.459 23.1389C109.549 22.9157 109.677 22.7245 109.842 22.562C110.007 22.4017 110.2 22.2744 110.421 22.1845C110.641 22.0944 110.882 22.0491 111.141 22.0491C111.402 22.0491 111.642 22.0944 111.865 22.1845C112.087 22.2746 112.28 22.4019 112.445 22.562C112.61 22.7245 112.738 22.9157 112.828 23.1389C112.92 23.3597 112.964 23.6012 112.964 23.8612C112.964 24.1225 112.92 24.364 112.828 24.5861C112.738 24.8069 112.612 25.0002 112.449 25.1657C112.285 25.3311 112.092 25.46 111.87 25.5513C111.649 25.6444 111.405 25.6891 111.141 25.6891C110.878 25.6891 110.635 25.6442 110.416 25.5513C110.196 25.46 110.003 25.3313 109.841 25.1657C109.676 25.0004 109.549 24.8069 109.46 24.5861C109.369 24.364 109.324 24.1223 109.324 23.8612ZM109.95 23.8612C109.95 24.1018 110 24.3169 110.103 24.5053C110.204 24.6936 110.346 24.8412 110.526 24.9481C110.706 25.0547 110.911 25.1082 111.141 25.1082C111.375 25.1082 111.581 25.0547 111.76 24.9481C111.938 24.8412 112.078 24.6936 112.18 24.5053C112.282 24.3167 112.333 24.1016 112.333 23.8612C112.333 23.621 112.282 23.407 112.18 23.2181C112.078 23.0299 111.938 22.8815 111.76 22.7748C111.581 22.6689 111.375 22.6151 111.141 22.6151C110.911 22.6151 110.706 22.6689 110.526 22.7748C110.345 22.8815 110.204 23.0299 110.103 23.2181C110 23.407 109.95 23.621 109.95 23.8612Z" fill="white"/>
<path d="M113.851 23.8612C113.851 24.1091 113.906 24.3254 114.016 24.5128C114.127 24.6996 114.272 24.844 114.454 24.9455C114.636 25.0475 114.834 25.0988 115.048 25.0988C115.295 25.0988 115.509 25.0516 115.692 24.9585C115.873 24.8646 116.024 24.7466 116.144 24.6031V25.3039C116 25.4234 115.843 25.5158 115.672 25.5792C115.5 25.6421 115.284 25.6736 115.027 25.6736C114.771 25.6736 114.533 25.6299 114.312 25.542C114.092 25.4536 113.899 25.3282 113.733 25.1685C113.569 25.0079 113.441 24.8167 113.347 24.5957C113.256 24.3729 113.21 24.1293 113.21 23.8614C113.21 23.5948 113.256 23.3512 113.347 23.1279C113.441 22.9068 113.569 22.7162 113.733 22.5557C113.898 22.3958 114.092 22.2701 114.312 22.1826C114.533 22.0925 114.771 22.0493 115.027 22.0493C115.284 22.0493 115.5 22.081 115.672 22.1445C115.843 22.2075 116 22.2997 116.144 22.419V23.1213C116.024 22.9775 115.873 22.8596 115.692 22.7657C115.509 22.672 115.295 22.6249 115.048 22.6249C114.834 22.6249 114.636 22.6756 114.454 22.7789C114.272 22.8804 114.127 23.0237 114.016 23.2086C113.906 23.3938 113.851 23.6115 113.851 23.8612Z" fill="white"/>
<path d="M116.743 22.11H117.343V25.6137H116.743V22.11Z" fill="white"/>
<path d="M118.573 23.9915V25.0935H120.125V25.6137H118.573H118.357H117.993V22.11H118.357H118.573H120.125V22.6291H118.573V23.482H120.026V23.9917L118.573 23.9915Z" fill="white"/>
<path d="M120.372 22.6553V22.11H122.815V22.6553H121.89V25.6139H121.294V22.6553H120.372Z" fill="white"/>
<path d="M125.125 22.11H125.802L124.609 24.1374V25.6139H124.008V24.1374L122.817 22.11H123.498L124.309 23.6114L125.125 22.11Z" fill="white"/>
<path d="M127.947 24.0324V25.6137H127.366V22.11H127.731H127.947H129.299V22.6404H127.947V23.5165H129.249V24.0324H127.947Z" fill="white"/>
<path d="M129.647 23.8612C129.647 23.6012 129.691 23.3599 129.782 23.1389C129.871 22.9157 130 22.7245 130.165 22.562C130.33 22.4017 130.523 22.2744 130.743 22.1845C130.964 22.0944 131.204 22.0491 131.463 22.0491C131.724 22.0491 131.965 22.0944 132.188 22.1845C132.41 22.2746 132.603 22.4019 132.768 22.562C132.933 22.7245 133.061 22.9157 133.151 23.1389C133.243 23.3597 133.287 23.6012 133.287 23.8612C133.287 24.1225 133.243 24.364 133.151 24.5861C133.061 24.8069 132.934 25.0002 132.772 25.1657C132.607 25.3311 132.414 25.46 132.193 25.5513C131.971 25.6444 131.728 25.6891 131.463 25.6891C131.2 25.6891 130.958 25.6442 130.738 25.5513C130.519 25.46 130.326 25.3313 130.162 25.1657C129.998 25.0004 129.872 24.8069 129.783 24.5861C129.691 24.364 129.647 24.1223 129.647 23.8612ZM130.272 23.8612C130.272 24.1018 130.323 24.3169 130.426 24.5053C130.527 24.6936 130.668 24.8412 130.848 24.9481C131.028 25.0547 131.233 25.1082 131.463 25.1082C131.697 25.1082 131.903 25.0547 132.082 24.9481C132.261 24.8412 132.4 24.6936 132.503 24.5053C132.605 24.3167 132.656 24.1016 132.656 23.8612C132.656 23.621 132.605 23.407 132.503 23.2181C132.401 23.0299 132.261 22.8815 132.082 22.7748C131.903 22.6689 131.697 22.6151 131.463 22.6151C131.233 22.6151 131.028 22.6689 130.848 22.7748C130.667 22.8815 130.527 23.0299 130.426 23.2181C130.323 23.407 130.272 23.621 130.272 23.8612Z" fill="white"/>
<path d="M134.324 24.2877V25.6139H133.732V22.11H134.084H134.324H134.814C135.067 22.11 135.289 22.1541 135.478 22.245C135.666 22.3342 135.813 22.4616 135.919 22.6247C136.023 22.7884 136.076 22.9798 136.076 23.2015C136.076 23.4541 136.006 23.6696 135.869 23.8463C135.73 24.023 135.539 24.1487 135.295 24.2217L136.285 25.6137H135.571L134.683 24.2875L134.324 24.2877ZM134.324 23.8022H134.789C134.993 23.8022 135.157 23.7496 135.28 23.6461C135.403 23.5427 135.465 23.3974 135.465 23.2109C135.465 23.0244 135.403 22.8791 135.28 22.7748C135.157 22.6717 134.993 22.6196 134.789 22.6196H134.324V23.8022Z" fill="white"/>
<path d="M138.55 24.2877V25.6139H137.96V22.11H138.31H138.551H139.016C139.271 22.11 139.492 22.1536 139.681 22.2416C139.868 22.33 140.016 22.4564 140.119 22.6196C140.222 22.7839 140.274 22.9773 140.274 23.2013C140.274 23.4253 140.222 23.617 140.119 23.779C140.016 23.9402 139.868 24.0667 139.681 24.1538C139.492 24.2426 139.271 24.2875 139.016 24.2875L138.55 24.2877ZM138.55 23.7669H139.016C139.22 23.7669 139.384 23.7185 139.507 23.624C139.631 23.5288 139.692 23.3876 139.692 23.2015C139.692 23.0133 139.631 22.8721 139.507 22.7748C139.384 22.6783 139.22 22.6289 139.016 22.6289H138.55V23.7669Z" fill="white"/>
<path d="M140.695 22.11H141.292V24.4376C141.292 24.6508 141.35 24.825 141.466 24.9583C141.583 25.0916 141.753 25.1591 141.977 25.1591C142.204 25.1591 142.374 25.0916 142.49 24.9583C142.605 24.825 142.663 24.6508 142.663 24.4376V22.11H143.259V24.4626C143.259 24.7189 143.205 24.9417 143.096 25.1259C142.987 25.3113 142.837 25.4536 142.644 25.5539C142.449 25.6544 142.227 25.7038 141.977 25.7038C141.727 25.7038 141.505 25.6544 141.314 25.5539C141.121 25.4536 140.971 25.3113 140.861 25.1259C140.75 24.9417 140.695 24.7189 140.695 24.4626V22.11H140.695Z" fill="white"/>
<path d="M145.514 23.7164C145.732 23.7739 145.909 23.8734 146.05 24.0164C146.19 24.1602 146.26 24.3557 146.26 24.6029C146.26 24.8339 146.207 25.0234 146.1 25.1742C145.993 25.3241 145.845 25.4346 145.655 25.5064C145.464 25.5784 145.245 25.6139 144.999 25.6139H143.882V22.11H144.939C145.268 22.11 145.538 22.1824 145.747 22.3268C145.956 22.4722 146.06 22.6932 146.06 22.9913C146.06 23.164 146.011 23.3125 145.913 23.436C145.814 23.5597 145.682 23.6536 145.514 23.7164ZM144.473 23.5167H144.898C145.063 23.5167 145.195 23.4758 145.299 23.394C145.403 23.3116 145.454 23.1988 145.454 23.0552C145.454 22.9087 145.403 22.7952 145.299 22.7173C145.195 22.6387 145.063 22.6006 144.898 22.6006H144.473V23.5167ZM144.473 23.9762V25.1233H144.964C145.164 25.1233 145.329 25.0746 145.459 24.9783C145.589 24.8814 145.655 24.7358 145.655 24.5422C145.655 24.3525 145.589 24.2102 145.459 24.1172C145.329 24.0233 145.164 23.9762 144.964 23.9762H144.473Z" fill="white"/>
<path d="M146.758 22.11H147.349V25.0839H148.741V25.6137H146.758L146.758 22.11Z" fill="white"/>
<path d="M149.039 22.11H149.639V25.6137H149.039V22.11Z" fill="white"/>
<path d="M150.73 23.8612C150.73 24.1091 150.784 24.3254 150.895 24.5128C151.006 24.6996 151.151 24.844 151.333 24.9455C151.515 25.0475 151.712 25.0988 151.926 25.0988C152.174 25.0988 152.388 25.0516 152.57 24.9585C152.751 24.8646 152.902 24.7466 153.022 24.6031V25.3039C152.879 25.4234 152.722 25.5158 152.55 25.5792C152.378 25.6421 152.163 25.6736 151.906 25.6736C151.649 25.6736 151.411 25.6299 151.191 25.542C150.97 25.4536 150.777 25.3282 150.611 25.1685C150.447 25.0079 150.319 24.8167 150.227 24.5957C150.135 24.3729 150.089 24.1293 150.089 23.8614C150.089 23.5948 150.135 23.3512 150.227 23.1279C150.319 22.9068 150.447 22.7162 150.611 22.5557C150.777 22.3958 150.97 22.2701 151.191 22.1826C151.411 22.0925 151.649 22.0493 151.906 22.0493C152.163 22.0493 152.379 22.081 152.55 22.1445C152.722 22.2075 152.879 22.2997 153.022 22.419V23.1213C152.902 22.9775 152.751 22.8596 152.57 22.7657C152.388 22.672 152.174 22.6249 151.926 22.6249C151.712 22.6249 151.515 22.6756 151.333 22.7789C151.151 22.8804 151.006 23.0237 150.895 23.2086C150.784 23.3938 150.73 23.6115 150.73 23.8612Z" fill="white"/>
<path d="M155.586 24.2877V25.6139H154.996V22.11H155.346H155.587H156.079C156.332 22.11 156.553 22.1541 156.742 22.245C156.93 22.3342 157.077 22.4616 157.182 22.6247C157.287 22.7884 157.339 22.9798 157.339 23.2015C157.339 23.4541 157.269 23.6696 157.132 23.8463C156.993 24.023 156.802 24.1487 156.559 24.2217L157.55 25.6137H156.834L155.948 24.2875L155.586 24.2877ZM155.586 23.8022H156.052C156.257 23.8022 156.421 23.7496 156.543 23.6461C156.667 23.5427 156.729 23.3974 156.729 23.2109C156.729 23.0244 156.667 22.8791 156.543 22.7748C156.421 22.6717 156.257 22.6196 156.052 22.6196H155.586V23.8022Z" fill="white"/>
<path d="M158.428 23.9915V25.0935H159.98V25.6137H158.428H158.212H157.847V22.11H158.212H158.428H159.98V22.6291H158.428V23.482H159.879V23.9917L158.428 23.9915Z" fill="white"/>
<path d="M160.578 22.11H161.168V25.0839H162.561V25.6137H160.578V22.11Z" fill="white"/>
<path d="M163.799 24.7124L163.399 25.6138H162.728L164.445 21.9137L166.162 25.6138H165.491L165.091 24.7124H163.799ZM163.97 24.2126H164.921L164.445 23.1L163.97 24.2126Z" fill="white"/>
<path d="M166.084 22.6553V22.11H168.528V22.6553H167.603V25.6139H167.006V22.6553H166.084Z" fill="white"/>
<path d="M168.827 22.11H169.428V25.6137H168.827V22.11Z" fill="white"/>
<path d="M169.878 23.8612C169.878 23.6012 169.922 23.3599 170.013 23.1389C170.102 22.9157 170.23 22.7245 170.395 22.562C170.56 22.4017 170.754 22.2744 170.973 22.1845C171.194 22.0944 171.435 22.0491 171.694 22.0491C171.955 22.0491 172.195 22.0944 172.418 22.1845C172.64 22.2746 172.833 22.4019 172.998 22.562C173.163 22.7245 173.291 22.9157 173.382 23.1389C173.472 23.3597 173.517 23.6012 173.517 23.8612C173.517 24.1225 173.472 24.364 173.382 24.5861C173.291 24.8069 173.165 25.0002 173.002 25.1657C172.837 25.3311 172.645 25.46 172.424 25.5513C172.201 25.6444 171.958 25.6891 171.694 25.6891C171.43 25.6891 171.189 25.6442 170.969 25.5513C170.749 25.46 170.556 25.3313 170.393 25.1657C170.229 25.0004 170.102 24.8069 170.013 24.5861C169.922 24.364 169.878 24.1223 169.878 23.8612ZM170.502 23.8612C170.502 24.1018 170.553 24.3169 170.656 24.5053C170.758 24.6936 170.898 24.8412 171.079 24.9481C171.258 25.0547 171.464 25.1082 171.694 25.1082C171.928 25.1082 172.134 25.0547 172.313 24.9481C172.492 24.8412 172.631 24.6936 172.734 24.5053C172.835 24.3167 172.886 24.1016 172.886 23.8612C172.886 23.621 172.835 23.407 172.734 23.2181C172.631 23.0299 172.492 22.8815 172.313 22.7748C172.134 22.6689 171.928 22.6151 171.694 22.6151C171.464 22.6151 171.258 22.6689 171.079 22.7748C170.898 22.8815 170.758 23.0299 170.656 23.2181C170.553 23.407 170.502 23.621 170.502 23.8612Z" fill="white"/>
<path d="M176.522 22.11H177.103V25.7892L174.544 23.2965V25.6137H173.963V21.9341L176.522 24.4329V22.11Z" fill="white"/>
<path d="M178.001 24.433C178.111 24.6594 178.236 24.8361 178.376 24.9635C178.516 25.0906 178.688 25.1543 178.891 25.1543C179.068 25.1543 179.202 25.1123 179.29 25.0276C179.379 24.9447 179.422 24.8278 179.422 24.6779C179.422 24.5472 179.385 24.4405 179.31 24.3577C179.235 24.2733 179.137 24.2043 179.02 24.1498C178.902 24.0949 178.775 24.0417 178.642 23.9914C178.555 23.9584 178.459 23.9154 178.353 23.8647C178.249 23.8121 178.15 23.7463 178.056 23.666C177.963 23.5853 177.886 23.4882 177.826 23.373C177.765 23.2585 177.735 23.1213 177.735 22.9648C177.735 22.7785 177.784 22.616 177.881 22.4799C177.978 22.3428 178.109 22.2366 178.274 22.161C178.439 22.0856 178.628 22.049 178.837 22.049C179.052 22.049 179.236 22.0879 179.394 22.1642C179.55 22.2397 179.679 22.3371 179.778 22.4523C179.879 22.5664 179.953 22.6848 179.999 22.8049L179.538 23.0907C179.464 22.9495 179.375 22.8313 179.27 22.7299C179.165 22.629 179.028 22.58 178.857 22.58C178.703 22.58 178.582 22.6179 178.489 22.6931C178.398 22.7672 178.352 22.8688 178.352 22.9961C178.352 23.0956 178.389 23.1807 178.465 23.2506C178.54 23.3208 178.638 23.3822 178.762 23.4358C178.885 23.4891 179.017 23.5425 179.158 23.597C179.297 23.646 179.435 23.7142 179.571 23.7989C179.706 23.8839 179.818 23.9961 179.908 24.1351C179.999 24.2727 180.044 24.4456 180.044 24.6526C180.044 24.9731 179.942 25.2252 179.738 25.4107C179.534 25.597 179.245 25.6892 178.872 25.6892C178.571 25.6892 178.304 25.6004 178.069 25.4232C177.833 25.2465 177.661 25.0146 177.551 24.7275L178.001 24.433Z" fill="white"/>
<path d="M14.0677 0.533081H23.7237C29.4261 0.533081 32.607 4.26168 32.607 8.94128C32.607 12.3769 30.9246 15.3016 27.7441 16.617L28.4998 17.927L33.2273 26.1224H27.7441H19.1166H14.0677V0.533081Z" fill="white"/>
<path d="M27.7309 8.91763C27.7309 13.5968 24.5504 17.3256 18.8472 17.3256L14.0641 17.3412V26.1137L9.37918 26.0984V9.86585L14.0641 9.87054V12.6839L18.7375 12.6831C21.1866 12.6831 22.7223 11.1111 22.7223 8.91763C22.7223 6.72412 21.1868 5.18903 18.7375 5.18903H9.37918V0.509644H18.8472C24.5504 0.509644 27.7309 4.23824 27.7309 8.91763Z" fill="white"/>
<path d="M9.38046 5.1908H4.70129V9.86997H9.38046V5.1908Z" fill="white"/>
<path d="M4.71131 0.510376H0.0323486V5.18955H4.71131V0.510376Z" fill="white"/>
<path d="M82.8454 0.903442H88.7104" stroke="black" stroke-width="0.0532353" stroke-miterlimit="10"/>
<path d="M85.8828 -1.40088V3.5219" stroke="black" stroke-width="0.0532353" stroke-miterlimit="10"/>
</g>
<defs>
<clipPath id="clip0_229_96843">
<rect width="179.935" height="25.34" fill="white" transform="translate(0.0323486 0.329956)"/>
</clipPath>
</defs>
</svg>
