<svg width="20" height="20" viewBox="0 0 20 20" fill="none" xmlns="http://www.w3.org/2000/svg">
<path d="M10 1.95752C11.0665 1.95752 12.0893 2.38118 12.8435 3.13531C13.5976 3.88944 14.0213 4.91226 14.0213 5.97876C14.0213 7.04526 13.5976 8.06808 12.8435 8.82221C12.0893 9.57634 11.0665 10 10 10C8.93351 10 7.91069 9.57634 7.15656 8.82221C6.40243 8.06808 5.97876 7.04526 5.97876 5.97876C5.97876 4.91226 6.40243 3.88944 7.15656 3.13531C7.91069 2.38118 8.93351 1.95752 10 1.95752ZM10 12.0106C14.4435 12.0106 18.0425 13.8101 18.0425 16.0319V18.0425H1.95752V16.0319C1.95752 13.8101 5.55653 12.0106 10 12.0106Z" fill="white"/>
</svg>
