<svg width="30" height="29" viewBox="0 0 30 29" fill="none" xmlns="http://www.w3.org/2000/svg">
<path d="M15.0001 0.137207C7.0471 0.137207 0.600098 6.58421 0.600098 14.5372C0.600098 22.4902 7.0471 28.9372 15.0001 28.9372C22.9531 28.9372 29.4001 22.4902 29.4001 14.5372C29.4001 6.58421 22.9531 0.137207 15.0001 0.137207ZM20.8576 11.9332C20.8636 12.0562 20.8651 12.1792 20.8651 12.2992C20.8651 16.0492 18.0136 20.3707 12.7966 20.3707C11.255 20.3733 9.74555 19.9305 8.4496 19.0957C8.6701 19.1227 8.8966 19.1332 9.1261 19.1332C10.4551 19.1332 11.6776 18.6817 12.6481 17.9197C12.0567 17.9081 11.4836 17.7123 11.0088 17.3595C10.5339 17.0067 10.181 16.5146 9.9991 15.9517C10.4238 16.0325 10.8614 16.0155 11.2786 15.9022C10.6367 15.7724 10.0594 15.4246 9.64466 14.9177C9.22993 14.4108 9.00326 13.7761 9.0031 13.1212V13.0867C9.3856 13.2982 9.8236 13.4272 10.2886 13.4422C9.6868 13.0416 9.26078 12.4262 9.09767 11.7219C8.93455 11.0176 9.04668 10.2776 9.4111 9.65321C10.1235 10.5292 11.012 11.2458 12.019 11.7567C13.0259 12.2675 14.1289 12.5612 15.2566 12.6187C15.1132 12.0102 15.1749 11.3713 15.4321 10.8015C15.6893 10.2316 16.1275 9.76269 16.6787 9.4676C17.2299 9.17251 17.8631 9.06779 18.4799 9.16971C19.0968 9.27164 19.6627 9.5745 20.0896 10.0312C20.7244 9.90562 21.3331 9.67279 21.8896 9.34271C21.678 9.99991 21.2351 10.558 20.6431 10.9132C21.2054 10.8455 21.7544 10.6943 22.2721 10.4647C21.8918 11.0345 21.4128 11.5319 20.8576 11.9332V11.9332Z" fill="#404040"/>
</svg>
