<svg width="30" height="29" viewBox="0 0 30 29" fill="none" xmlns="http://www.w3.org/2000/svg">
<path d="M19.5001 14.5372C19.5001 15.7307 19.026 16.8753 18.1821 17.7192C17.3382 18.5631 16.1936 19.0372 15.0001 19.0372C13.8066 19.0372 12.662 18.5631 11.8181 17.7192C10.9742 16.8753 10.5001 15.7307 10.5001 14.5372C10.5001 14.2807 10.5271 14.0302 10.5736 13.7872H9.0001V19.7827C9.0001 20.1997 9.3376 20.5372 9.7546 20.5372H20.2471C20.4469 20.5368 20.6385 20.4571 20.7796 20.3157C20.9208 20.1742 21.0001 19.9826 21.0001 19.7827V13.7872H19.4266C19.4731 14.0302 19.5001 14.2807 19.5001 14.5372V14.5372ZM15.0001 17.5372C15.3942 17.5371 15.7844 17.4594 16.1484 17.3085C16.5124 17.1576 16.8432 16.9365 17.1217 16.6578C17.4003 16.3791 17.6213 16.0482 17.772 15.6841C17.9227 15.32 18.0002 14.9298 18.0001 14.5357C18 14.1416 17.9223 13.7515 17.7714 13.3874C17.6205 13.0234 17.3994 12.6927 17.1207 12.4141C16.842 12.1355 16.5111 11.9145 16.147 11.7638C15.7829 11.6131 15.3927 11.5356 14.9986 11.5357C14.2028 11.5359 13.4396 11.8522 12.877 12.4151C12.3144 12.978 11.9984 13.7414 11.9986 14.5372C11.9988 15.3331 12.3151 16.0962 12.878 16.6588C13.4409 17.2214 14.2043 17.5374 15.0001 17.5372V17.5372ZM18.6001 11.3872H20.3986C20.5181 11.3872 20.6327 11.3398 20.7173 11.2555C20.802 11.1711 20.8497 11.0567 20.8501 10.9372V9.13871C20.8501 9.01896 20.8025 8.90412 20.7179 8.81945C20.6332 8.73478 20.5183 8.68721 20.3986 8.68721H18.6001C18.4804 8.68721 18.3655 8.73478 18.2808 8.81945C18.1962 8.90412 18.1486 9.01896 18.1486 9.13871V10.9372C18.1501 11.1847 18.3526 11.3872 18.6001 11.3872V11.3872ZM15.0001 0.137207C11.181 0.137207 7.51828 1.65435 4.81776 4.35487C2.11724 7.05539 0.600098 10.7181 0.600098 14.5372C0.600098 18.3563 2.11724 22.019 4.81776 24.7195C7.51828 27.4201 11.181 28.9372 15.0001 28.9372C16.8911 28.9372 18.7637 28.5647 20.5107 27.8411C22.2578 27.1174 23.8453 26.0567 25.1824 24.7195C26.5196 23.3824 27.5803 21.7949 28.304 20.0478C29.0276 18.3008 29.4001 16.4282 29.4001 14.5372C29.4001 12.6462 29.0276 10.7737 28.304 9.02657C27.5803 7.27948 26.5196 5.69203 25.1824 4.35487C23.8453 3.01771 22.2578 1.95701 20.5107 1.23334C18.7637 0.509674 16.8911 0.137207 15.0001 0.137207V0.137207ZM22.5001 20.3707C22.5001 21.2872 21.7501 22.0372 20.8336 22.0372H9.1666C8.2501 22.0372 7.5001 21.2872 7.5001 20.3707V8.70371C7.5001 7.78721 8.2501 7.03721 9.1666 7.03721H20.8336C21.7501 7.03721 22.5001 7.78721 22.5001 8.70371V20.3707V20.3707Z" fill="#404040"/>
</svg>
